<?xml version="1.0" encoding="utf-8"?>
<!-- Generator: Adobe Illustrator 27.5.0, SVG Export Plug-In . SVG Version: 6.00 Build 0)  -->
<svg version="1.1" xmlns="http://www.w3.org/2000/svg" xmlns:xlink="http://www.w3.org/1999/xlink" x="0px" y="0px"
	 viewBox="0 0 500 500" style="enable-background:new 0 0 500 500;" xml:space="preserve">
<g id="Background_Complete">
	<g>
		<g>
			<g>
				<g>
					<path style="fill:#F5F5F5;" d="M88.705,54.083h58.674c0,0-5.188-9.442-20.291-8.068c-14.424,1.313-15.157-4.645-22.492-5.378
						C97.261,39.903,91.149,45.526,88.705,54.083z"/>
				</g>
			</g>
		</g>
	</g>
	<g>
		<g>
			<g>
				<g>
					<path style="fill:#F5F5F5;" d="M426.607,62.78h46.641c0,0-4.124-7.506-16.13-6.413c-11.466,1.043-12.049-3.692-17.879-4.275
						C433.409,51.508,428.551,55.978,426.607,62.78z"/>
				</g>
			</g>
		</g>
	</g>
	<g>
		<g>
			<g>
				<g>
					<path style="fill:#EBEBEB;" d="M34.446,78.709h62.467c0,0-5.524-10.052-21.603-8.589c-15.356,1.397-16.137-4.945-23.946-5.726
						C43.556,63.613,37.049,69.599,34.446,78.709z"/>
				</g>
			</g>
		</g>
	</g>
	<g>
		<g>
			<path style="fill:#E0E0E0;" d="M240.657,250.621c0,0.144-46.193,0.26-103.162,0.26c-56.989,0-103.172-0.117-103.172-0.26
				s46.183-0.26,103.172-0.26C194.463,250.361,240.657,250.477,240.657,250.621z"/>
		</g>
		<path style="fill:#EBEBEB;" d="M57.551,165.825l40.422,16.74C97.973,182.565,97.973,161.037,57.551,165.825z"/>
		<path style="fill:#E0E0E0;" d="M56.709,171.45l4.928,0.215c0,0,1.17,19.929,10.669,43.007
			c9.498,23.078,12.442,34.912,12.442,34.912h-9.184c0,0-6.785-22.141-11.85-38.416C58.019,192.876,56.709,171.45,56.709,171.45z"/>
		<path style="fill:#F5F5F5;" d="M57.877,164.264l23.77,36.602C81.647,200.866,93.641,179.027,57.877,164.264z"/>
		<path style="fill:#F5F5F5;" d="M57.161,166.739l46.706-4.153C103.867,162.586,89.084,139.381,57.161,166.739z"/>
		<path style="fill:#EBEBEB;" d="M58.517,165.365l-16.344,35.501C42.173,200.866,27.059,184.521,58.517,165.365z"/>
		<path style="fill:#F5F5F5;" d="M61.141,163.908l-34.007,23.902C27.134,187.809,23.326,163.908,61.141,163.908z"/>
		<path style="fill:#EBEBEB;" d="M63.123,166.662l-42.892-4.372C20.231,162.29,37.208,143.74,63.123,166.662z"/>
		<path style="fill:#EBEBEB;" d="M57.536,170.921l29.956-36.741C87.492,134.18,61.694,128.057,57.536,170.921z"/>
		<path style="fill:#F5F5F5;" d="M63.673,170.458L29.25,135.495C29.25,135.495,55.056,124.491,63.673,170.458z"/>
		<path style="fill:#E0E0E0;" d="M57.161,173.848c0,2.352,1.907,4.259,4.259,4.259c2.353,0,4.26-1.907,4.26-4.259
			s-1.907-4.26-4.26-4.26C59.068,169.588,57.161,171.495,57.161,173.848z"/>
		<path style="fill:#E0E0E0;" d="M52.123,171.599c0,2.353,1.907,4.26,4.259,4.26c2.352,0,4.259-1.907,4.259-4.26
			c0-2.352-1.907-4.259-4.259-4.259C54.03,167.34,52.123,169.247,52.123,171.599z"/>
		<path style="fill:#EBEBEB;" d="M57.806,166.662c0,2.352,1.907,4.26,4.259,4.26c2.352,0,4.259-1.907,4.259-4.26
			s-1.907-4.259-4.259-4.259C59.713,162.402,57.806,164.309,57.806,166.662z"/>
		<path style="fill:#EBEBEB;" d="M52.622,164.329c0,2.352,1.907,4.26,4.259,4.26c2.353,0,4.259-1.907,4.259-4.26
			s-1.907-4.259-4.259-4.259C54.529,160.07,52.622,161.977,52.622,164.329z"/>
		<path style="fill:#EBEBEB;" d="M114.236,239.173c-4.635,1.254-9.492,3.504-14.016,1.895c-2.473-0.879-4.405-2.795-6.486-4.394
			c-7.378-5.667-17.54-7.51-26.439-4.794c-8.898,2.716-16.299,9.919-19.255,18.741h101.898
			C141.607,241.549,126.125,235.955,114.236,239.173z"/>
	</g>
</g>
<g id="Background_Simple" style="display:none;">
	<path style="display:inline;fill:#EBEBEB;" d="M137.879,191.508c-1.163-2.227-4.123-3.251-6.453-2.373l0.013-0.006
		c-2.651,0.603-3.514,3.941-2.594,6.499c0.92,2.558,4.228,3.922,6.698,2.786C138.012,197.28,139.137,193.918,137.879,191.508z"/>
	<path style="display:inline;fill:#EBEBEB;" d="M108.544,219.68c-0.581-1.114-2.062-1.625-3.227-1.187l0.006-0.003
		c-1.325,0.301-1.757,1.971-1.297,3.25c0.46,1.279,2.114,1.961,3.349,1.393C108.61,222.565,109.173,220.885,108.544,219.68z"/>
	<path style="display:inline;fill:#EBEBEB;" d="M104.644,166.964c-1.163-2.227-4.123-3.251-6.453-2.373l0.013-0.006
		c-2.651,0.603-3.514,3.941-2.595,6.499s4.228,3.922,6.698,2.786C104.778,172.736,105.902,169.374,104.644,166.964z"/>
	<path style="display:inline;fill:#EBEBEB;" d="M479.793,61.963c-0.73-8.209-7.966-15.704-16.206-15.57
		c-3.287,0.054-6.62,1.203-9.8,0.369c-5.232-1.372-7.625-7.233-11.216-11.277c-4.476-5.042-11.68-7.5-18.305-6.246
		c-6.625,1.254-9.212,3.943-11.537,10.271c-2.089,10.138,0.388,21.063,6.36,29.518s15.298,14.392,25.415,16.58
		c8.055,1.742,16.859,1.079,23.945-3.129C475.537,78.27,480.523,70.172,479.793,61.963z"/>
	<path style="display:inline;fill:#EBEBEB;" d="M147.939,215.549c-9.209,0.525-17.85,8.353-17.992,17.576
		c-0.057,3.678,1.111,7.448,0.065,10.975c-1.721,5.803-8.361,8.273-13.013,12.146c-5.799,4.828-8.804,12.799-7.637,20.254
		c1.167,7.455,4.083,10.445,11.08,13.269c11.267,2.697,23.575,0.314,33.244-6.066c9.669-6.38,16.642-16.601,19.449-27.841
		c2.235-8.949,1.806-18.82-2.649-26.896C166.03,220.889,157.148,215.024,147.939,215.549z"/>
</g>
<g id="Wave">
	<g>
		<path style="fill:#F5F5F5;" d="M468.468,214.848c3.06,77.042-30.909,157.63-96.002,198.956
			c-27.408,17.4-58.78,27.321-89.75,37.057c-24.959,7.847-50.232,15.753-76.352,17.249c-8.866,0.508-18.18,0.167-25.959-4.117
			c-7.779-4.284-13.436-13.542-10.994-22.081c-12.812,5.208-26.355,10.519-40.065,8.698c-13.71-1.821-27.141-13.596-25.544-27.334
			c-10.125,3.156-20.73,5.688-31.261,4.434c-10.531-1.254-21.057-6.941-25.618-16.515c-4.561-9.574-1.2-22.924,8.48-27.255
			c-14.272,3.92-30.773-6.481-33.392-21.049c-2.619-14.568,15.684-55.418,64.799-54.579l230.071,2.809L468.468,214.848"/>
		<path style="fill:#E0E0E0;" d="M107.018,306.031c-10.665,0.435-19.239,3.422-29.928,11.12c-2.991,2.154-7.841,9.617-8.298,13.275
			c-0.662,5.303,5.712,8.433,10.923,9.616c11.57,2.625,23.437,3.939,35.3,3.909c-4.544,2.493-9.2,5.075-12.522,9.053
			c-3.322,3.978-5.053,9.727-2.921,14.451c3.252,7.205,12.846,8.306,20.751,8.371c16.968,0.139,33.936,0.278,50.905,0.417
			c-4.084-0.402-7.535,4.006-7.078,8.084c0.457,4.078,3.873,7.353,7.721,8.778c3.848,1.425,8.078,1.326,12.17,1.022
			c22.771-1.686,44.688-9.051,66.321-16.357c-5.473,5.02-0.974,15.088,6.072,17.433c7.046,2.345,31.978,1.245,39.21-0.444
			c74.069-17.298,84.921-31.71,119.756-64.402"/>
		<path style="fill:#E0E0E0;" d="M107.018,306.031c29.411-1.294,73.863-4.681,94.182-25.985
			c20.319-21.303,38.004-51.614,30.051-79.96c-3.017-10.752-6.681-24.85-17.302-37.566c-13.819-16.545,7.377-38.855,22.664-54.055
			s35.6-24.345,56.215-30.648c30.314-9.269,63.714-12.883,93.346-1.621c29.632,11.262,53.958,40.283,52.209,71.935
			c-1.643-6.454,4.197-13.182,10.815-13.928c6.618-0.746,13.08,3.298,16.896,8.757c3.815,5.459,5.429,12.133,6.567,18.695
			c10.832,62.461-14.389,138.152-67.97,177.354c-35.662,26.092-83.456,35.433-127.541,38.451
			c-48.514,3.322-98.956-13.82-145.161-28.977c-7.573-2.484-15.274-5.421-21.033-10.932
			C105.199,332.041,93.479,313.711,107.018,306.031"/>
		<path style="fill:#F5F5F5;" d="M417.978,94.293c-22.207-45.091-106.827-63.359-159.937-60.135
			c-53.11,3.224-101.823,23.189-145.386,53.74c-7.094,4.975-15.388,13.63-17.777,21.959c-2.348,8.187,1.366,17.131,8.989,20.929
			c7.624,3.798,16.05-4.088,19.417-11.912c-10.61,3.92-12.023,23.548-7.742,34.018c4.857,11.878,19.494,9.349,30.542,6.928
			c11.049-2.421,20.857-11.828,29.109-19.564c-4.173,4.064-6.465,16.239-2.048,20.036c4.417,3.797,12.888,4.303,18.146,1.798
			c5.259-2.505,10.661-12.141,13.331-17.317c-3.856,5.048,2.975,17.855,9.327,17.749c6.352-0.106,11.321-6.658,15.202-11.687
			c-3.527,6.646,0.279,15.696,7.124,18.82c6.845,3.124,15.216,0.958,21.171-3.641c5.955-4.599,9.474-14.71,12.211-21.719
			c2.737-7.009,4.523-14.361,7.287-21.359c9.263-23.457,29.834-41.992,53.932-49.429c24.098-7.438,51.232-3.847,72.93,9.006"/>
		<g>
			<g>
				<path style="fill:#263238;" d="M452.518,103.77c-0.009-0.016,0.117-0.098,0.368-0.242c0.247-0.148,0.64-0.327,1.17-0.477
					c1.043-0.314,2.729-0.47,4.606,0.228c0.926,0.352,1.894,0.919,2.705,1.782c0.795,0.866,1.429,2.033,1.615,3.355
					c0.215,1.31,0.049,2.751-0.522,4.078c-0.548,1.334-1.565,2.555-2.926,3.305c-1.38,0.723-2.964,0.877-4.376,0.581
					c-1.419-0.277-2.704-0.962-3.647-1.901c-0.967-0.925-1.538-2.135-1.719-3.304c-0.179-1.176,0.019-2.29,0.357-3.222
					c0.702-1.882,1.979-3.027,2.944-3.538c0.237-0.143,0.464-0.237,0.664-0.31c0.195-0.084,0.366-0.137,0.509-0.163
					c0.282-0.066,0.43-0.091,0.434-0.074c0.018,0.058-0.592,0.161-1.504,0.721c-0.9,0.545-2.077,1.685-2.7,3.486
					c-0.299,0.892-0.462,1.944-0.278,3.031c0.187,1.079,0.722,2.18,1.627,3.029c0.882,0.861,2.087,1.494,3.41,1.744
					c1.318,0.27,2.777,0.117,4.032-0.539c1.24-0.685,2.186-1.804,2.703-3.047c0.539-1.234,0.705-2.584,0.516-3.804
					c-0.161-1.234-0.73-2.312-1.458-3.136c-0.744-0.818-1.647-1.374-2.521-1.731c-1.772-0.709-3.395-0.621-4.422-0.375
					C453.063,103.495,452.543,103.821,452.518,103.77z"/>
			</g>
			<g>
				<path style="fill:#FFFFFF;" d="M414.042,181.674c-0.009,0-0.024-0.141-0.044-0.415c-0.019-0.299-0.044-0.704-0.076-1.221
					c-0.047-1.074-0.155-2.655-0.318-4.688c-0.336-4.064-1.011-9.942-2.533-17.076c-1.54-7.121-3.944-15.504-7.745-24.365
					c-0.479-1.105-0.954-2.228-1.487-3.341c-0.532-1.115-1.003-2.274-1.662-3.326c-0.651-1.059-1.409-2.077-2.325-2.941
					c-0.916-0.843-2.012-1.584-3.248-1.725c-1.212-0.147-2.507,0.38-3.299,1.353c-0.822,0.967-1.203,2.275-1.526,3.57
					c-0.323,1.306-0.58,2.664-1.082,3.982c-0.487,1.315-1.383,2.561-2.629,3.32c-1.246,0.768-2.727,1.023-4.132,0.937
					c-1.414-0.086-2.779-0.487-4.026-1.088c-1.245-0.605-2.392-1.41-3.323-2.417c-0.947-0.996-1.631-2.206-2.132-3.434
					c-1.026-2.475-1.379-5.101-1.532-7.628c-0.156-2.536-0.119-5.013-0.222-7.416c-0.18-4.786-1.142-9.367-3.256-13.072
					c-1.044-1.848-2.362-3.458-3.898-4.687c-1.531-1.229-3.233-2.134-4.958-2.645c-3.435-1.079-6.997-0.531-9.287,1.173
					c-2.309,1.711-3.486,4.089-3.867,6.05c-0.443,1.99-0.04,3.596,0.335,4.573c0.186,0.502,0.394,0.853,0.54,1.086
					c0.138,0.238,0.205,0.363,0.198,0.368c-0.007,0.005-0.089-0.109-0.243-0.339c-0.162-0.225-0.387-0.571-0.592-1.075
					c-0.413-0.977-0.858-2.613-0.437-4.652c0.36-2.009,1.529-4.455,3.894-6.246c2.361-1.79,6.027-2.376,9.564-1.291
					c1.776,0.514,3.525,1.43,5.104,2.685c1.585,1.255,2.947,2.904,4.021,4.787c2.177,3.778,3.165,8.433,3.36,13.265
					c0.11,2.42,0.079,4.896,0.239,7.405c0.156,2.502,0.51,5.071,1.507,7.464c0.493,1.199,1.135,2.329,2.035,3.275
					c0.885,0.957,1.984,1.727,3.175,2.304c1.193,0.574,2.497,0.955,3.83,1.035c1.326,0.081,2.697-0.163,3.83-0.862
					c1.134-0.696,1.949-1.811,2.417-3.065c0.48-1.256,0.737-2.594,1.064-3.919c0.332-1.31,0.715-2.689,1.636-3.778
					c0.895-1.095,2.361-1.697,3.751-1.527c1.407,0.167,2.574,0.98,3.534,1.864c0.959,0.909,1.737,1.96,2.405,3.051
					c0.681,1.095,1.152,2.265,1.681,3.38c0.532,1.118,1.006,2.247,1.484,3.357c3.79,8.904,6.165,17.326,7.663,24.477
					c1.48,7.163,2.1,13.061,2.375,17.136c0.133,2.039,0.208,3.624,0.221,4.7c0.01,0.518,0.018,0.923,0.024,1.223
					C414.054,181.532,414.051,181.674,414.042,181.674z"/>
			</g>
			<g>
				<path style="fill:#263238;" d="M409.948,255.738c-0.008-0.005,0.024-0.081,0.094-0.226c0.087-0.171,0.193-0.38,0.322-0.637
					c0.313-0.592,0.742-1.401,1.283-2.424c0.571-1.045,1.256-2.329,1.989-3.853c0.742-1.519,1.641-3.222,2.494-5.172
					c0.442-0.969,0.904-1.982,1.385-3.038c0.478-1.058,0.917-2.184,1.404-3.336c0.996-2.295,1.905-4.809,2.897-7.439
					c1.882-5.298,3.728-11.204,5.287-17.503c1.52-6.312,2.603-12.405,3.374-17.975c0.332-2.792,0.684-5.442,0.857-7.938
					c0.098-1.246,0.229-2.448,0.291-3.607c0.059-1.159,0.116-2.271,0.171-3.334c0.141-2.124,0.128-4.049,0.17-5.739
					c0.051-1.69,0.036-3.146,0.01-4.336c-0.009-1.157-0.016-2.072-0.022-2.742c0.003-0.288,0.006-0.522,0.008-0.714
					c0.005-0.161,0.011-0.244,0.02-0.244s0.02,0.081,0.033,0.242c0.012,0.191,0.026,0.425,0.044,0.712
					c0.029,0.67,0.069,1.585,0.119,2.742c0.056,1.191,0.102,2.648,0.078,4.342c-0.014,1.693,0.025,3.623-0.093,5.752
					c-0.044,1.066-0.09,2.182-0.137,3.344c-0.052,1.163-0.173,2.368-0.262,3.619c-0.156,2.504-0.492,5.163-0.812,7.965
					c-0.748,5.59-1.82,11.705-3.344,18.036c-1.564,6.319-3.43,12.239-5.342,17.543c-1.007,2.634-1.934,5.148-2.949,7.442
					c-0.497,1.151-0.946,2.276-1.435,3.332c-0.493,1.053-0.966,2.064-1.419,3.031c-0.876,1.944-1.8,3.639-2.568,5.148
					c-0.759,1.514-1.471,2.787-2.07,3.818c-0.578,1.003-1.035,1.797-1.369,2.378c-0.148,0.246-0.269,0.447-0.367,0.612
					C410.003,255.675,409.956,255.743,409.948,255.738z"/>
			</g>
			<g>
				<path style="fill:#263238;" d="M386.336,176.72c0.018-0.002,0.063,0.255,0.132,0.747c0.07,0.543,0.162,1.26,0.278,2.156
					c0.057,0.474,0.12,0.995,0.188,1.561c0.055,0.572,0.084,1.196,0.131,1.865c0.075,1.339,0.222,2.863,0.203,4.554
					c0.008,0.846,0.016,1.731,0.025,2.652c0.003,0.922-0.067,1.88-0.1,2.873c-0.04,1.989-0.274,4.101-0.482,6.326
					c-0.535,4.437-1.402,9.285-2.749,14.268c-1.392,4.972-3.129,9.583-4.939,13.669c-0.961,2.018-1.84,3.953-2.823,5.682
					c-0.48,0.87-0.909,1.729-1.384,2.52c-0.479,0.787-0.939,1.543-1.378,2.266c-0.849,1.462-1.755,2.696-2.504,3.809
					c-0.383,0.551-0.727,1.072-1.066,1.535c-0.348,0.451-0.669,0.866-0.96,1.244c-0.558,0.711-1.004,1.28-1.342,1.71
					c-0.311,0.387-0.481,0.585-0.495,0.574c-0.014-0.011,0.128-0.231,0.412-0.638c0.318-0.445,0.737-1.032,1.262-1.766
					c0.28-0.385,0.587-0.808,0.921-1.268c0.327-0.47,0.658-0.998,1.028-1.555c0.724-1.124,1.605-2.368,2.431-3.837
					c0.429-0.725,0.877-1.484,1.344-2.274c0.464-0.793,0.882-1.653,1.352-2.523c0.962-1.73,1.822-3.662,2.767-5.676
					c1.777-4.077,3.49-8.666,4.875-13.611c1.34-4.956,2.216-9.774,2.774-14.186c0.219-2.213,0.468-4.313,0.527-6.291
					c0.042-0.988,0.122-1.941,0.13-2.86c0.003-0.917,0.006-1.798,0.009-2.641c0.042-1.684-0.078-3.203-0.125-4.54
					c-0.033-0.668-0.047-1.291-0.087-1.862c-0.052-0.566-0.099-1.087-0.143-1.561c-0.075-0.9-0.135-1.619-0.18-2.163
					C386.328,176.984,386.318,176.722,386.336,176.72z"/>
			</g>
		</g>
		<g>
			<path style="fill:#FFFFFF;" d="M343.992,194.546c-0.014-0.011,0.107-0.205,0.349-0.565c0.278-0.4,0.636-0.915,1.08-1.555
				c0.241-0.34,0.504-0.712,0.79-1.115c0.277-0.415,0.549-0.886,0.858-1.38c0.6-1,1.349-2.098,2.001-3.414
				c0.345-0.649,0.705-1.327,1.08-2.032c0.371-0.709,0.682-1.483,1.047-2.264c0.756-1.551,1.367-3.291,2.055-5.101
				c1.246-3.667,2.334-7.798,2.999-12.222c0.614-4.433,0.739-8.704,0.581-12.575c-0.148-1.932-0.242-3.773-0.529-5.475
				c-0.129-0.852-0.209-1.683-0.364-2.467c-0.16-0.783-0.314-1.535-0.462-2.255c-0.253-1.447-0.661-2.712-0.954-3.84
				c-0.157-0.561-0.285-1.09-0.433-1.566c-0.16-0.467-0.307-0.899-0.442-1.293c-0.245-0.739-0.443-1.335-0.596-1.796
				c-0.131-0.413-0.192-0.634-0.175-0.64c0.017-0.007,0.11,0.201,0.273,0.602c0.177,0.454,0.406,1.041,0.689,1.767
				c0.148,0.391,0.311,0.819,0.487,1.283c0.163,0.474,0.305,1.001,0.476,1.561c0.321,1.126,0.756,2.392,1.034,3.842
				c0.159,0.722,0.325,1.477,0.497,2.262c0.167,0.788,0.258,1.623,0.396,2.479c0.307,1.711,0.418,3.564,0.58,5.51
				c0.186,3.899,0.075,8.206-0.544,12.675c-0.67,4.46-1.781,8.622-3.062,12.308c-0.706,1.82-1.336,3.566-2.115,5.121
				c-0.375,0.782-0.698,1.557-1.081,2.266c-0.388,0.704-0.76,1.381-1.117,2.029c-0.677,1.313-1.452,2.404-2.078,3.393
				c-0.322,0.489-0.608,0.954-0.898,1.362c-0.3,0.395-0.577,0.76-0.83,1.093c-0.478,0.617-0.863,1.115-1.161,1.5
				C344.154,194.385,344.006,194.558,343.992,194.546z"/>
		</g>
		<g>
			<path style="fill:#FFFFFF;" d="M373.039,285.634c-0.005-0.008,0.076-0.072,0.24-0.192c0.188-0.134,0.429-0.305,0.73-0.519
				c0.634-0.467,1.625-1.074,2.809-1.986c2.422-1.747,5.802-4.46,9.631-8.179c3.836-3.71,8.027-8.522,12.067-14.309
				c4.042-5.783,7.871-12.569,11.138-20.029c6.483-14.984,9.495-29.576,11.152-40.105c0.825-5.28,1.339-9.577,1.663-12.549
				c0.158-1.459,0.283-2.605,0.371-3.423c0.044-0.368,0.079-0.661,0.107-0.89c0.027-0.2,0.045-0.302,0.054-0.302
				c0.009,0.001,0.009,0.104-0.001,0.306c-0.014,0.23-0.032,0.525-0.055,0.894c-0.06,0.785-0.13,1.945-0.274,3.434
				c-0.262,2.98-0.721,7.288-1.501,12.584c-1.566,10.56-4.528,25.21-11.038,40.257c-3.28,7.492-7.14,14.303-11.222,20.096
				c-4.079,5.798-8.32,10.607-12.204,14.299c-3.878,3.7-7.304,6.379-9.769,8.079c-1.205,0.889-2.217,1.47-2.87,1.91
				c-0.314,0.197-0.564,0.353-0.759,0.476C373.135,285.592,373.044,285.642,373.039,285.634z"/>
		</g>
		<g>
			<path style="fill:#FFFFFF;" d="M282.322,50.401c-0.001,0.009-0.149,0.005-0.438-0.01c-0.312-0.02-0.736-0.047-1.279-0.082
				c-1.149-0.086-2.798-0.209-4.91-0.367c-1.068-0.084-2.252-0.176-3.546-0.278c-1.298-0.071-2.712-0.075-4.229-0.122
				c-3.035-0.046-6.489-0.259-10.308-0.063c-1.91,0.054-3.91,0.111-5.993,0.17c-2.083,0.071-4.241,0.32-6.48,0.481
				c-1.119,0.091-2.257,0.184-3.414,0.279c-0.578,0.052-1.162,0.084-1.747,0.153c-0.584,0.079-1.172,0.158-1.765,0.239
				c-2.371,0.32-4.811,0.649-7.313,0.987c-9.965,1.625-20.821,4.053-31.922,7.617c-11.07,3.671-21.272,8.116-30.278,12.682
				c-2.22,1.203-4.384,2.377-6.488,3.517c-0.526,0.285-1.048,0.568-1.566,0.849c-0.513,0.29-1.004,0.608-1.501,0.907
				c-0.99,0.606-1.964,1.202-2.921,1.789c-1.903,1.191-3.793,2.263-5.517,3.435c-1.717,1.181-3.366,2.315-4.94,3.398
				c-3.2,2.094-5.863,4.303-8.286,6.131c-1.197,0.932-2.337,1.77-3.343,2.592c-0.985,0.845-1.886,1.618-2.699,2.316
				c-1.612,1.373-2.871,2.445-3.747,3.192c-0.418,0.348-0.744,0.621-0.984,0.821c-0.224,0.183-0.341,0.273-0.347,0.266
				c-0.006-0.007,0.1-0.11,0.311-0.306c0.231-0.209,0.546-0.494,0.949-0.859c0.863-0.765,2.101-1.863,3.686-3.268
				c0.805-0.709,1.697-1.494,2.673-2.353c0.998-0.835,2.13-1.685,3.32-2.63c2.409-1.852,5.062-4.086,8.254-6.203
				c1.571-1.094,3.217-2.239,4.931-3.432c1.722-1.183,3.61-2.266,5.512-3.467c0.957-0.592,1.931-1.193,2.921-1.804
				c0.497-0.302,0.988-0.623,1.501-0.915c0.518-0.283,1.041-0.569,1.567-0.856c2.105-1.149,4.271-2.332,6.492-3.545
				c9.015-4.601,19.238-9.071,30.337-12.751c11.129-3.573,22.018-5.993,32.011-7.596c2.509-0.331,4.955-0.654,7.333-0.967
				c0.594-0.078,1.184-0.156,1.77-0.233c0.587-0.067,1.173-0.097,1.752-0.147c1.159-0.09,2.3-0.179,3.422-0.266
				c2.245-0.152,4.408-0.391,6.496-0.452c2.088-0.048,4.092-0.093,6.006-0.137c3.826-0.173,7.286,0.066,10.325,0.14
				c1.519,0.06,2.934,0.079,4.233,0.165c1.294,0.118,2.479,0.226,3.547,0.323c2.109,0.2,3.757,0.356,4.905,0.465
				c0.541,0.057,0.963,0.101,1.274,0.134C282.176,50.371,282.322,50.392,282.322,50.401z"/>
		</g>
		<g>
			<path style="fill:#FFFFFF;" d="M295.493,90.243c0.006,0.007-0.084,0.094-0.266,0.258c-0.203,0.179-0.473,0.417-0.815,0.719
				c-0.722,0.625-1.8,1.533-3.212,2.673c-2.83,2.271-7.005,5.471-12.451,9.011c-1.359,0.887-2.799,1.793-4.316,2.71
				c-1.524,0.904-3.08,1.889-4.822,2.723c-1.719,0.804-3.78,1.456-5.862,0.948c-1.025-0.231-2.015-0.732-2.812-1.464
				c-0.803-0.727-1.436-1.636-1.912-2.623c-0.952-1.98-1.316-4.266-1.106-6.542c0.229-2.292,1.052-4.48,1.946-6.638
				c0.904-2.158,1.93-4.299,2.659-6.573c0.182-0.568,0.345-1.143,0.478-1.726c0.145-0.581,0.251-1.166,0.218-1.729
				c-0.023-0.562-0.262-1.082-0.676-1.426c-0.414-0.342-0.987-0.473-1.568-0.467c-1.18,0.015-2.328,0.437-3.431,0.938
				c-1.121,0.486-2.235,0.969-3.34,1.448c-2.211,0.958-4.39,1.902-6.531,2.829c-4.283,1.852-8.416,3.638-12.353,5.34
				c-1.971,0.837-3.995,1.587-6.084,1.69c-2.08,0.131-4.163-0.575-5.593-1.948c-0.706-0.691-1.235-1.564-1.431-2.513
				c-0.211-0.944-0.101-1.91,0.167-2.774c0.549-1.744,1.574-3.154,2.471-4.494c3.655-5.373,7.05-9.402,9.471-12.103
				c1.214-1.35,2.191-2.365,2.857-3.049c0.324-0.322,0.579-0.575,0.771-0.766c0.176-0.17,0.269-0.255,0.275-0.248
				c0.007,0.006-0.074,0.103-0.237,0.285c-0.183,0.2-0.425,0.465-0.733,0.801c-0.642,0.707-1.593,1.743-2.782,3.111
				c-2.371,2.737-5.714,6.792-9.318,12.175c-0.89,1.346-1.883,2.747-2.391,4.404c-0.249,0.822-0.341,1.712-0.144,2.57
				c0.182,0.86,0.666,1.653,1.324,2.291c1.336,1.27,3.3,1.936,5.27,1.802c1.992-0.104,3.963-0.835,5.919-1.674
				c3.932-1.711,8.059-3.506,12.338-5.366c2.14-0.93,4.318-1.876,6.528-2.837c1.105-0.48,2.219-0.963,3.34-1.45
				c1.11-0.502,2.327-0.965,3.637-0.981c0.648-0.006,1.352,0.136,1.899,0.586c0.542,0.441,0.84,1.135,0.864,1.794
				c0.037,0.659-0.085,1.288-0.231,1.881c-0.137,0.599-0.305,1.188-0.491,1.767c-0.746,2.319-1.782,4.471-2.682,6.612
				c-0.891,2.135-1.701,4.3-1.922,6.487c-0.208,2.187,0.141,4.399,1.043,6.288c0.872,1.886,2.456,3.443,4.397,3.849
				c1.923,0.483,3.887-0.113,5.575-0.893c1.704-0.805,3.273-1.784,4.797-2.676c1.518-0.905,2.96-1.8,4.323-2.675
				c5.458-3.492,9.66-6.641,12.525-8.86c1.402-1.112,2.499-1.982,3.271-2.594c0.356-0.285,0.637-0.509,0.848-0.679
				C295.386,90.31,295.488,90.237,295.493,90.243z"/>
		</g>
		<g>
			<path style="fill:#FFFFFF;" d="M243.216,124.434c0.004,0.008-0.079,0.057-0.245,0.146c-0.193,0.1-0.437,0.226-0.743,0.383
				c-0.656,0.329-1.64,0.791-2.944,1.294c-2.595,1.02-6.518,2.219-11.531,2.653c-2.503,0.21-5.269,0.198-8.213-0.127
				c-1.467-0.188-2.99-0.4-4.52-0.836c-1.524-0.429-3.077-1.051-4.447-2.066c-1.373-1.001-2.485-2.458-3.086-4.138
				c-0.611-1.678-0.788-3.524-0.619-5.355c0.352-3.705,2.144-7.152,3.95-10.521l0.292,0.375c-0.522,0.13-1.086,0.271-1.651,0.412
				c-7.652,1.902-14.941,3.713-21.576,5.361c-1.664,0.403-3.318,0.745-4.963,0.816c-1.637,0.07-3.288-0.178-4.68-0.912
				c-1.401-0.718-2.448-1.92-3.077-3.214c-0.633-1.303-0.911-2.685-0.941-3.996c-0.106-2.649,0.835-4.952,1.913-6.696
				c1.085-1.767,2.295-3.086,3.302-4.122c1.017-1.032,1.852-1.783,2.419-2.291c0.268-0.234,0.483-0.422,0.652-0.569
				c0.149-0.126,0.229-0.187,0.235-0.18s-0.061,0.081-0.199,0.219c-0.16,0.157-0.363,0.357-0.617,0.607
				c-0.543,0.532-1.355,1.307-2.344,2.355c-0.98,1.052-2.157,2.38-3.199,4.131c-1.038,1.734-1.92,3.971-1.794,6.534
				c0.04,1.268,0.322,2.595,0.933,3.83c0.61,1.227,1.598,2.343,2.916,3.009c1.311,0.681,2.875,0.913,4.461,0.838
				c1.593-0.076,3.217-0.417,4.869-0.824c6.631-1.661,13.916-3.485,21.564-5.4c0.566-0.141,1.129-0.282,1.651-0.412l0.571-0.142
				l-0.278,0.518c-1.808,3.366-3.56,6.754-3.904,10.323c-0.167,1.766,0.001,3.541,0.578,5.137c0.57,1.6,1.604,2.966,2.907,3.927
				c1.299,0.972,2.797,1.585,4.285,2.011c1.492,0.435,2.996,0.653,4.448,0.849c2.911,0.34,5.651,0.373,8.134,0.188
				c4.974-0.384,8.885-1.52,11.49-2.478c1.309-0.472,2.302-0.903,2.971-1.201c0.314-0.138,0.565-0.249,0.763-0.337
				C243.121,124.46,243.212,124.426,243.216,124.434z"/>
		</g>
	</g>
	<g>
		<path style="fill:#FFFFFF;" d="M378.719,333.582c0,0-0.168,0.094-0.507,0.257c-0.354,0.167-0.856,0.405-1.511,0.714
			c-1.326,0.639-3.314,1.52-5.895,2.644c-5.173,2.213-12.802,5.222-22.573,8.266c-9.765,3.052-21.691,6.081-35.297,8.448
			c-3.395,0.592-6.909,1.233-10.574,1.288c-3.631,0.058-7.529-0.584-10.783-2.728c-1.622-1.043-3.065-2.429-4.114-4.116
			c-1-1.691-1.66-3.714-1.4-5.756c0.208-2.027,1.15-3.961,2.57-5.459c1.423-1.486,3.519-2.464,5.668-2.243l1.541,0.159l-1.511,0.344
			c-9.255,2.104-18.926,4.004-28.892,5.604c-5.858,0.94-11.651,1.755-17.348,2.444c-2.848,0.32-5.665,0.747-8.503,0.8
			c-2.813,0.042-5.71-0.226-8.238-1.514c-1.253-0.639-2.364-1.568-3.176-2.706c-0.812-1.143-1.307-2.479-1.503-3.836
			c-0.354-2.732,0.362-5.47,1.682-7.749c1.35-2.289,3.28-4.095,5.323-5.582c2.051-1.492,4.225-2.697,6.345-3.87l0.15,0.431
			c-11.527,1.922-22.174,3.408-31.652,4.558c-2.372,0.278-4.66,0.573-6.892,0.783c-2.227,0.194-4.42,0.236-6.48-0.177
			c-2.053-0.397-3.951-1.339-5.277-2.761c-1.318-1.43-2.041-3.209-2.31-4.924c-0.548-3.468,0.428-6.622,1.78-8.926
			c1.348-2.343,2.945-4.023,4.255-5.327c2.675-2.571,4.257-3.775,4.257-3.775s-0.085,0.091-0.266,0.255
			c-0.192,0.173-0.459,0.414-0.807,0.727c-0.708,0.645-1.78,1.581-3.081,2.895c-1.289,1.315-2.86,3.003-4.172,5.329
			c-1.317,2.286-2.249,5.39-1.694,8.776c0.272,1.673,0.985,3.39,2.26,4.761c1.285,1.363,3.114,2.265,5.12,2.644
			c4.058,0.774,8.538-0.155,13.26-0.66c9.469-1.181,20.106-2.693,31.622-4.635l1.331-0.225l-1.181,0.656
			c-2.117,1.175-4.272,2.377-6.288,3.849c-2.006,1.463-3.889,3.239-5.182,5.441c-1.272,2.198-1.952,4.844-1.611,7.435
			c0.188,1.287,0.656,2.541,1.417,3.612c0.767,1.071,1.809,1.943,3.001,2.55c2.402,1.224,5.226,1.497,7.995,1.451
			c2.787-0.053,5.603-0.48,8.451-0.801c5.691-0.69,11.477-1.507,17.328-2.445c9.955-1.598,19.615-3.492,28.861-5.587l0.029,0.502
			c-1.966-0.202-3.904,0.687-5.252,2.088c-1.341,1.411-2.241,3.252-2.436,5.161c-0.249,1.911,0.371,3.824,1.324,5.446
			c1,1.612,2.388,2.954,3.958,3.965c3.147,2.081,6.93,2.717,10.514,2.668c3.61-0.047,7.109-0.675,10.504-1.26
			c13.592-2.334,25.51-5.321,35.276-8.326c9.772-2.997,17.41-5.954,22.602-8.114c2.589-1.098,4.588-1.952,5.926-2.563
			c0.663-0.292,1.171-0.515,1.529-0.673C378.537,333.647,378.719,333.582,378.719,333.582z"/>
	</g>
	<path style="fill:#F5F5F5;" d="M184.887,187.31c-2.307-4.42-8.183-6.451-12.807-4.71l0.026-0.012
		c-5.261,1.196-6.974,7.822-5.149,12.899c1.825,5.077,8.391,7.784,13.292,5.53C185.152,198.764,187.384,192.093,184.887,187.31z"/>
	<g>
		<path style="fill:#263238;" d="M184.887,187.31c0,0,0.53,0.731,0.908,2.29c0.366,1.534,0.468,3.987-0.706,6.639
			c-0.586,1.309-1.499,2.646-2.805,3.742c-1.288,1.116-3.054,1.849-4.959,2.039c-0.956,0.07-1.943,0.022-2.928-0.167
			c-0.978-0.214-1.957-0.533-2.884-1.01c-0.92-0.487-1.796-1.099-2.577-1.845c-0.761-0.765-1.417-1.661-1.899-2.663
			c-1.26-2.843-1.323-6.005-0.445-8.682c0.446-1.337,1.162-2.56,2.128-3.481c0.958-0.93,2.147-1.529,3.336-1.798l0.139,0.418
			l-0.026,0.011l-0.168-0.409c2.159-0.77,4.329-0.738,6.103-0.294c1.796,0.412,3.212,1.238,4.24,2.041
			c1.029,0.818,1.665,1.643,2.045,2.226c0.192,0.291,0.302,0.538,0.388,0.695C184.861,187.22,184.898,187.305,184.887,187.31
			c-0.081,0.068-0.643-1.402-2.698-2.967c-1.025-0.753-2.418-1.525-4.165-1.893c-1.725-0.402-3.816-0.397-5.865,0.357l-0.168-0.409
			l0.026-0.012l0.139,0.418c-1.115,0.266-2.213,0.832-3.102,1.707c-0.897,0.867-1.567,2.024-1.986,3.299
			c-0.828,2.548-0.753,5.614,0.441,8.301c0.454,0.942,1.071,1.788,1.791,2.516c0.74,0.709,1.572,1.294,2.448,1.762
			c0.883,0.459,1.817,0.766,2.749,0.976c0.939,0.185,1.878,0.236,2.788,0.177c1.812-0.171,3.485-0.844,4.727-1.895
			c1.258-1.031,2.156-2.304,2.744-3.561c1.178-2.545,1.141-4.93,0.842-6.444C185.289,188.104,184.823,187.337,184.887,187.31z"/>
	</g>
	<g>
		<g>
			<path style="fill:#263238;" d="M419.202,96.333c0,0-0.184-0.262-0.521-0.786c-0.341-0.537-0.835-1.316-1.482-2.333
				c-0.619-1.047-1.5-2.265-2.543-3.701c-0.528-0.713-1.053-1.514-1.694-2.311c-0.645-0.794-1.331-1.639-2.058-2.533
				c-2.968-3.521-6.789-7.704-11.801-11.93c-4.978-4.254-11.04-8.645-18.157-12.81c-7.127-4.145-15.305-8.04-24.357-11.513
				c-4.539-1.701-9.275-3.358-14.233-4.806c-4.944-1.493-10.094-2.829-15.415-4.012c-5.316-1.207-10.812-2.236-16.454-3.094
				c-5.641-0.861-11.429-1.569-17.342-2.048c-5.913-0.475-11.948-0.751-18.073-0.749c-1.531-0.01-3.068,0.041-4.609,0.058
				c-1.541,0.045-3.087,0.135-4.639,0.201c-1.551,0.08-3.109,0.124-4.668,0.235c-1.558,0.127-3.121,0.255-4.688,0.383
				c-25.108,2.119-48.534,8.16-69.039,15.534c-10.265,3.69-19.835,7.703-28.615,11.829c-8.788,4.11-16.781,8.336-24.075,12.201
				c-3.647,1.93-7.075,3.848-10.268,5.746c-3.186,1.91-6.104,3.849-8.741,5.788c-5.272,3.888-9.253,7.949-12.079,11.58
				c-1.452,1.793-2.518,3.543-3.491,5.027c-0.861,1.549-1.605,2.857-2.142,3.944c-0.499,1.097-0.881,1.936-1.144,2.515
				c-0.26,0.566-0.407,0.851-0.407,0.851s0.113-0.298,0.357-0.871c0.253-0.584,0.619-1.432,1.098-2.54
				c0.523-1.097,1.254-2.416,2.104-3.978c0.962-1.497,2.019-3.262,3.464-5.072c2.812-3.664,6.792-7.766,12.066-11.689
				c2.638-1.957,5.558-3.913,8.744-5.838c3.193-1.912,6.621-3.845,10.265-5.787c7.283-3.885,15.273-8.134,24.066-12.267
				c8.783-4.147,18.36-8.181,28.636-11.889c20.527-7.41,43.994-13.478,69.157-15.601c1.571-0.128,3.137-0.256,4.698-0.383
				c1.562-0.111,3.124-0.155,4.678-0.235c1.555-0.066,3.104-0.156,4.65-0.201c1.546-0.017,3.087-0.068,4.622-0.057
				c6.141-0.001,12.19,0.278,18.115,0.758c5.925,0.484,11.724,1.197,17.376,2.065c5.653,0.864,11.158,1.901,16.483,3.117
				c5.331,1.192,10.489,2.537,15.441,4.042c4.967,1.459,9.711,3.128,14.256,4.842c9.066,3.498,17.255,7.423,24.389,11.598
				c7.123,4.196,13.187,8.621,18.161,12.907c5.007,4.258,8.817,8.473,11.767,12.021c0.722,0.902,1.403,1.753,2.044,2.553
				c0.636,0.803,1.156,1.61,1.678,2.329c1.032,1.449,1.901,2.678,2.506,3.735c0.628,1.031,1.108,1.819,1.439,2.363
				C419.049,96.053,419.202,96.333,419.202,96.333z"/>
		</g>
		<g>
			<path style="fill:#263238;" d="M122.411,126.246c0.014,0.011-0.076,0.142-0.263,0.382c-0.198,0.229-0.443,0.615-0.865,1.011
				c-0.786,0.848-2.105,1.929-3.96,2.871c-1.848,0.947-4.281,1.664-7.043,1.732c-2.747,0.078-5.839-0.588-8.557-2.296
				c-2.686-1.76-4.58-4.294-5.654-6.824c-1.088-2.539-1.45-5.05-1.359-7.125c0.083-2.079,0.517-3.728,0.96-4.796
				c0.184-0.549,0.433-0.932,0.558-1.208c0.14-0.27,0.221-0.406,0.237-0.398c0.047,0.023-0.233,0.597-0.605,1.674
				c-0.379,1.074-0.748,2.703-0.783,4.735c-0.043,2.028,0.35,4.468,1.43,6.924c1.067,2.449,2.912,4.884,5.495,6.578
				c2.615,1.642,5.597,2.305,8.267,2.255c2.683-0.041,5.065-0.7,6.89-1.584c1.833-0.878,3.16-1.892,3.979-2.684
				C121.965,126.707,122.371,126.213,122.411,126.246z"/>
		</g>
		<g>
			<path style="fill:#263238;" d="M162.992,128.135c-0.003-0.008,0.098-0.049,0.299-0.12c0.199-0.083,0.506-0.162,0.918-0.238
				c0.817-0.142,2.106-0.141,3.595,0.451c1.467,0.581,3.168,1.785,4.238,3.82c1.055,2.021,1.351,4.762,0.616,7.525
				c-0.7,2.783-2.481,5.493-4.878,7.802c-2.406,2.32-5.312,4.385-8.47,6.375c-3.172,1.972-6.671,3.778-10.444,5.295
				c-3.772,1.495-7.805,2.829-12.102,3.409c-4.271,0.579-8.633,0.438-12.503-0.996c-3.872-1.396-7.02-4.29-8.6-7.733
				c-1.626-3.432-1.94-7.133-1.608-10.439c0.169-1.662,0.505-3.247,0.958-4.728c0.465-1.48,1.051-2.847,1.671-4.119
				c2.549-5.075,5.606-8.545,7.627-10.944c1.03-1.193,1.853-2.097,2.412-2.71c0.267-0.286,0.479-0.514,0.643-0.69
				c0.147-0.154,0.226-0.229,0.233-0.223c0.007,0.006-0.059,0.093-0.193,0.259c-0.154,0.185-0.354,0.424-0.604,0.724
				c-0.556,0.66-1.339,1.589-2.336,2.772c-1.97,2.434-4.973,5.933-7.451,10.974c-0.602,1.262-1.171,2.619-1.618,4.076
				c-0.436,1.46-0.756,3.02-0.913,4.653c-0.309,3.248,0.021,6.867,1.611,10.19c1.546,3.331,4.582,6.109,8.344,7.462
				c3.761,1.388,8.042,1.53,12.255,0.958c4.233-0.57,8.233-1.887,11.983-3.366c3.747-1.499,7.224-3.282,10.381-5.229
				c3.141-1.964,6.045-4.009,8.422-6.277c2.373-2.261,4.119-4.887,4.823-7.586c0.737-2.682,0.474-5.335-0.52-7.299
				c-1.003-1.969-2.637-3.171-4.055-3.764c-1.439-0.605-2.695-0.641-3.503-0.534C163.407,127.986,163.004,128.175,162.992,128.135z"
				/>
		</g>
		<g>
			<path style="fill:#263238;" d="M201.483,149.992c0.017,0.007-0.042,0.193-0.169,0.543c-0.119,0.353-0.334,0.859-0.622,1.506
				c-0.593,1.283-1.575,3.105-3.172,5.087c-1.589,1.968-3.854,4.106-6.911,5.579c-1.52,0.737-3.237,1.277-5.061,1.532
				c-1.826,0.241-3.757,0.193-5.675-0.193c-1.91-0.419-3.711-1.161-5.236-2.212c-0.745-0.55-1.472-1.094-2.049-1.796
				c-0.317-0.326-0.564-0.695-0.794-1.069c-0.259-0.358-0.425-0.758-0.615-1.139c-0.71-1.551-1.048-3.139-1.239-4.622
				c-0.197-1.487-0.189-2.886-0.124-4.153c0.153-2.538,0.635-4.556,1.127-5.887c0.264-0.66,0.473-1.17,0.673-1.489
				c0.183-0.326,0.285-0.492,0.301-0.483c0.05,0.027-0.347,0.703-0.782,2.037c-0.427,1.333-0.847,3.336-0.951,5.84
				c-0.041,1.249-0.027,2.626,0.184,4.08c0.204,1.449,0.553,2.994,1.245,4.474c0.667,1.499,1.83,2.782,3.313,3.787
				c1.47,1.005,3.207,1.717,5.054,2.123c1.856,0.373,3.728,0.423,5.501,0.197c1.772-0.241,3.436-0.753,4.921-1.459
				c2.987-1.409,5.234-3.472,6.834-5.381c1.608-1.921,2.629-3.695,3.273-4.941C201.148,150.699,201.439,149.974,201.483,149.992z"/>
		</g>
		<g>
			<path style="fill:#263238;" d="M231.859,138.265c0.018,0.001,0.018,0.197,0.001,0.569c-0.017,0.372-0.052,0.919-0.116,1.623
				c-0.13,1.406-0.349,3.447-0.898,5.924c-0.561,2.463-1.455,5.407-3.236,8.286c-1.758,2.844-4.436,5.704-8.107,7.183
				c-3.66,1.457-7.734,1.169-10.721-0.494c-1.501-0.821-2.686-2.002-3.543-3.233c-0.869-1.232-1.492-2.495-1.949-3.683
				c-0.914-2.384-1.153-4.474-1.087-5.895c0.038-0.712,0.137-1.26,0.237-1.62c0.109-0.359,0.174-0.543,0.191-0.538
				c0.056,0.014-0.216,0.761-0.225,2.163c-0.003,1.393,0.287,3.435,1.227,5.755c0.469,1.156,1.099,2.381,1.956,3.566
				c0.85,1.187,1.985,2.291,3.424,3.065c2.861,1.566,6.785,1.831,10.296,0.431c3.534-1.421,6.152-4.183,7.895-6.954
				c1.764-2.8,2.684-5.687,3.285-8.116c0.589-2.443,0.864-4.467,1.055-5.863c0.086-0.652,0.157-1.185,0.213-1.611
				C231.806,138.456,231.841,138.264,231.859,138.265z"/>
		</g>
		<g>
			<path style="fill:#263238;" d="M429.483,110.211c0,0-0.149-0.2-0.416-0.604c-0.274-0.419-0.665-1.017-1.175-1.798
				c-0.523-0.785-1.127-1.786-1.915-2.917c-0.834-1.102-1.794-2.371-2.874-3.797c-0.516-0.734-1.166-1.424-1.818-2.174
				c-0.656-0.747-1.344-1.531-2.063-2.35c-0.691-0.845-1.543-1.603-2.374-2.443c-0.842-0.829-1.717-1.691-2.623-2.583
				c-3.822-3.35-8.316-7.039-13.811-10.339c-5.487-3.287-11.837-6.354-19-8.662c-7.153-2.307-15.122-3.853-23.577-4.076
				c-8.447-0.239-17.359,0.925-26.136,3.686c-0.55,0.168-1.107,0.318-1.654,0.502l-1.625,0.613c-1.085,0.409-2.175,0.82-3.27,1.233
				c-1.098,0.405-2.139,0.957-3.218,1.431c-1.065,0.504-2.159,0.962-3.212,1.509c-4.188,2.235-8.376,4.656-12.263,7.61
				c-7.846,5.793-14.643,12.656-19.876,20.23c-0.641,0.955-1.279,1.907-1.913,2.853c-0.31,0.478-0.651,0.935-0.933,1.427
				l-0.841,1.475c-0.56,0.981-1.117,1.957-1.671,2.928c-0.569,0.964-0.983,2.001-1.479,2.99c-0.476,0.999-0.95,1.993-1.421,2.981
				c-0.396,1.021-0.789,2.036-1.18,3.045c-0.382,1.013-0.796,2.007-1.146,3.018c-0.341,1.014-0.667,2.028-0.971,3.041
				c-2.43,8.099-4.095,16.054-7.207,22.985c-3.031,6.899-7.479,12.832-13.122,16.092c-5.574,3.275-11.894,3.99-16.777,2.324
				c-2.464-0.762-4.48-2.202-5.998-3.778c-1.524-1.59-2.57-3.348-3.234-5.025c-1.333-3.387-1.124-6.334-0.65-8.147
				c0.275-0.908,0.524-1.587,0.769-2.009c0.218-0.433,0.341-0.648,0.341-0.648s-0.092,0.232-0.293,0.671
				c-0.228,0.427-0.459,1.109-0.715,2.012c-0.437,1.804-0.608,4.715,0.736,8.045c0.669,1.648,1.715,3.375,3.225,4.929
				c1.508,1.541,3.483,2.937,5.91,3.673c4.801,1.611,11.019,0.883,16.499-2.364c2.747-1.608,5.26-3.889,7.417-6.617
				c2.165-2.727,3.982-5.897,5.496-9.333c3.072-6.883,4.718-14.815,7.143-22.949c0.304-1.018,0.629-2.037,0.971-3.057
				c0.35-1.018,0.765-2.019,1.148-3.038c0.392-1.016,0.787-2.038,1.184-3.065c0.473-0.995,0.948-1.995,1.425-3.001
				c0.497-0.995,0.914-2.04,1.485-3.01c0.557-0.978,1.116-1.96,1.678-2.947l0.845-1.484c0.283-0.495,0.626-0.956,0.938-1.437
				c0.638-0.953,1.279-1.91,1.923-2.872c5.26-7.623,12.094-14.529,19.985-20.356c3.91-2.971,8.123-5.406,12.337-7.653
				c1.06-0.55,2.16-1.01,3.232-1.517c1.085-0.477,2.134-1.03,3.238-1.438c1.101-0.415,2.198-0.828,3.29-1.239l1.635-0.615
				c0.551-0.185,1.111-0.335,1.665-0.504c8.833-2.772,17.806-3.934,26.303-3.679c8.505,0.238,16.514,1.808,23.696,4.145
				c7.193,2.337,13.562,5.437,19.059,8.758c5.506,3.334,10.001,7.058,13.817,10.44c0.904,0.9,1.777,1.77,2.617,2.607
				c0.828,0.848,1.678,1.614,2.366,2.466c0.715,0.826,1.399,1.617,2.052,2.371c0.648,0.757,1.293,1.454,1.805,2.194
				c1.068,1.441,2.017,2.722,2.842,3.835c0.776,1.142,1.368,2.154,1.877,2.949c0.491,0.793,0.868,1.401,1.132,1.827
				C429.366,109.993,429.483,110.211,429.483,110.211z"/>
		</g>
		<g>
			<path style="fill:#263238;" d="M373.039,365.676c0,0,0.22-0.18,0.665-0.509c0.459-0.335,1.12-0.819,1.983-1.45
				c1.737-1.283,4.349-3.107,7.632-5.564c6.571-4.9,16.055-12.069,26.914-21.919c5.356-4.999,11.049-10.673,16.599-17.262
				c5.563-6.576,10.918-14.089,15.963-22.358c2.548-4.119,4.989-8.445,7.446-12.883c1.24-2.213,2.432-4.483,3.669-6.757
				c1.217-2.284,2.348-4.635,3.544-6.982c4.566-9.496,8.182-19.847,10.868-30.688c1.7-6.586,2.814-13.207,3.751-19.715
				c0.388-3.267,0.827-6.497,1.045-9.717c0.12-1.608,0.301-3.204,0.369-4.798c0.077-1.593,0.153-3.178,0.229-4.754
				c0.534-12.612-0.184-24.659-1.451-35.819c-0.611-5.577-1.347-10.987-3.123-15.858c-0.89-2.426-2.046-4.699-3.517-6.678
				c-1.479-1.969-3.227-3.674-5.193-4.948c-1.953-1.283-4.128-2.135-6.32-2.413c-1.093-0.15-2.188-0.151-3.246,0.019
				c-1.062,0.14-2.084,0.439-3.042,0.837c-1.926,0.785-3.586,2.019-4.818,3.514c-1.235,1.494-1.959,3.294-2.138,5.073l-0.073,0.73
				l-0.221-0.697c-2.9-9.136-5.191-16.357-6.763-21.309c-0.772-2.463-1.367-4.358-1.773-5.654c-0.194-0.633-0.342-1.116-0.446-1.457
				c-0.098-0.328-0.138-0.498-0.138-0.498s0.066,0.161,0.177,0.485c0.113,0.338,0.274,0.817,0.485,1.444
				c0.424,1.291,1.043,3.178,1.848,5.63c1.603,4.943,3.94,12.149,6.897,21.266l-0.294,0.033c0.175-1.842,0.919-3.709,2.185-5.253
				c1.263-1.546,2.963-2.818,4.937-3.632c0.982-0.412,2.031-0.724,3.124-0.871c1.087-0.178,2.223-0.181,3.347-0.03
				c2.253,0.278,4.486,1.147,6.486,2.453c2.013,1.296,3.799,3.029,5.309,5.03c1.504,2.013,2.684,4.322,3.59,6.776
				c1.81,4.931,2.556,10.372,3.178,15.953c1.289,11.179,2.023,23.25,1.498,35.892c-0.075,1.579-0.15,3.168-0.227,4.765
				c-0.068,1.598-0.247,3.198-0.367,4.81c-0.217,3.228-0.655,6.467-1.043,9.742c-0.937,6.527-2.053,13.166-3.758,19.772
				c-2.694,10.873-6.326,21.258-10.913,30.783c-1.2,2.353-2.339,4.715-3.56,7.001c-1.24,2.275-2.434,4.545-3.678,6.759
				c-2.465,4.44-4.913,8.769-7.473,12.893c-5.066,8.278-10.45,15.805-16.042,22.385c-5.579,6.594-11.3,12.266-16.681,17.255
				c-10.908,9.831-20.432,16.958-27.042,21.81c-3.303,2.433-5.935,4.23-7.692,5.486c-0.876,0.613-1.548,1.082-2.013,1.408
				C373.28,365.525,373.039,365.676,373.039,365.676z"/>
		</g>
		<g>
			<path style="fill:#263238;" d="M443.035,438.644c0.007,0.006-0.069,0.096-0.224,0.266c-0.157,0.167-0.383,0.426-0.704,0.741
				c-0.672,0.591-1.711,1.448-3.276,2.158c-1.556,0.715-3.613,1.259-6.039,1.431c-2.427,0.145-5.211-0.072-8.188-0.773
				c-2.977-0.708-6.111-1.867-9.498-2.99c-3.378-1.109-7.069-2.226-11.061-2.306c-0.497-0.026-0.997,0.003-1.499,0.038
				c-0.502,0.036-1.009,0.044-1.514,0.103c-1.006,0.164-2.033,0.272-3.042,0.55c-2.038,0.45-4.055,1.179-6.072,1.993
				c-4.037,1.639-8.039,3.783-12.357,5.532c-4.294,1.762-8.851,2.903-13.284,2.602c-4.424-0.268-8.52-1.606-12.257-3.076
				c-3.749-1.479-7.217-3.083-10.545-4.366c-1.66-0.658-3.293-1.179-4.887-1.609c-1.603-0.387-3.156-0.72-4.66-0.878
				c-6.02-0.802-11.003,0.491-13.856,2.284c-2.872,1.817-3.827,3.565-3.912,3.471c-0.007-0.005,0.061-0.101,0.201-0.283
				c0.159-0.202,0.368-0.467,0.633-0.802c0.578-0.685,1.542-1.616,2.972-2.559c2.86-1.873,7.915-3.242,14.006-2.477
				c1.523,0.149,3.094,0.474,4.717,0.855c1.612,0.423,3.275,0.945,4.943,1.596c3.352,1.272,6.83,2.863,10.565,4.322
				c3.724,1.451,7.776,2.758,12.112,3.013c4.34,0.287,8.797-0.828,13.061-2.576c4.283-1.734,8.287-3.875,12.36-5.522
				c2.035-0.818,4.077-1.552,6.152-2.005c1.025-0.279,2.074-0.388,3.1-0.551c0.516-0.059,1.035-0.066,1.547-0.101
				c0.513-0.034,1.023-0.061,1.531-0.034c4.079,0.096,7.805,1.247,11.187,2.376c3.39,1.144,6.508,2.319,9.447,3.042
				c2.939,0.716,5.688,0.956,8.085,0.84c2.396-0.143,4.428-0.649,5.974-1.325C441.858,440.227,442.97,438.547,443.035,438.644z"/>
		</g>
		<g>
			<path style="fill:#263238;" d="M198.86,456.739c0.006,0.006-0.076,0.09-0.242,0.249c-0.169,0.156-0.412,0.399-0.754,0.69
				c-0.711,0.543-1.808,1.324-3.419,1.924c-1.602,0.604-3.692,1.003-6.124,1.004c-2.431-0.025-5.193-0.437-8.114-1.344
				c-2.92-0.915-5.965-2.291-9.265-3.648c-3.292-1.342-6.896-2.716-10.872-3.075c-0.494-0.061-0.994-0.066-1.498-0.067
				c-0.503,0.001-1.009-0.027-1.518-0.003c-1.015,0.093-2.047,0.129-3.073,0.335c-2.065,0.306-4.127,0.892-6.197,1.563
				c-4.142,1.353-8.284,3.211-12.715,4.653c-4.407,1.457-9.033,2.276-13.434,1.665c-4.394-0.578-8.386-2.199-12.012-3.927
				c-3.637-1.737-6.984-3.581-10.214-5.094c-1.61-0.772-3.202-1.407-4.763-1.948c-1.572-0.498-3.098-0.939-4.587-1.203
				c-5.949-1.222-11.011-0.281-13.982,1.307c-2.993,1.612-4.067,3.289-4.146,3.189c-0.007-0.006,0.068-0.096,0.22-0.268
				c0.173-0.19,0.4-0.44,0.688-0.755c0.624-0.642,1.651-1.504,3.144-2.344c2.984-1.668,8.123-2.68,14.145-1.49
				c1.508,0.255,3.053,0.69,4.645,1.183c1.578,0.535,3.2,1.172,4.819,1.938c3.254,1.504,6.613,3.335,10.236,5.051
				c3.614,1.708,7.564,3.296,11.872,3.854c4.309,0.59,8.834-0.21,13.209-1.655c4.394-1.429,8.538-3.285,12.716-4.643
				c2.088-0.674,4.176-1.263,6.277-1.569c1.042-0.206,2.096-0.242,3.13-0.333c0.519-0.022,1.037,0.007,1.55,0.008
				c0.514,0.002,1.025,0.011,1.53,0.074c4.062,0.382,7.698,1.791,10.993,3.153c3.302,1.379,6.33,2.77,9.211,3.696
				c2.881,0.919,5.607,1.352,8.006,1.404c2.4,0.025,4.462-0.337,6.052-0.904C197.575,458.236,198.802,456.638,198.86,456.739z"/>
		</g>
		<g>
			<path style="fill:#263238;" d="M437.424,334.518c0.007,0.005-0.044,0.09-0.151,0.249c-0.126,0.182-0.285,0.413-0.485,0.702
				c-0.458,0.641-1.095,1.534-1.906,2.669c-0.824,1.162-1.852,2.569-3.103,4.16c-1.244,1.596-2.619,3.446-4.261,5.394
				c-0.81,0.984-1.658,2.014-2.542,3.087c-0.887,1.07-1.859,2.142-2.839,3.275c-1.944,2.281-4.144,4.606-6.435,7.075
				c-4.659,4.866-9.959,10.047-15.791,15.191c-5.861,5.115-11.688,9.698-17.119,13.685c-2.747,1.951-5.339,3.831-7.853,5.462
				c-1.25,0.825-2.44,1.649-3.616,2.389c-1.178,0.736-2.31,1.443-3.391,2.119c-2.145,1.375-4.158,2.498-5.902,3.524
				c-1.739,1.034-3.268,1.869-4.527,2.536c-1.231,0.656-2.199,1.172-2.894,1.542c-0.312,0.16-0.561,0.288-0.758,0.389
				c-0.172,0.085-0.263,0.125-0.267,0.117c-0.004-0.008,0.078-0.063,0.242-0.164c0.191-0.113,0.432-0.256,0.734-0.435
				c0.683-0.391,1.635-0.935,2.845-1.627c1.243-0.693,2.756-1.553,4.479-2.61c1.728-1.048,3.725-2.192,5.854-3.585
				c1.073-0.683,2.197-1.399,3.368-2.144c1.169-0.748,2.351-1.579,3.594-2.41c2.499-1.643,5.077-3.533,7.811-5.491
				c5.405-4,11.211-8.585,17.059-13.689c5.819-5.133,11.118-10.293,15.787-15.131c2.296-2.456,4.504-4.766,6.459-7.03
				c0.985-1.124,1.963-2.188,2.857-3.25c0.891-1.063,1.746-2.085,2.563-3.06c1.658-1.93,3.052-3.762,4.316-5.338
				c1.272-1.571,2.322-2.96,3.17-4.102c0.844-1.11,1.507-1.983,1.983-2.61c0.216-0.276,0.39-0.497,0.527-0.671
				C437.352,334.587,437.417,334.513,437.424,334.518z"/>
		</g>
		<g>
			<path style="fill:#263238;" d="M205.85,274.203c0,0-0.073,0.144-0.238,0.413c-0.18,0.286-0.427,0.68-0.745,1.186
				c-0.326,0.523-0.73,1.17-1.296,1.872c-0.556,0.708-1.143,1.571-1.952,2.42c-0.391,0.437-0.803,0.897-1.237,1.381
				c-0.454,0.465-0.954,0.929-1.464,1.426c-0.257,0.247-0.519,0.5-0.786,0.758c-0.283,0.24-0.572,0.485-0.867,0.735
				c-0.598,0.489-1.191,1.035-1.859,1.53c-2.618,2.056-5.846,4.075-9.578,5.969c-3.737,1.889-7.993,3.63-12.669,5.157
				c-2.343,0.748-4.778,1.488-7.313,2.149c-2.528,0.691-5.165,1.247-7.85,1.902c-10.779,2.45-22.799,4.395-35.494,5.621
				c-12.702,1.216-24.855,1.685-35.902,1.822c-11.049,0.128-20.999-0.042-29.349-0.282c-8.351-0.234-15.105-0.502-19.772-0.697
				c-2.314-0.105-4.12-0.187-5.373-0.244c-0.596-0.033-1.06-0.058-1.397-0.077c-0.315-0.02-0.475-0.044-0.475-0.044
				s0.162-0.012,0.477-0.009c0.337,0.006,0.802,0.014,1.399,0.025c1.254,0.034,3.061,0.083,5.377,0.146
				c4.693,0.126,11.443,0.307,19.774,0.531c8.349,0.193,18.294,0.324,29.334,0.171c11.038-0.164,23.176-0.647,35.858-1.861
				c12.676-1.224,24.675-3.151,35.438-5.571c2.681-0.647,5.317-1.196,7.839-1.877c2.53-0.652,4.959-1.381,7.296-2.117
				c4.665-1.504,8.91-3.217,12.638-5.075c3.724-1.864,6.946-3.849,9.566-5.871c0.669-0.487,1.261-1.024,1.861-1.505
				c0.296-0.246,0.585-0.487,0.87-0.723c0.268-0.254,0.531-0.502,0.789-0.746c0.512-0.49,1.015-0.945,1.472-1.402
				c0.437-0.476,0.853-0.929,1.247-1.358c0.817-0.834,1.413-1.684,1.98-2.379c0.577-0.69,0.993-1.325,1.333-1.837
				c0.336-0.493,0.597-0.877,0.787-1.155C205.746,274.329,205.85,274.203,205.85,274.203z"/>
		</g>
	</g>
</g>
<g id="Character">
	<g>
		<g>
			<g>
				<path style="fill:#E8505B;" d="M208.076,418.216c-30.801,12.845-56.401,15.2-84.896,10.939
					c-4.126-0.617-8.371-1.451-11.791-3.841c-3.42-2.39-5.805-6.736-4.696-10.758c0.904-3.278,3.797-5.562,6.578-7.517
					c30.64-21.543,67.55-31.925,103.81-41.315c32.581-8.437,65.735-16.427,99.386-15.861c3.068,0.052,6.594,0.411,8.348,2.928
					c1.645,2.36,0.915,5.759-0.911,7.982c-1.826,2.223-4.5,3.542-7.089,4.795C280.569,383.117,244.322,400.667,208.076,418.216"/>
			</g>
			<g style="opacity:0.3;">
				<path style="fill:#FFFFFF;" d="M178.146,378.376c0.007,0.016-0.236,0.142-0.706,0.366c-0.516,0.239-1.204,0.558-2.066,0.957
					c-1.801,0.816-4.422,1.962-7.675,3.342c-6.503,2.77-15.573,6.388-25.475,10.64c-9.891,4.267-18.722,8.485-24.732,12.155
					c-2.984,1.87-5.004,3.943-6.045,5.604c-1.043,1.667-1.272,2.764-1.339,2.738c0,0,0.16-1.115,1.167-2.844
					c1.004-1.723,3.028-3.878,6.016-5.806c6.009-3.779,14.819-8.049,24.727-12.324c9.913-4.257,19.003-7.82,25.54-10.502
					c3.229-1.331,5.859-2.415,7.736-3.188c0.878-0.362,1.578-0.65,2.104-0.867C177.881,378.453,178.138,378.36,178.146,378.376z"/>
			</g>
			<g>
				<path style="fill:#FFFFFF;" d="M149.317,431.367c-0.027,0.024-0.419-0.373-1.104-1.112c-0.686-0.737-1.662-1.82-2.858-3.166
					c-2.391-2.693-5.642-6.458-9.193-10.649c-3.515-4.163-6.695-7.927-9.076-10.747c-1.108-1.327-2.027-2.429-2.732-3.273
					c-0.638-0.779-0.978-1.221-0.951-1.245c0.027-0.024,0.419,0.373,1.104,1.111c0.686,0.737,1.662,1.82,2.857,3.166
					c2.391,2.693,5.642,6.458,9.194,10.65c3.514,4.161,6.693,7.926,9.074,10.745c1.108,1.327,2.027,2.429,2.732,3.273
					C149.004,430.901,149.344,431.343,149.317,431.367z"/>
			</g>
			<g>
				<path style="fill:#FFFFFF;" d="M178.933,427.37c-0.108,0.095-7.727-8.408-17.016-18.99
					c-9.292-10.585-16.735-19.24-16.627-19.335c0.108-0.095,7.726,8.406,17.018,18.991
					C171.597,418.618,179.041,427.275,178.933,427.37z"/>
			</g>
			<g>
				<path style="fill:#FFFFFF;" d="M204.144,419.833c-0.109,0.094-7.944-8.855-17.497-19.986
					c-9.557-11.134-17.213-20.233-17.104-20.327c0.109-0.094,7.942,8.853,17.499,19.988
					C196.595,410.639,204.253,419.74,204.144,419.833z"/>
			</g>
			<g>
				<path style="fill:#FFFFFF;" d="M227.179,408.965c-0.109,0.094-6.78-7.499-14.897-16.956
					c-8.12-9.461-14.613-17.203-14.503-17.297c0.109-0.094,6.778,7.497,14.899,16.958
					C220.794,401.126,227.288,408.871,227.179,408.965z"/>
			</g>
			<g>
				<path style="fill:#FFFFFF;" d="M250.041,397.896c-0.109,0.094-6.597-7.286-14.489-16.481
					c-7.895-9.198-14.205-16.728-14.095-16.822c0.109-0.094,6.596,7.284,14.49,16.483
					C243.839,390.27,250.15,397.802,250.041,397.896z"/>
			</g>
			<g>
				<path style="fill:#FFFFFF;" d="M272.564,386.993c-0.027,0.024-0.395-0.347-1.037-1.038c-0.644-0.689-1.555-1.705-2.671-2.97
					c-2.228-2.531-5.231-6.095-8.484-10.078c-3.236-3.935-6.162-7.494-8.363-10.171c-1.026-1.241-1.881-2.275-2.543-3.076
					c-0.595-0.732-0.911-1.147-0.884-1.171c0.027-0.024,0.395,0.347,1.037,1.038c0.644,0.689,1.555,1.705,2.67,2.97
					c2.228,2.531,5.231,6.095,8.486,10.08c3.234,3.934,6.16,7.492,8.362,10.169c1.026,1.241,1.881,2.275,2.543,3.076
					C272.275,386.554,272.591,386.969,272.564,386.993z"/>
			</g>
			<g>
				<path style="fill:#FFFFFF;" d="M295.767,375.759c-0.027,0.024-0.337-0.279-0.874-0.848c-0.538-0.568-1.302-1.402-2.235-2.442
					c-1.868-2.079-4.403-4.993-7.145-8.257c-2.707-3.218-5.155-6.128-7.026-8.353c-0.836-1.011-1.542-1.864-2.109-2.55
					c-0.49-0.609-0.749-0.957-0.721-0.981c0.027-0.024,0.337,0.279,0.874,0.847c0.538,0.568,1.302,1.402,2.235,2.442
					c1.867,2.079,4.403,4.994,7.146,8.259c2.706,3.217,5.153,6.126,7.025,8.352c0.837,1.011,1.542,1.865,2.109,2.55
					C295.536,375.387,295.794,375.735,295.767,375.759z"/>
			</g>
			<g>
				<path style="fill:#FFFFFF;" d="M318.617,364.675c-0.054,0.047-0.824-0.734-2.023-2.037c-1.192-1.31-2.841-3.113-4.549-5.22
					c-1.693-2.089-3.302-3.935-4.421-5.305c-1.128-1.364-1.799-2.231-1.745-2.279c0.054-0.047,0.824,0.734,2.023,2.037
					c1.192,1.31,2.841,3.113,4.55,5.221c1.693,2.088,3.302,3.934,4.421,5.304C318,363.761,318.672,364.627,318.617,364.675z"/>
			</g>
			<g style="opacity:0.3;">
				<path d="M264.186,359.326c-1.848,2.833-0.169,6.812,2.516,8.869c2.685,2.057,6.103,2.831,9.226,4.13
					c3.02,1.256,5.818,3.032,8.918,4.073c3.1,1.041,6.724,1.248,9.461-0.541c1.757-1.148,3.024-3.351,2.387-5.351
					c-0.58-1.82-2.449-2.856-4.178-3.668c-8.027-3.769-16.505-6.577-25.194-8.347"/>
			</g>
			<g style="opacity:0.3;">
				<path d="M182.533,382.463c-0.15,12.695,1.214,23.083,4.363,35.382c0.314,1.225,0.665,2.489,1.478,3.458
					c2.195,2.615,6.333,1.835,9.594,0.823c2.652-0.822,5.338-1.66,7.696-3.127s4.39-3.66,5.068-6.353
					c0.992-3.946-1.038-7.958-3.043-11.498c-4.073-7.192-8.426-14.421-14.68-19.824c-1.793-1.549-3.919-2.997-6.288-2.946
					c-2.369,0.051-4.763,2.314-4.092,4.586"/>
			</g>
			<g>
				<path style="fill:#263238;" d="M324.629,351.996c0,0-0.07,0.197-0.231,0.574c-0.159,0.378-0.393,0.941-0.788,1.638
					c-0.758,1.4-2.063,3.409-4.262,5.519c-2.187,2.117-5.26,4.279-9.093,6.259c-1.912,1.001-4.023,1.935-6.244,2.941
					c-2.223,1.009-4.572,2.075-7.039,3.194c-19.741,8.944-46.803,21.752-76.874,35.517c-14.976,7.045-30.025,12.139-44.081,15.033
					c-7.022,1.471-13.778,2.452-20.129,3.059c-6.358,0.54-12.305,0.71-17.729,0.595c-1.356-0.006-2.678-0.118-3.967-0.169
					c-1.287-0.081-2.546-0.094-3.761-0.226c-1.216-0.115-2.398-0.227-3.544-0.336c-1.147-0.097-2.255-0.216-3.32-0.384
					c-1.066-0.151-2.096-0.296-3.088-0.436c-0.991-0.135-1.947-0.267-2.851-0.472c-1.809-0.395-3.43-0.915-4.809-1.566
					c-2.776-1.268-4.527-3.094-5.114-4.6c-0.078-0.185-0.151-0.359-0.219-0.522c-0.045-0.17-0.087-0.33-0.126-0.478
					c-0.09-0.292-0.131-0.544-0.14-0.751c-0.041-0.409-0.048-0.618-0.048-0.618c0.065-0.015-0.016,0.872,0.628,2.325
					c0.609,1.466,2.347,3.232,5.104,4.459c1.369,0.629,2.98,1.13,4.775,1.507c0.896,0.196,1.848,0.32,2.84,0.448
					c0.99,0.133,2.019,0.271,3.084,0.414c1.063,0.161,2.17,0.273,3.315,0.363c1.144,0.102,2.323,0.207,3.537,0.316
					c1.213,0.125,2.469,0.132,3.754,0.206c1.286,0.045,2.604,0.15,3.957,0.151c5.411,0.092,11.341-0.1,17.681-0.657
					c6.333-0.625,13.068-1.619,20.069-3.099c14.018-2.914,29.008-8.002,43.965-15.037c30.065-13.762,57.155-26.519,76.938-35.378
					c2.472-1.107,4.827-2.162,7.055-3.161c2.23-0.996,4.337-1.913,6.246-2.897c3.828-1.946,6.895-4.069,9.087-6.147
					c2.203-2.072,3.525-4.046,4.31-5.423c0.407-0.685,0.656-1.239,0.831-1.609C324.526,352.18,324.629,351.996,324.629,351.996z"/>
			</g>
		</g>
		<g>
			<path style="fill:#EB996E;" d="M223.802,237.39c-2.057,2.541-13.705,7.833-13.526,20.6c0.18,12.766,22.726,54.832,22.726,54.832
				l-43.254,59.487l13.427,11.922l49.678-57.253c4.023-4.637,5.848-10.785,5.007-16.866l-4.639-33.511L223.802,237.39z"/>
			<path style="fill:#EB996E;" d="M191.889,370.016c-0.588,0.575-7.004,6.957-7.004,6.957s-3.113,3.898-2.426,4.684
				c2.698,3.088,24.819,22.725,24.819,22.725s2.712,0.418,0.08-7.177c-2.632-7.595-4.184-12.975-4.184-12.975l5.802-6.687
				L191.889,370.016z"/>
		</g>
		<g>
			<polygon style="fill:#EB996E;" points="333.232,210.817 357.992,235.11 400.884,243.975 398.418,257.37 351.954,251.416 
				319.397,229.861 			"/>
			<g>
				<g>
					<g>
						<g>
							<path style="fill:#EB996E;" d="M398.102,244.351c0.693-0.461,1.493-1.025,2.406-1.732c0.785-0.607,1.456-1.354,1.997-2.195
								c0.657-1.019,1.475-2.411,1.694-3.313c0.27-1.117,1.723-1.322,2.109-0.358c0.385,0.965,0.178,4.43-2.078,7.331
								c0,0-0.773,1.336,0.776,2.133c2.252,1.158,10.243,4.751,11.504,5.551c1.123,0.712,2.155,1.866,0.876,1.915
								c-1.279,0.049-8.019-1.772-8.019-1.772s8.881,2.212,8.499,3.491c-0.263,0.882-2.745,1.017-8.472-1.03
								c0,0,7.302,1.878,7.983,2.75c1.538,1.971-7.271-0.202-7.271-0.202c6.158,1.576,6.133,1.241,6.095,2.107
								c-0.029,0.649-1.475,0.735-4.916,0.357c-2.792-0.306-14.798-2.314-14.798-2.314"/>
						</g>
					</g>
				</g>
				<g>
					<g>
						<g>
							<path style="fill:#AA6550;" d="M406.378,256.056c-0.043,0.154,1.826,0.716,4.175,1.255c2.349,0.539,4.276,0.849,4.305,0.691
								c0.028-0.157-1.841-0.719-4.176-1.255C408.348,256.212,406.421,255.903,406.378,256.056z"/>
						</g>
					</g>
				</g>
				<g>
					<g>
						<g>
							<path style="fill:#AA6550;" d="M406.734,253.627c-0.045,0.153,1.913,0.864,4.373,1.587c2.461,0.724,4.491,1.186,4.536,1.033
								c0.045-0.153-1.913-0.864-4.373-1.587C408.811,253.937,406.779,253.474,406.734,253.627z"/>
						</g>
					</g>
				</g>
				<g>
					<g>
						<g>
							<path style="fill:#AA6550;" d="M407.118,251.108c-0.047,0.152,1.795,0.856,4.113,1.571c2.319,0.715,4.237,1.172,4.284,1.019
								c0.047-0.152-1.794-0.856-4.113-1.572C409.083,251.412,407.165,250.955,407.118,251.108z"/>
						</g>
					</g>
				</g>
			</g>
		</g>
		<g>
			<path style="fill:#EB996E;" d="M252.032,273.707c0.713,0.859,36.741,25.998,36.741,25.998l-17.817,44.702l17.533,3.22
				l25.263-41.371c4.652-7.01,2.967-16.44-3.825-21.404l-42.517-31.077l-16.283,17.15"/>
			<path style="fill:#EB996E;" d="M270.956,344.408c-0.232,0.79-6.62,13.668-6.62,13.668s-0.813,4.922,0.172,5.272
				c3.863,1.377,32.757,7.706,32.757,7.706s2.57-0.96-3.436-6.302c-6.006-5.342-9.989-9.279-9.989-9.279l6.321-10.668
				L270.956,344.408z"/>
			<g>
				<g>
					<path style="fill:#263238;" d="M292.072,306.118c0.012-0.013,0.133,0.093,0.353,0.308c0.233,0.204,0.524,0.552,0.877,1.023
						c0.689,0.944,1.444,2.533,1.703,4.63c0.258,2.086-0.012,4.662-1.108,7.231c-1.103,2.573-3.054,5-5.386,7.164
						c-2.345,2.164-4.813,3.926-7.003,5.568c-2.196,1.636-4.114,3.182-5.596,4.619c-1.482,1.436-2.536,2.737-3.197,3.684
						c-0.664,0.945-0.971,1.51-1.015,1.486c-0.016-0.009,0.048-0.156,0.186-0.43c0.13-0.278,0.355-0.671,0.661-1.168
						c0.615-0.991,1.64-2.346,3.106-3.833c1.466-1.487,3.379-3.078,5.565-4.74c2.181-1.667,4.626-3.433,6.938-5.567
						c2.297-2.132,4.211-4.498,5.3-6.974c1.084-2.475,1.386-4.971,1.181-6.999c-0.206-2.038-0.882-3.599-1.505-4.557
						C292.511,306.595,292.025,306.162,292.072,306.118z"/>
				</g>
				<g>
					<path style="fill:#263238;" d="M290.177,324.371c-0.089-0.043,0.384-0.734,0.471-1.993c0.044-0.621-0.024-1.375-0.31-2.141
						c-0.139-0.383-0.34-0.764-0.602-1.117c-0.129-0.171-0.279-0.362-0.426-0.488c-0.151-0.132-0.346-0.223-0.457-0.204
						c-0.194-0.023-0.377,0.593-0.47,0.978c-0.097,0.429-0.126,0.858-0.099,1.263c0.051,0.813,0.326,1.515,0.656,2.041
						c0.672,1.063,1.425,1.442,1.369,1.517c-0.007,0.049-0.858-0.215-1.675-1.312c-0.398-0.54-0.745-1.307-0.829-2.208
						c-0.044-0.449-0.022-0.927,0.079-1.409c0.05-0.241,0.12-0.483,0.214-0.72c0.069-0.212,0.265-0.61,0.684-0.666
						c0.778-0.004,1.07,0.558,1.367,0.909c0.287,0.4,0.5,0.829,0.64,1.255c0.289,0.853,0.32,1.677,0.224,2.34
						C290.818,323.764,290.204,324.407,290.177,324.371z"/>
				</g>
				<g>
					<path style="fill:#263238;" d="M293.851,319.442c-0.05-0.011,0.197-0.84,1.215-1.72c0.504-0.428,1.214-0.843,2.086-1.038
						c0.865-0.199,1.881-0.181,2.857,0.165l0.348,0.124l-0.229,0.279l-0.021,0.025c-1.275,1.645-3.138,2.354-4.438,2.475
						c-1.329,0.139-2.121-0.169-2.102-0.215c0.012-0.092,0.81,0.075,2.049-0.149c1.219-0.206,2.914-0.923,4.079-2.428l0.019-0.023
						l0.12,0.403c-1.783-0.64-3.58-0.077-4.541,0.671C294.29,318.753,293.927,319.492,293.851,319.442z"/>
				</g>
				<g>
					<path style="fill:#263238;" d="M294.44,313.383c-0.083,0.001-0.066-0.488-0.397-1.124c-0.302-0.63-1.126-1.342-2.2-1.332
						c-0.039,0.001-0.079,0.002-0.115,0.004l0.224-0.362c0.87,2.041,2.619,2.866,2.524,2.988c-0.024,0.057-0.486-0.056-1.12-0.484
						c-0.629-0.42-1.409-1.202-1.883-2.299l-0.151-0.35l0.375-0.012c0.045-0.001,0.094-0.003,0.142-0.005
						c1.321-0.017,2.293,0.937,2.539,1.701C294.663,312.886,294.495,313.398,294.44,313.383z"/>
				</g>
				<g>
					<path style="fill:#263238;" d="M294.299,309.498c-0.131-0.073,0.668-1.224,0.516-2.805l0.478,0.117l-0.008,0.013
						c-0.864,1.342-0.671,2.741-0.821,2.747c-0.064,0.013-0.209-0.316-0.226-0.89c-0.02-0.567,0.128-1.385,0.608-2.137l0.01-0.016
						l0.406-0.662l0.072,0.779c0.082,0.884-0.158,1.674-0.432,2.167C294.626,309.312,294.35,309.538,294.299,309.498z"/>
				</g>
				<g>
					<path style="fill:#263238;" d="M284.76,329.255c0.002-0.059,0.773-0.158,2.048-0.082c0.634,0.05,1.41,0.161,2.21,0.519
						c0.785,0.351,1.622,0.964,2.077,1.921l0.119,0.25l-0.253,0.1c-0.045,0.018-0.094,0.038-0.144,0.057
						c-0.966,0.377-1.986,0.42-2.857,0.238c-0.877-0.179-1.595-0.584-2.107-1.006c-1.031-0.869-1.284-1.701-1.234-1.712
						c0.076-0.051,0.444,0.689,1.457,1.419c0.505,0.357,1.175,0.69,1.974,0.827c0.794,0.141,1.713,0.086,2.579-0.252
						c0.044-0.018,0.088-0.035,0.129-0.051l-0.134,0.35c-0.379-0.805-1.099-1.366-1.807-1.71c-0.715-0.349-1.44-0.494-2.048-0.588
						C285.541,329.37,284.756,329.338,284.76,329.255z"/>
				</g>
				<g>
					<path style="fill:#263238;" d="M275.832,336.489c0.002-0.056,0.963-0.163,2.546-0.058c0.787,0.068,1.746,0.21,2.732,0.654
						c0.969,0.437,1.996,1.194,2.554,2.367l0.119,0.25l-0.253,0.1c-0.056,0.022-0.117,0.046-0.177,0.07
						c-1.191,0.465-2.449,0.52-3.524,0.298c-1.083-0.218-1.971-0.713-2.608-1.231c-0.641-0.521-1.045-1.06-1.28-1.448
						c-0.234-0.392-0.312-0.633-0.284-0.648c0.079-0.056,0.524,0.877,1.788,1.803c0.629,0.452,1.47,0.876,2.474,1.052
						c0.998,0.18,2.155,0.113,3.245-0.312c0.056-0.022,0.111-0.044,0.162-0.064l-0.134,0.35c-0.482-1.021-1.392-1.726-2.284-2.156
						c-0.9-0.436-1.81-0.612-2.571-0.724C276.804,336.599,275.828,336.575,275.832,336.489z"/>
				</g>
				<g>
					<path style="fill:#263238;" d="M279.387,333.35c-0.048-0.057,0.61-0.618,1.229-1.843c0.302-0.61,0.667-1.356,0.848-2.217
						c0.184-0.864,0.192-1.863-0.068-2.849l0.402,0.146l-0.064,0.048c-1.694,1.225-2.412,3.136-2.48,4.482
						C279.16,332.488,279.476,333.328,279.387,333.35c-0.043,0.028-0.501-0.787-0.501-2.25c-0.028-1.429,0.692-3.552,2.541-4.887
						l0.07-0.052l0.305-0.225l0.098,0.371c0.284,1.076,0.258,2.16,0.031,3.087c-0.229,0.938-0.641,1.683-0.996,2.292
						C280.205,332.918,279.42,333.412,279.387,333.35z"/>
				</g>
			</g>
			<path style="fill:#263238;" d="M266.279,353.341c0,0,10.8,3.625,17.561,2.133l3.341-5.639l-18.061-2.25L266.279,353.341z"/>
		</g>
		<g>
			<path style="fill:#E8505B;" d="M280.733,190.861c-1.135,1.054-56.931,46.529-56.931,46.529s6.449,24.339,43.607,16.384
				l33.849-13.427c3.129-1.241,6.131-2.781,8.964-4.599l9.174-5.887l14.211-18.301c-2.584-5.276-6.888-10.869-14.791-13.143
				l-19.563-5.119L280.733,190.861z"/>
			<path style="fill:#E8505B;" d="M231.666,312.2l-20.886-45.464c-3.738-8.895-0.915-19.192,6.836-24.937l7.955-5.896l47.973,15.438
				l39.337,36.32l-25.256,12.618l-33.084-24.785l3.13,29.777L231.666,312.2z"/>
			<path style="fill:#F5F5F5;" d="M234.902,310.81c0,0-20.331-46.711-20.659-52.767c-0.328-6.055,0.057-6.744,1.832-10.171
				c1.775-3.427,52.974-38.861,52.974-38.861l6.607,0.024l-55.183,39.688c0,0-2.951,3.862-1.967,8.645
				c0.984,4.783,20.702,52.821,20.702,52.821L234.902,310.81z"/>
			<g>
				<path style="fill:#263238;" d="M251.912,259.091c0.142-0.02,0.803,3.771,1.475,8.468c0.672,4.698,1.102,8.522,0.96,8.542
					c-0.142,0.02-0.803-3.77-1.475-8.469C252.199,262.935,251.769,259.111,251.912,259.091z"/>
			</g>
			<g>
				<path style="fill:#263238;" d="M280.692,244.952c0.012,0.034-0.524,0.252-1.504,0.617c-0.979,0.37-2.412,0.858-4.197,1.418
					c-3.568,1.122-8.574,2.453-14.196,3.472c-5.625,1.012-10.781,1.515-14.517,1.711c-1.868,0.1-3.381,0.144-4.427,0.139
					c-1.046,0.001-1.624-0.016-1.625-0.052c-0.001-0.036,0.576-0.088,1.618-0.151c1.042-0.057,2.55-0.158,4.409-0.304
					c3.719-0.289,8.847-0.849,14.449-1.857c5.599-1.015,10.598-2.283,14.184-3.312c1.793-0.513,3.241-0.946,4.238-1.257
					C280.121,245.071,280.68,244.918,280.692,244.952z"/>
			</g>
			<g>
				<path style="fill:#263238;" d="M278.423,250.337c0.021,0.142-6.19,1.17-13.872,2.296c-7.684,1.126-13.928,1.923-13.949,1.78
					c-0.021-0.142,6.189-1.17,13.873-2.296C272.157,250.992,278.402,250.195,278.423,250.337z"/>
			</g>
			<g style="opacity:0.3;">
				<path d="M246.356,219.096c0.323,2.526,2.493,4.53,4.918,5.305s5.059,0.525,7.554,0.021c9.367-1.893,17.962-7.377,23.624-15.075
					c-8.028-1.518-16.502-3.621-23.951-0.263L246.356,219.096"/>
			</g>
			<polygon style="opacity:0.3;" points="252.609,263.966 282.452,296.405 254.54,275.495 			"/>
			<g style="opacity:0.2;">
				<path d="M249.897,251.499c-1.355,0.256-2.546-1.316-2.276-2.667c0.271-1.352,1.56-2.303,2.898-2.635
					c1.338-0.331,2.741-0.173,4.116-0.086c9.819,0.622,19.833-2.647,27.392-8.945c1.078-0.898,2.159-1.883,3.511-2.261
					c1.352-0.377,2.575-1.214,3.068,0.101c0.535,1.426-0.076,4.228-1.182,5.276c-5.033,4.771-11.636,7.624-18.394,9.185
					c-6.757,1.561-13.727,1.912-20.653,2.257"/>
			</g>
		</g>
		<g>
			<path style="fill:#263238;" d="M313.124,154.492c-2.846,0.402-4.639,3.194-5.982,5.735c-1.342,2.541-2.951,5.383-5.745,6.055
				c-2.303,0.554-5.202-0.425-6.791,1.332c-0.741,0.82-0.897,2.116-0.371,3.088c0.526,0.972,1.695,1.551,2.787,1.38
				c-1.538,1.204-2.42,3.384-1.681,5.192c0.739,1.808,3.363,2.684,4.806,1.367c-0.932,0.886-0.926,2.566,0.012,3.446
				c0.938,0.88,2.615,0.778,3.44-0.209"/>
			<path style="fill:#263238;" d="M331.081,188.929c-0.319,1.492,0.784,3.136,2.286,3.406c1.501,0.269,3.108-0.889,3.327-2.398
				c0.172-1.184-0.391-2.483,0.161-3.545c0.668-1.286,2.461-1.352,3.899-1.171c1.438,0.18,3.164,0.322,4.066-0.813
				c0.87-1.095,0.412-2.681,0.04-4.03c-0.371-1.349-0.453-3.116,0.762-3.81c0.621-0.355,1.395-0.291,2.072-0.523
				c1.499-0.514,2.144-2.458,1.626-3.955c-0.518-1.497-1.897-2.55-3.359-3.161c-1.462-0.611-3.044-0.863-4.565-1.308
				c-5.015-1.466-9.342-5.138-11.604-9.848"/>
			<g>
				<g>
					<g>
						<g>
							<g>
								<g>
									<g>
										<g>
											<g>
												<g>
													<g>
														<path style="fill:#EB996E;" d="M308.913,164.817l-11.247,30.406c-1.978,5.348,0.774,11.284,6.133,13.23l0,0
															c5.008,1.819,10.577-0.492,12.829-5.321c1.202-2.577,2.191-4.715,2.191-4.715s7.955,2.234,11.435-5.15
															c1.682-3.569,4.547-11.201,7.06-18.136c2.698-7.448-0.786-15.719-7.992-19.007l-0.717-0.327
															C320.671,152.724,311.766,156.803,308.913,164.817z"/>
													</g>
												</g>
											</g>
										</g>
									</g>
								</g>
							</g>
							<g>
								<g>
									<g>
										<g>
											<g>
												<g>
													<g>
														<path style="fill:#AA6550;" d="M318.879,198.316c0,0-4.868-1.76-8.426-7.169c0,0-0.15,6.389,7.566,9.101
															L318.879,198.316z"/>
													</g>
												</g>
											</g>
										</g>
									</g>
								</g>
							</g>
						</g>
					</g>
				</g>
				<g>
					<g>
						<g>
							<g>
								<g>
									<g>
										<g>
											<g>
												<g>
													<g>
														<g>
															<g>
																<g>
																	<path style="fill:#263238;" d="M332.074,178.799c-0.236,0.569-0.912,0.839-1.511,0.603
																		c-0.598-0.235-0.893-0.886-0.657-1.455c0.236-0.569,0.912-0.839,1.51-0.605
																		C332.015,177.578,332.31,178.23,332.074,178.799z"/>
																</g>
															</g>
														</g>
													</g>
												</g>
											</g>
										</g>
										<g>
											<g>
												<g>
													<g>
														<g>
															<g>
																<g>
																	<g>
																		<path style="fill:#263238;" d="M334.054,178.048c-0.195,0.078-0.727-0.883-1.87-1.401
																			c-1.134-0.533-2.239-0.328-2.299-0.525c-0.033-0.09,0.215-0.278,0.701-0.377c0.48-0.101,1.209-0.078,1.919,0.249
																			c0.709,0.328,1.188,0.863,1.409,1.287C334.142,177.712,334.147,178.016,334.054,178.048z"/>
																	</g>
																</g>
															</g>
														</g>
													</g>
												</g>
											</g>
										</g>
									</g>
									<g>
										<g>
											<g>
												<g>
													<g>
														<g>
															<g>
																<g>
																	<path style="fill:#263238;" d="M321.023,173.905c-0.236,0.569-0.912,0.839-1.511,0.603
																		c-0.598-0.235-0.893-0.886-0.657-1.455c0.236-0.569,0.912-0.839,1.51-0.605
																		C320.964,172.684,321.259,173.336,321.023,173.905z"/>
																</g>
															</g>
														</g>
													</g>
												</g>
											</g>
										</g>
										<g>
											<g>
												<g>
													<g>
														<g>
															<g>
																<g>
																	<g>
																		<path style="fill:#263238;" d="M322.739,173.143c-0.195,0.078-0.728-0.883-1.87-1.4
																			c-1.134-0.533-2.239-0.329-2.299-0.525c-0.032-0.089,0.214-0.279,0.701-0.377c0.48-0.101,1.209-0.079,1.919,0.249
																			c0.709,0.328,1.188,0.863,1.409,1.288C322.826,172.806,322.831,173.11,322.739,173.143z"/>
																	</g>
																</g>
															</g>
														</g>
													</g>
												</g>
											</g>
										</g>
									</g>
									<g>
										<g>
											<g>
												<g>
													<g>
														<g>
															<g>
																<g>
																	<path style="fill:#263238;" d="M323.019,183.496c0.024-0.067,0.79,0.134,2.006,0.511
																		c0.305,0.103,0.607,0.171,0.747-0.006c0.165-0.179,0.186-0.549,0.2-0.953c0.048-0.83,0.098-1.7,0.151-2.612
																		c0.245-3.706,0.564-6.699,0.713-6.688c0.149,0.011,0.072,3.024-0.173,6.729c-0.067,0.91-0.131,1.779-0.193,2.609
																		c-0.041,0.381-0.022,0.844-0.371,1.213c-0.178,0.182-0.464,0.242-0.673,0.207c-0.213-0.028-0.378-0.1-0.526-0.157
																		C323.714,183.885,322.994,183.563,323.019,183.496z"/>
																</g>
															</g>
														</g>
													</g>
												</g>
											</g>
										</g>
									</g>
									<g>
										<g>
											<g>
												<g>
													<g>
														<g>
															<g>
																<g>
																	<path style="fill:#263238;" d="M319.3,182.753c0.191,0.074-0.372,1.314,0.287,2.677
																		c0.656,1.365,2.04,1.829,1.971,2.006c-0.018,0.086-0.404,0.106-0.968-0.133c-0.555-0.231-1.273-0.771-1.677-1.604
																		c-0.401-0.834-0.351-1.681-0.161-2.208C318.94,182.951,319.219,182.707,319.3,182.753z"/>
																</g>
															</g>
														</g>
													</g>
												</g>
											</g>
										</g>
									</g>
								</g>
							</g>
						</g>
						<g>
							<g>
								<g>
									<g>
										<g>
											<g>
												<g>
													<path style="fill:#263238;" d="M325.074,168.805c-0.254,0.259-1.327-0.408-2.739-0.857
														c-1.404-0.478-2.662-0.579-2.713-0.938c-0.018-0.169,0.303-0.375,0.877-0.477c0.569-0.102,1.39-0.072,2.235,0.205
														c0.844,0.279,1.522,0.742,1.919,1.163C325.053,168.323,325.19,168.68,325.074,168.805z"/>
												</g>
											</g>
										</g>
									</g>
								</g>
							</g>
						</g>
						<g>
							<g>
								<g>
									<g>
										<g>
											<g>
												<g>
													<path style="fill:#263238;" d="M335.141,174.554c-0.319,0.168-0.982-0.46-1.922-0.904
														c-0.924-0.477-1.825-0.622-1.886-0.978c-0.021-0.168,0.224-0.371,0.686-0.456c0.456-0.087,1.124-0.024,1.764,0.292
														c0.64,0.317,1.096,0.809,1.304,1.224C335.3,174.151,335.287,174.468,335.141,174.554z"/>
												</g>
											</g>
										</g>
									</g>
								</g>
							</g>
						</g>
					</g>
				</g>
				<g>
					<path style="fill:#263238;" d="M320.691,160.353c-0.019,0.005-0.037,0.009-0.055,0.014c-1.609,0.394-3.007,1.389-3.895,2.787
						c-0.031,0.049-0.061,0.096-0.089,0.141c-1.257,1.986-2.188,4.165-3.464,6.138c-1.276,1.973-2.991,3.791-5.22,4.535
						c-0.917,0.306-2.243,0.199-2.451-0.744c-0.081-0.365,0.05-0.74,0.178-1.091c1.938-5.295,2.611-10.47,5.061-15.814
						c0.667-1.454,1.975-2.508,3.545-2.816c1.486-0.291,3.233-0.5,4.208,0.657c0.978,1.16,1.525,4.222,2.039,5.65"/>
				</g>
				<g>
					<g>
						<g>
							<g>
								<g>
									<g>
										<g>
											<g>
												<path style="fill:#EB996E;" d="M309.883,169.32c-0.102-0.113-4.414-3.837-6.568,1.314
													c-2.154,5.151,3.462,6.252,3.532,6.108C306.918,176.597,309.883,169.32,309.883,169.32z"/>
											</g>
										</g>
									</g>
								</g>
							</g>
						</g>
					</g>
					<g>
						<g>
							<g>
								<g>
									<g>
										<g>
											<g>
												<g>
													<path style="fill:#AA6550;" d="M306.09,174.131c-0.016-0.026-0.116,0.025-0.297,0.032
														c-0.176,0.006-0.45-0.054-0.676-0.267c-0.461-0.427-0.558-1.483-0.194-2.422c0.183-0.474,0.468-0.88,0.789-1.18
														c0.315-0.311,0.669-0.473,0.963-0.406c0.299,0.051,0.424,0.296,0.427,0.467c0.009,0.173-0.067,0.262-0.043,0.282
														c0.009,0.019,0.147-0.04,0.194-0.27c0.021-0.111,0.012-0.258-0.068-0.408c-0.082-0.152-0.242-0.279-0.441-0.339
														c-0.409-0.139-0.919,0.077-1.271,0.407c-0.375,0.322-0.706,0.773-0.911,1.306c-0.401,1.052-0.276,2.245,0.379,2.772
														c0.323,0.246,0.671,0.263,0.878,0.207C306.028,174.252,306.104,174.148,306.09,174.131z"/>
												</g>
											</g>
										</g>
									</g>
								</g>
							</g>
						</g>
					</g>
				</g>
				<g>
					<path style="fill:#263238;" d="M317.979,154.865c-0.323-2.601,4.432-3.956,7.299-3.602c2.866,0.353,5.61,3.081,7.726,5.046
						c1.335,1.24,2.571,2.683,4.259,3.371c1.132,0.461,2.376,0.541,3.593,0.648c1.217,0.108,2.466,0.259,3.541,0.841
						c1.075,0.582,1.947,1.693,1.899,2.914c-0.049,1.221-1.295,2.355-2.466,2.006c1.758-0.131,3.327,1.811,2.831,3.502
						c-0.496,1.691-2.865,2.479-4.275,1.421c0.972-0.218,1.666,1.191,1.166,2.052c-0.5,0.861-1.617,1.144-2.613,1.13
						c-2.542-0.036-4.875-1.459-6.73-3.197c-1.855-1.738-3.363-3.814-5.174-5.597c-1.811-1.783-4.802-4.865-7.333-5.091
						c-1.864-0.167-3.864,1.258-4.576,0.417c-0.688-0.812-0.825-1.984-0.565-3.016C316.82,156.677,317.404,155.761,317.979,154.865"
						/>
				</g>
			</g>
			<g>
				<path style="fill:#455A64;" d="M341.524,164.123c-0.029-0.008,0.607-0.038,1.187,0.745c0.277,0.381,0.479,0.946,0.478,1.617
					c-0.001,0.657-0.219,1.475-0.875,2.06c-1.279,1.203-3.628,1.27-5.549,0.226c-1.974-1.01-3.541-2.921-4.865-4.985
					c-1.324-2.077-2.479-4.11-3.953-5.599c-0.725-0.745-1.524-1.354-2.336-1.764c-0.824-0.395-1.671-0.599-2.45-0.659
					c-1.572-0.122-2.824,0.37-3.515,0.898c-0.702,0.532-0.944,0.988-0.991,0.954c-0.015-0.009,0.041-0.12,0.166-0.326
					c0.125-0.204,0.346-0.49,0.699-0.787c0.686-0.606,1.999-1.188,3.662-1.106c0.824,0.04,1.725,0.232,2.615,0.637
					c0.884,0.426,1.723,1.048,2.49,1.816c1.552,1.532,2.74,3.603,4.049,5.654c1.308,2.041,2.81,3.875,4.651,4.843
					c1.786,1,3.933,0.953,5.08-0.076c0.579-0.483,0.801-1.192,0.83-1.793c0.028-0.61-0.128-1.136-0.356-1.498
					C342.073,164.235,341.488,164.182,341.524,164.123z"/>
			</g>
			<g>
				<path style="fill:#455A64;" d="M328.82,155.224c-0.058,0.066-0.614-0.447-1.676-0.97c-1.048-0.525-2.665-1.006-4.447-0.814
					c-1.781,0.196-3.258,1.014-4.167,1.754c-0.924,0.74-1.356,1.361-1.427,1.309c-0.048-0.026,0.28-0.736,1.187-1.588
					c0.888-0.846,2.436-1.781,4.351-1.992c1.914-0.207,3.628,0.372,4.678,1.007C328.388,154.566,328.862,155.188,328.82,155.224z"/>
			</g>
			<g>
				<path style="fill:#455A64;" d="M309.32,162.211c-0.058,0-0.117-0.625,0.196-1.571c0.301-0.933,1.06-2.18,2.37-3.006
					c1.313-0.822,2.766-0.963,3.737-0.829c0.988,0.129,1.525,0.454,1.5,0.506c-0.027,0.081-0.596-0.111-1.529-0.139
					c-0.922-0.035-2.24,0.156-3.432,0.902c-1.189,0.749-1.934,1.853-2.304,2.699C309.479,161.626,309.404,162.221,309.32,162.211z"
					/>
			</g>
		</g>
		<g>
			<g>
				<g>
					<g>
						<path style="fill:#EB996E;" d="M206.402,233.657l-1.176,2.113c-0.529,1.268-1.14,2.9-1.747,4.913
							c-0.006,0.224-0.115,3.835,0.377,5.737c0.033,0.087,0.06,0.197,0.096,0.273c0.085,0.183,0.113,0.365,0.119,0.543
							c0.116,1.096-1.016,1.984-1.932,1.385c-0.939-0.614-2.171-3.577-2.125-7.401c-0.002-0.061-0.01-0.117-0.011-0.178
							c-0.059-3.883-3.745,0.902-5.118,2.62c-1.373,1.719-5.867,6.831-6.718,6.814c-1.248-0.025-1.458-1.401-0.047-3.085
							c1.428-1.704,5.294-7.039,4.372-7.743c-0.909-0.694-7.785,8.154-7.785,8.154s-1.17,2.136-2.263,1.359
							c-1.971-1.402,6.017-10.252,6.797-11.075c0.543-0.572-0.433-1.374-0.983-0.728c-0.566,0.665-6.658,8.99-8.677,7.582
							c-1.55-1.081,6.503-7.343,6.829-9.794c0.325-2.451-5.634,5.388-7.073,4.294c-0.535-0.407-0.88-0.787,3.177-4.78
							c2.13-2.096,6.585-5.527,10.426-8.378l5.686-4.98"/>
					</g>
				</g>
			</g>
			<g>
				<path style="fill:#EB996E;" d="M289.704,201.417c0.897-5.532-3.367-10.552-8.971-10.555c-12.923-0.009-34.506,0.024-43.735,0.04
					c-2.84,0.005-5.573,1.053-7.689,2.947l-36.568,32.705l10.12,10.357l35.239-28.038l42.583,0.187
					C285.16,209.078,288.987,205.837,289.704,201.417L289.704,201.417z"/>
				<g>
					<path style="fill:#263238;" d="M250.673,209.084c-0.077-0.037,0.354-1.003,0.893-2.613c0.542-1.608,1.142-3.882,1.434-6.451
						c0.285-2.571,0.205-4.922,0.034-6.61c-0.168-1.69-0.374-2.728-0.291-2.746c0.057-0.014,0.391,0.999,0.656,2.701
						c0.268,1.698,0.409,4.094,0.118,6.714c-0.298,2.618-0.968,4.923-1.605,6.519C251.276,208.196,250.725,209.111,250.673,209.084z
						"/>
				</g>
				<g>
					<path style="fill:#263238;" d="M256.413,191.676c0.057-0.015,0.381,0.947,0.631,2.564c0.252,1.614,0.371,3.894,0.056,6.379
						c-0.321,2.485-1.011,4.662-1.661,6.161c-0.649,1.503-1.205,2.351-1.256,2.323c-0.076-0.039,0.362-0.944,0.913-2.458
						c0.554-1.512,1.172-3.657,1.487-6.092c0.308-2.434,0.25-4.666,0.095-6.269C256.526,192.681,256.33,191.695,256.413,191.676z"/>
				</g>
				<g>
					<path style="fill:#263238;" d="M255.033,206.59c0.032,0.136-0.579,0.378-1.359,0.279c-0.781-0.095-1.314-0.479-1.25-0.603
						c0.063-0.134,0.626,0.005,1.314,0.086C254.425,206.442,255.005,206.445,255.033,206.59z"/>
				</g>
				<g>
					<path style="fill:#263238;" d="M255.242,204.765c-0.023,0.142-0.511,0.182-1.09,0.088c-0.58-0.093-1.031-0.284-1.008-0.426
						c0.023-0.142,0.511-0.182,1.09-0.088C254.813,204.433,255.265,204.623,255.242,204.765z"/>
				</g>
				<g>
					<path style="fill:#263238;" d="M256.1,202.626c0.007,0.141-0.542,0.278-1.213,0.168c-0.671-0.107-1.149-0.41-1.098-0.542
						c0.051-0.137,0.567-0.069,1.181,0.028C255.584,202.381,256.096,202.48,256.1,202.626z"/>
				</g>
				<g>
					<path style="fill:#263238;" d="M256.548,200.263c0.005,0.144-0.566,0.28-1.274,0.305c-0.709,0.025-1.288-0.072-1.292-0.216
						c-0.005-0.144,0.566-0.28,1.274-0.305C255.965,200.023,256.543,200.12,256.548,200.263z"/>
				</g>
				<g>
					<path style="fill:#263238;" d="M256.333,198.23c-0.033,0.142-0.45,0.164-0.941,0.166c-0.491-0.002-0.908-0.024-0.941-0.167
						c-0.034-0.137,0.383-0.355,0.941-0.354C255.95,197.875,256.367,198.093,256.333,198.23z"/>
				</g>
				<g>
					<path style="fill:#263238;" d="M256.363,195.691c0.017,0.143-0.452,0.314-1.046,0.383c-0.594,0.069-1.09,0.009-1.106-0.134
						c-0.017-0.143,0.452-0.314,1.046-0.383C255.851,195.488,256.346,195.548,256.363,195.691z"/>
				</g>
				<g>
					<path style="fill:#263238;" d="M256.054,193.71c-0.035,0.142-0.448,0.159-0.93,0.183c-0.483,0.018-0.895,0.038-0.943-0.101
						c-0.049-0.132,0.352-0.396,0.92-0.419C255.668,193.347,256.091,193.574,256.054,193.71z"/>
				</g>
				<g>
					<path style="fill:#263238;" d="M255.891,192.249c-0.086,0.12-0.496-0.03-1.001-0.06c-0.503-0.044-0.931,0.046-0.999-0.086
						c-0.076-0.119,0.372-0.483,1.036-0.434C255.593,191.717,255.983,192.143,255.891,192.249z"/>
				</g>
				<g>
					<path style="fill:#263238;" d="M258.987,197.437c-0.07-0.031,0.167-0.354,0.641-0.178c0.214,0.069,0.477,0.372,0.413,0.732
						c-0.051,0.332-0.321,0.67-0.757,0.703c-0.429,0.009-0.73-0.286-0.833-0.592c-0.115-0.328,0.025-0.643,0.182-0.795
						c0.341-0.328,0.66-0.22,0.642-0.159c0.007,0.074-0.217,0.137-0.352,0.386c-0.066,0.122-0.089,0.27-0.023,0.397
						c0.06,0.134,0.226,0.253,0.361,0.242c0.128,0.001,0.278-0.141,0.31-0.27c0.039-0.126-0.012-0.237-0.116-0.321
						C259.24,197.413,259.029,197.493,258.987,197.437z"/>
				</g>
				<g>
					<path style="fill:#263238;" d="M258.604,193.724c-0.07-0.031,0.167-0.354,0.641-0.178c0.214,0.069,0.477,0.372,0.413,0.732
						c-0.051,0.332-0.321,0.67-0.757,0.703c-0.429,0.009-0.73-0.286-0.833-0.591c-0.115-0.328,0.025-0.643,0.182-0.795
						c0.341-0.328,0.66-0.22,0.642-0.159c0.007,0.074-0.217,0.137-0.352,0.386c-0.066,0.122-0.089,0.27-0.023,0.397
						c0.06,0.134,0.226,0.253,0.361,0.242c0.128,0.001,0.278-0.141,0.31-0.27c0.039-0.126-0.012-0.237-0.116-0.321
						C258.857,193.7,258.646,193.78,258.604,193.724z"/>
				</g>
				<g>
					<path style="fill:#263238;" d="M258.295,202.023c-0.07-0.031,0.167-0.354,0.641-0.178c0.214,0.069,0.477,0.372,0.413,0.732
						c-0.051,0.332-0.321,0.67-0.757,0.703c-0.429,0.009-0.73-0.286-0.833-0.592c-0.115-0.328,0.025-0.643,0.182-0.795
						c0.341-0.328,0.66-0.22,0.642-0.159c0.007,0.074-0.217,0.137-0.353,0.386c-0.066,0.122-0.089,0.27-0.023,0.397
						c0.06,0.134,0.226,0.253,0.361,0.242c0.128,0.001,0.278-0.141,0.31-0.27c0.039-0.126-0.012-0.237-0.116-0.321
						C258.549,201.999,258.337,202.079,258.295,202.023z"/>
				</g>
				<g>
					<path style="fill:#263238;" d="M257.214,206.518c-0.07-0.031,0.167-0.354,0.641-0.178c0.214,0.069,0.477,0.372,0.413,0.732
						c-0.051,0.332-0.321,0.67-0.757,0.703c-0.429,0.009-0.73-0.286-0.833-0.592c-0.115-0.328,0.025-0.643,0.181-0.795
						c0.341-0.328,0.66-0.22,0.642-0.159c0.007,0.074-0.217,0.137-0.352,0.386c-0.066,0.122-0.09,0.27-0.023,0.397
						c0.06,0.134,0.226,0.253,0.361,0.242c0.127,0.001,0.278-0.141,0.309-0.27c0.039-0.126-0.012-0.237-0.116-0.321
						C257.467,206.494,257.256,206.574,257.214,206.518z"/>
				</g>
				<g>
					<path style="fill:#263238;" d="M260.829,190.742c0.058-0.015,0.4,0.987,0.702,2.67c0.303,1.68,0.515,4.051,0.341,6.66
						c-0.181,2.61-0.711,4.93-1.239,6.553c-0.527,1.627-1.001,2.574-1.057,2.551c-0.078-0.03,0.273-1.021,0.703-2.653
						c0.432-1.631,0.896-3.921,1.074-6.486c0.171-2.565,0.022-4.896-0.185-6.571C260.962,191.79,260.748,190.761,260.829,190.742z"
						/>
				</g>
				<g>
					<path style="fill:#263238;" d="M262.656,191.077c0.057-0.016,0.405,0.958,0.709,2.597c0.307,1.636,0.519,3.95,0.336,6.494
						c-0.189,2.545-0.736,4.803-1.277,6.377c-0.54,1.578-1.025,2.49-1.08,2.466c-0.078-0.032,0.285-0.99,0.728-2.574
						c0.445-1.582,0.924-3.808,1.11-6.307c0.179-2.498,0.03-4.77-0.18-6.4C262.794,192.099,262.574,191.098,262.656,191.077z"/>
				</g>
				<g>
					<path style="fill:#263238;" d="M268.24,199.683c-0.009,0.044-0.248-0.048-0.611,0.105c-0.361,0.126-0.773,0.636-0.609,1.316
						c0.111,0.67,0.938,1.206,1.829,1.047c0.438-0.074,0.845-0.311,1.084-0.725c0.241-0.405,0.313-0.934,0.207-1.439
						c-0.192-1.05-1.167-1.68-2.082-1.757c-0.931-0.11-1.758,0.248-2.318,0.692c-1.131,0.927-1.403,1.899-1.492,1.845
						c-0.03-0.011,0.008-0.247,0.177-0.646c0.175-0.391,0.487-0.955,1.08-1.483c0.576-0.523,1.516-0.986,2.598-0.886
						c0.533,0.041,1.097,0.222,1.578,0.583c0.486,0.355,0.845,0.925,0.969,1.546c0.13,0.62,0.043,1.28-0.28,1.809
						c-0.314,0.538-0.902,0.868-1.448,0.935c-0.552,0.081-1.093-0.05-1.513-0.319c-0.422-0.273-0.691-0.715-0.75-1.132
						c-0.069-0.417,0.026-0.816,0.221-1.094c0.196-0.284,0.465-0.424,0.684-0.484C268.025,199.483,268.26,199.665,268.24,199.683z"
						/>
				</g>
				<g>
					<path style="fill:#263238;" d="M248.801,198.471c-0.011-0.022,0.225-0.12,0.584,0.079c0.32,0.187,0.785,0.745,0.532,1.511
						c-0.274,0.745-1.395,1.139-2.258,0.561c-0.848-0.589-0.999-1.971-0.264-2.839c0.712-0.868,1.847-1.121,2.743-0.952
						c0.915,0.158,1.63,0.73,1.955,1.344c0.337,0.611,0.359,1.195,0.298,1.563c-0.061,0.375-0.186,0.551-0.212,0.54
						c-0.094,0.004,0.257-0.859-0.402-1.913c-0.317-0.502-0.935-0.947-1.718-1.06c-0.764-0.123-1.703,0.122-2.259,0.805
						c-0.567,0.652-0.437,1.71,0.138,2.123c0.57,0.424,1.443,0.174,1.639-0.316c0.222-0.496-0.073-1.012-0.309-1.201
						C249.015,198.506,248.799,198.516,248.801,198.471z"/>
				</g>
				<g>
					<path style="fill:#263238;" d="M251.697,196.971c-0.141,0.031-0.38-0.52-0.535-1.229c-0.155-0.71-0.167-1.31-0.026-1.34
						c0.14-0.031,0.38,0.52,0.535,1.229C251.825,196.34,251.837,196.94,251.697,196.971z"/>
				</g>
				<g>
					<path style="fill:#263238;" d="M251.447,201.523c0.085,0.116-0.21,0.477-0.659,0.807c-0.449,0.329-0.882,0.503-0.967,0.386
						c-0.085-0.116,0.21-0.477,0.659-0.806C250.929,201.58,251.362,201.407,251.447,201.523z"/>
				</g>
				<g>
					<path style="fill:#263238;" d="M265.242,203.577c-0.129,0.063-0.401-0.228-0.606-0.65c-0.206-0.422-0.268-0.815-0.138-0.878
						c0.129-0.063,0.401,0.228,0.606,0.65C265.31,203.121,265.371,203.514,265.242,203.577z"/>
				</g>
				<g>
					<path style="fill:#263238;" d="M266.583,195.547c0.117,0.084-0.191,0.714-0.688,1.406c-0.497,0.693-0.994,1.187-1.111,1.103
						c-0.117-0.084,0.191-0.713,0.688-1.406C265.968,195.957,266.466,195.463,266.583,195.547z"/>
				</g>
			</g>
		</g>
	</g>
</g>
</svg>
