<svg width="43" height="24" viewBox="0 0 43 24" fill="none" xmlns="http://www.w3.org/2000/svg">
<path d="M0.39017 7.01381C0.30127 7.01381 0.237065 6.9783 0.192615 6.90729C0.177799 6.88954 0.17286 6.85403 0.17286 6.80965V5.25184C0.17286 5.19415 0.197554 5.14089 0.242004 5.0965C0.291393 5.05212 0.350659 5.02993 0.419803 5.02993H5.89699C6.01059 5.02993 6.09949 5.00774 6.15875 4.96336C6.21802 4.91898 6.24765 4.86128 6.24765 4.78583C6.24765 4.71482 6.21802 4.65268 6.15381 4.60386C6.09455 4.55504 6.00565 4.53285 5.89699 4.53285L2.59784 4.5151C2.12865 4.51066 1.69403 4.42634 1.30386 4.26212C0.908749 4.09791 0.592663 3.85381 0.355598 3.52094C0.118533 3.18808 0 2.78864 0 2.32263C0 1.5992 0.246943 1.06662 0.735889 0.720441C1.22978 0.374261 1.84713 0.201172 2.60278 0.201172H8.57879C8.62324 0.201172 8.65781 0.218925 8.68745 0.249992C8.71708 0.281059 8.7319 0.321003 8.7319 0.365385V2.06078C8.7319 2.10516 8.71708 2.1451 8.68745 2.17617C8.65781 2.20724 8.62324 2.22499 8.57879 2.22499H3.01764C2.90405 2.22499 2.81515 2.24718 2.75588 2.29156C2.69662 2.33595 2.66698 2.39364 2.66698 2.46909C2.66698 2.5401 2.69662 2.60224 2.76082 2.65106C2.82009 2.69988 2.90899 2.72207 3.01764 2.72207L6.46496 2.73094C7.18603 2.73094 7.7787 2.91291 8.23307 3.28128C8.68745 3.64965 8.91463 4.18224 8.91463 4.88347C8.91463 5.28735 8.80598 5.65128 8.59361 5.97527C8.38124 6.29926 8.08985 6.55667 7.71449 6.73864C7.34408 6.92504 6.92428 7.01824 6.46002 7.01824H0.39017V7.01381Z" fill="#002B41"/>
<path d="M11.0416 7.01381C10.6557 7.01381 10.3044 6.92516 9.97793 6.74787C9.65142 6.57057 9.39417 6.33122 9.20124 6.02538C9.0083 5.72398 8.91431 5.39154 8.91431 5.02808V0.338577C8.91431 0.298685 8.92915 0.267658 8.95883 0.241063C8.98851 0.214469 9.02314 0.201172 9.06767 0.201172H11.3483C11.3829 0.201172 11.4175 0.214469 11.4522 0.241063C11.4868 0.267658 11.5016 0.298685 11.5016 0.338577V4.35879C11.5016 4.46073 11.5363 4.54938 11.6105 4.6203C11.6847 4.69122 11.7688 4.72668 11.8727 4.72668H14.8805C14.9794 4.72668 15.0685 4.69122 15.1427 4.6203C15.2169 4.54938 15.2515 4.46073 15.2515 4.35879V0.338577C15.2515 0.298685 15.2664 0.267658 15.301 0.241063C15.3356 0.214469 15.3702 0.201172 15.4049 0.201172H17.6756C17.7201 0.201172 17.7547 0.214469 17.7844 0.241063C17.8141 0.267658 17.8289 0.298685 17.8289 0.338577V5.03252C17.8289 5.39598 17.7349 5.72841 17.542 6.02981C17.3491 6.33122 17.0918 6.57057 16.7653 6.7523C16.4388 6.9296 16.0826 7.01824 15.6918 7.01824H11.0416V7.01381Z" fill="#002B41"/>
<path d="M18.0037 7.00937C17.9564 7.00937 17.9138 6.99161 17.8807 6.96055C17.8475 6.92948 17.8286 6.88954 17.8286 6.84516V0.365385C17.8286 0.321003 17.8475 0.281059 17.8807 0.249992C17.9138 0.218925 17.9564 0.201172 18.0037 0.201172H23.7392C24.184 0.201172 24.591 0.289936 24.9695 0.467464C25.3481 0.644992 25.651 0.911284 25.8781 1.2619C26.1053 1.61252 26.2189 2.03415 26.2189 2.52679C26.2189 2.97505 26.1006 3.38336 25.8639 3.74729C25.6273 4.11122 25.315 4.39083 24.927 4.58611C25.386 5.45156 25.7598 6.21493 26.058 6.87622L26.0674 6.90729C26.0674 6.93392 26.058 6.95611 26.0343 6.97386C26.0154 6.99162 25.987 7.00493 25.9633 7.00493H23.5546C23.4836 7.00493 23.441 6.9783 23.4174 6.92504L22.4094 4.9678C22.3905 4.91454 22.3432 4.88791 22.2722 4.88791H20.455C20.3935 4.88791 20.3462 4.91898 20.3083 4.97667C20.2941 4.98999 20.2894 5.01662 20.2894 5.05656V6.84959C20.2894 6.87622 20.2846 6.90285 20.2704 6.92948C20.2421 6.98718 20.19 7.01824 20.1143 7.01824H18.0037V7.00937ZM23.3417 2.84634C23.4458 2.84634 23.5262 2.82415 23.5877 2.77533C23.6445 2.72651 23.6776 2.66437 23.6776 2.58448C23.6776 2.51347 23.6493 2.45134 23.5925 2.40252C23.5357 2.3537 23.4552 2.33151 23.3417 2.33151H20.5165C20.4881 2.33151 20.4597 2.34038 20.4219 2.36257C20.4029 2.38033 20.3887 2.40696 20.3887 2.42915V2.76201C20.3887 2.78864 20.3982 2.81083 20.4219 2.82859C20.4503 2.84634 20.4787 2.85965 20.5165 2.85965L23.3417 2.84634Z" fill="#002B41"/>
<path d="M26.9011 7.01824C26.858 7.01824 26.8244 7.00494 26.7909 6.97833C26.7573 6.95171 26.7429 6.92067 26.7429 6.88075V0.356408C26.7429 0.312055 26.7573 0.272137 26.7861 0.245525C26.8148 0.214478 26.8484 0.201172 26.8915 0.201172H34.4602C34.5033 0.201172 34.5369 0.214478 34.5656 0.245525C34.5944 0.276572 34.6088 0.312055 34.6088 0.356408V2.15714C34.6088 2.2015 34.5944 2.24141 34.5656 2.26803C34.5369 2.29907 34.5033 2.31238 34.4602 2.31238H29.3745C29.3313 2.31238 29.2978 2.32569 29.269 2.3523C29.2402 2.37891 29.2259 2.40996 29.2259 2.44987V2.71156C29.2259 2.75148 29.2402 2.78252 29.269 2.80913C29.2978 2.83575 29.3313 2.84905 29.3745 2.84905H34.4602C34.5033 2.84905 34.5369 2.86236 34.5656 2.89341C34.5944 2.92445 34.6088 2.9555 34.6088 2.99542V4.74737C34.6088 4.78728 34.5944 4.81833 34.5656 4.84938C34.5369 4.88042 34.5033 4.89373 34.4602 4.89373H29.3745C29.3313 4.89373 29.2978 4.90704 29.269 4.93365C29.2402 4.96026 29.2259 4.99131 29.2259 5.03123V6.88075C29.2259 6.92067 29.2115 6.95171 29.1779 6.97833C29.1444 7.00494 29.1108 7.01824 29.0677 7.01824H26.9011Z" fill="#002B41"/>
<path d="M3.08652 14.8795C3.03768 14.8795 2.99861 14.8662 2.96931 14.8352C2.94 14.8042 2.92535 14.7732 2.92535 14.7333V10.323C2.92535 10.2831 2.9107 10.2521 2.8814 10.2255C2.8521 10.1989 2.81791 10.1856 2.77396 10.1856H0.151396C0.117209 10.1856 0.0781396 10.1679 0.0439535 10.1368C0.0146512 10.1014 0 10.0659 0 10.0349V8.21317C0 8.18214 0.0146512 8.14668 0.0439535 8.10679C0.0732559 8.08019 0.107442 8.06689 0.151396 8.06689H8.23885C8.2828 8.06689 8.31699 8.08019 8.34629 8.10679C8.37559 8.14668 8.39024 8.18214 8.39024 8.21317V10.0349C8.39024 10.0659 8.37559 10.1014 8.34629 10.1413C8.3121 10.1723 8.27303 10.19 8.23885 10.19H5.6114C5.57722 10.19 5.54303 10.2033 5.50884 10.2299C5.47466 10.2565 5.46001 10.2875 5.46001 10.3274V14.7377C5.46001 14.7776 5.44536 14.8086 5.41605 14.8396C5.38675 14.8707 5.34768 14.884 5.29884 14.884H3.08652V14.8795Z" fill="#002B41"/>
<path d="M8.56547 14.8751C8.51815 14.8751 8.47556 14.8573 8.44243 14.8263C8.40931 14.7952 8.39038 14.7553 8.39038 14.7109V8.23111C8.39038 8.18673 8.40931 8.14678 8.44243 8.11571C8.47556 8.08465 8.51815 8.06689 8.56547 8.06689H14.3009C14.7458 8.06689 15.1527 8.15566 15.5313 8.33319C15.9099 8.51071 16.2128 8.77701 16.4399 9.12762C16.6671 9.47824 16.7806 9.89987 16.7806 10.3925C16.7806 10.8408 16.6623 11.2491 16.4257 11.613C16.1891 11.9769 15.8768 12.2566 15.4887 12.4518C15.9478 13.3173 16.3216 14.0807 16.6197 14.7419L16.6292 14.773C16.6292 14.7996 16.6197 14.8218 16.5961 14.8396C16.5771 14.8573 16.5487 14.8707 16.5251 14.8707H14.1164C14.0454 14.8707 14.0028 14.844 13.9791 14.7908L12.9712 12.8335C12.9523 12.7803 12.9049 12.7536 12.8339 12.7536H11.0168C10.9552 12.7536 10.9079 12.7847 10.8701 12.8424C10.8559 12.8557 10.8511 12.8823 10.8511 12.9223V14.7153C10.8511 14.7419 10.8464 14.7686 10.8322 14.7952C10.8038 14.8529 10.7518 14.884 10.676 14.884H8.56547V14.8751ZM13.9082 10.7121C14.0123 10.7121 14.0927 10.6899 14.1542 10.6411C14.211 10.5922 14.2441 10.5301 14.2441 10.4502C14.2441 10.3792 14.2158 10.3171 14.159 10.2682C14.1022 10.2194 14.0217 10.1972 13.9082 10.1972H11.083C11.0546 10.1972 11.0262 10.2061 10.9884 10.2283C10.9694 10.246 10.9552 10.2727 10.9552 10.2949V10.6277C10.9552 10.6544 10.9647 10.6766 10.9884 10.6943C11.0168 10.7121 11.0452 10.7254 11.083 10.7254L13.9082 10.7121Z" fill="#002B41"/>
<path d="M17.5601 14.884C17.4719 14.884 17.4082 14.8529 17.3591 14.7953C17.3101 14.7376 17.2954 14.6666 17.3101 14.5912L19.1922 8.231C19.2069 8.17778 19.2364 8.13786 19.2854 8.11125C19.3344 8.0802 19.3834 8.06689 19.4422 8.06689H23.5544C23.6133 8.06689 23.6672 8.08464 23.7162 8.11568C23.7652 8.14673 23.7946 8.18665 23.8044 8.231L25.6865 14.5912C25.7061 14.6711 25.6914 14.7376 25.6424 14.7953C25.5934 14.8529 25.5248 14.884 25.4366 14.884H23.2751C23.2163 14.884 23.1672 14.8707 23.1182 14.8396C23.0692 14.8086 23.0398 14.7686 23.0251 14.7199L22.8732 14.1921C22.8683 14.1654 22.8486 14.1433 22.8192 14.1255C22.7898 14.1078 22.7604 14.0945 22.7212 14.0945H20.2656C20.2313 14.0945 20.197 14.1034 20.1676 14.1255C20.1382 14.1433 20.1186 14.1699 20.1137 14.1921C20.099 14.2497 20.0843 14.2985 20.0696 14.3384C20.0549 14.3783 20.0451 14.4138 20.0353 14.4449C19.9863 14.6134 19.9569 14.7287 19.9471 14.7864C19.9274 14.8529 19.8735 14.884 19.7951 14.884H17.5601ZM22.0252 11.9833C22.0742 11.9833 22.1134 11.9655 22.1429 11.9301C22.1723 11.8946 22.1772 11.8502 22.1625 11.797L21.7017 10.2491C21.6968 10.2092 21.6674 10.1914 21.6135 10.1914H21.3782C21.3341 10.1914 21.3047 10.2092 21.29 10.2491L20.8293 11.797V11.8369C20.8293 11.8768 20.844 11.9079 20.8685 11.9389C20.893 11.97 20.9273 11.9833 20.9714 11.9833H22.0252Z" fill="#002B41"/>
<path d="M25.7387 14.8352C25.7098 14.8086 25.6953 14.7731 25.6953 14.7287V12.9191C25.6953 12.8748 25.7098 12.8393 25.7387 12.8127C25.758 12.7816 25.7917 12.7639 25.8351 12.7639H28.216C28.2642 12.7639 28.3028 12.7506 28.3317 12.724C28.3606 12.6974 28.3751 12.6663 28.3751 12.6264V10.3289C28.3751 10.289 28.3606 10.2579 28.3317 10.2313C28.3028 10.2047 28.2642 10.1914 28.216 10.1914H25.8351C25.7917 10.1914 25.7628 10.1781 25.7387 10.1515C25.7098 10.1249 25.6953 10.0894 25.6953 10.045V8.22213C25.6953 8.17778 25.7098 8.1423 25.7387 8.11568C25.758 8.08464 25.7917 8.06689 25.8351 8.06689H33.4118C33.4455 8.06689 33.484 8.08464 33.5178 8.11568C33.5467 8.1556 33.5612 8.19108 33.5612 8.22213V10.045C33.5612 10.0761 33.5467 10.1116 33.5178 10.1515C33.4889 10.1781 33.4551 10.1914 33.4118 10.1914H31.0308C30.9971 10.1914 30.9633 10.2047 30.9296 10.2358C30.8958 10.2668 30.8814 10.2979 30.8814 10.3289V12.6264C30.8814 12.6663 30.8958 12.6974 30.9296 12.724C30.9633 12.7506 30.9971 12.7639 31.0308 12.7639H33.4118C33.4455 12.7639 33.484 12.7816 33.5178 12.8127C33.5467 12.8526 33.5612 12.8881 33.5612 12.9191V14.7287C33.5612 14.7598 33.5467 14.7953 33.5178 14.8352C33.484 14.8662 33.4455 14.884 33.4118 14.884H25.8351C25.7917 14.884 25.7628 14.8707 25.7387 14.8352Z" fill="#002B41"/>
<path d="M39.8917 12.5288C39.8965 12.5466 39.9157 12.5554 39.9397 12.551C39.9637 12.5466 39.978 12.5377 39.978 12.5155V8.22213C39.978 8.17778 39.9924 8.13786 40.026 8.11125C40.0595 8.0802 40.0931 8.06689 40.1363 8.06689H42.3177C42.3609 8.06689 42.3944 8.0802 42.428 8.11125C42.4616 8.14229 42.4759 8.17778 42.4759 8.22213V14.7465C42.4759 14.7864 42.4616 14.8174 42.428 14.844C42.3944 14.8707 42.3609 14.884 42.3273 14.884L38.1034 14.8751C38.0267 14.8751 37.9788 14.844 37.9548 14.7775L36.6891 10.4043C36.6843 10.3777 36.6651 10.3688 36.6315 10.3688C36.598 10.3733 36.5836 10.3866 36.5836 10.4132V14.7376C36.5836 14.7775 36.5692 14.8086 36.5404 14.8396C36.5117 14.8707 36.4733 14.884 36.4254 14.884H34.2439C34.2008 14.884 34.1672 14.8707 34.1336 14.8396C34.1001 14.8086 34.0857 14.7775 34.0857 14.7376V8.20439C34.0857 8.17334 34.1001 8.14229 34.1288 8.11125C34.1576 8.0802 34.1912 8.06689 34.2343 8.06689H38.487C38.5589 8.06689 38.602 8.09794 38.626 8.16447L39.8917 12.5288Z" fill="#002B41"/>
<path d="M27.8739 23.7985C27.4787 23.7985 27.119 23.7099 26.7846 23.5326C26.4502 23.3553 26.1868 23.1159 25.9892 22.8101C25.7916 22.5087 25.6953 22.1807 25.6953 21.8217V18.9583C25.6953 18.5993 25.7916 18.2713 25.9892 17.9699C26.1868 17.6685 26.4502 17.4291 26.7846 17.2474C27.119 17.0701 27.4838 16.9814 27.8739 16.9814H33.8728C33.9336 16.9814 33.9842 16.9992 34.0248 17.0346C34.0653 17.0701 34.0856 17.1144 34.0856 17.1676V18.9273C34.0856 18.9805 34.0653 19.0248 34.0248 19.0603C33.9842 19.0957 33.9336 19.1134 33.8728 19.1134H28.5427C28.4819 19.1134 28.4313 19.1312 28.3907 19.1666C28.3502 19.2021 28.3299 19.2464 28.3299 19.2996V21.4316C28.3299 21.4848 28.3502 21.5291 28.3907 21.5646C28.4313 21.6 28.4819 21.6178 28.5427 21.6178H33.8728C33.9336 21.6178 33.9842 21.6355 34.0248 21.671C34.0653 21.7064 34.0856 21.7507 34.0856 21.8039V23.6124C34.0856 23.6655 34.0653 23.7099 34.0248 23.7453C33.9842 23.7808 33.9336 23.7985 33.8728 23.7985H27.8739Z" fill="#002B41"/>
<path d="M36.2177 23.7985C35.8309 23.7985 35.4789 23.7098 35.1517 23.5324C34.8244 23.355 34.5666 23.1155 34.3733 22.8094C34.1799 22.5078 34.0857 22.1796 34.0857 21.8204V18.9685C34.0857 18.6048 34.1799 18.2721 34.3733 17.9705C34.5666 17.6689 34.8244 17.4294 35.1517 17.2476C35.4789 17.0702 35.8359 16.9814 36.2177 16.9814H40.8684C41.26 16.9814 41.622 17.0702 41.9443 17.2476C42.2715 17.425 42.5293 17.6645 42.7177 17.9705C42.9061 18.2721 43.0003 18.6048 43.0003 18.9685V21.8204C43.0003 22.1796 42.9061 22.5078 42.7177 22.8094C42.5293 23.111 42.2715 23.3506 41.9443 23.5324C41.617 23.7098 41.26 23.7985 40.8684 23.7985H36.2177ZM40.0602 21.5099C40.1593 21.5099 40.2486 21.4744 40.323 21.4079C40.3973 21.3414 40.432 21.2526 40.432 21.1506V19.6027C40.432 19.5007 40.3973 19.412 40.323 19.341C40.2486 19.2701 40.1643 19.2346 40.0602 19.2346H37.0457C36.9415 19.2346 36.8573 19.2701 36.7779 19.341C36.7036 19.412 36.6639 19.5007 36.6639 19.6027V21.1506C36.6639 21.2526 36.7036 21.3414 36.7779 21.4079C36.8523 21.4744 36.9415 21.5099 37.0457 21.5099H40.0602Z" fill="#002B41"/>
</svg>
