<svg width="33" height="33" viewBox="0 0 33 33" fill="none" xmlns="http://www.w3.org/2000/svg">
<g clip-path="url(#clip0_1_2127)">
<path d="M0 0.0623169H33V32.0623H0V0.0623169Z" fill="white"/>
<path d="M24.1403 4.66653L24.1391 4.09747C24.1392 3.96615 24.1296 3.82681 24.1456 3.69646C24.1731 3.47339 24.3001 3.24752 24.4667 3.08873C24.6781 2.88723 24.983 2.77254 25.2836 2.77419C25.5911 2.77587 25.8605 2.90542 26.0728 3.10853C26.3517 3.3752 26.3654 3.66899 26.3671 4.02099L26.3706 4.66762L28.0204 4.67184C28.4235 4.67248 28.8682 4.63249 29.26 4.7235C29.6328 4.81008 29.9554 4.98855 30.2276 5.24181C30.4958 5.49143 30.6836 5.82417 30.759 6.17162C30.8145 6.42734 30.797 6.70036 30.7966 6.96008L30.7946 7.96532L30.8 11.4372L2.20444 11.4521L2.2042 8.0144L2.20384 6.95371C2.20393 6.76833 2.1903 6.57131 2.21356 6.38762C2.27185 5.92728 2.48831 5.50592 2.84678 5.18463C3.09187 4.96496 3.39474 4.80362 3.72311 4.72377C4.16971 4.61515 4.67602 4.65729 5.13548 4.65759L6.66961 4.6645L6.66896 4.07283C6.67065 3.69376 6.67501 3.38219 6.97564 3.097C7.1958 2.88815 7.47804 2.77846 7.79086 2.78087C8.09766 2.78323 8.37592 2.89722 8.58784 3.1049C8.90952 3.42013 8.89523 3.75694 8.89572 4.16541C8.89591 4.32697 8.90609 4.49373 8.89549 4.65441L8.89416 4.66235L12.4856 4.65671L12.4854 4.11351C12.4856 3.98243 12.4743 3.83976 12.4932 3.71001C12.527 3.47824 12.6479 3.25875 12.8218 3.09244C13.0257 2.8975 13.317 2.78624 13.6075 2.78399C13.9234 2.78154 14.2066 2.89574 14.4276 3.10488C14.588 3.25677 14.7221 3.46869 14.7449 3.68509C14.7587 3.81448 14.7499 3.95196 14.7505 4.08201L14.7528 4.6602L18.2692 4.66511L18.261 4.04497C18.2602 3.8936 18.2487 3.73493 18.2889 3.58705C18.3382 3.40597 18.4588 3.2292 18.5949 3.09399C18.7861 2.90403 19.0851 2.78156 19.3632 2.778C19.6792 2.77394 19.9759 2.8862 20.1996 3.09512C20.5058 3.38111 20.5168 3.69967 20.5174 4.08165L20.5169 4.66693L24.1403 4.66653Z" fill="url(#paint0_linear_1_2127)"/>
<path d="M8.84691 5.48605L8.98088 5.63668C9.26846 5.97054 9.38708 6.36467 9.34004 6.79551C9.29336 7.22312 9.06751 7.5955 8.71843 7.86277C8.3911 8.11342 7.96 8.2354 7.54311 8.18929C7.0968 8.13988 6.69707 7.91645 6.42226 7.57553C6.17443 7.26807 6.00312 6.82979 6.06152 6.43687L6.06591 6.40898C6.12019 6.046 6.31114 5.76199 6.56475 5.49713L6.57267 6.22698C6.57766 6.67337 6.57082 7.02767 6.92446 7.36321C7.15952 7.58623 7.43703 7.68045 7.76374 7.67751C8.04897 7.67492 8.32642 7.55214 8.5251 7.35843C8.68977 7.1979 8.8136 6.96693 8.84067 6.74211C8.85817 6.59693 8.84431 6.43351 8.84467 6.28649L8.84691 5.48605Z" fill="white"/>
<path d="M14.8799 5.48605L14.9713 5.57032C15.1858 5.77405 15.3349 6.03563 15.3798 6.32366L15.384 6.34909C15.4435 6.74153 15.335 7.20793 15.0847 7.52565C14.8081 7.87675 14.4252 8.12328 13.9679 8.18424C13.5327 8.24224 13.1019 8.12611 12.7542 7.86748C12.4006 7.60451 12.1651 7.22347 12.1117 6.79171C12.0633 6.40144 12.1646 6.00567 12.4205 5.69765L12.6195 5.49675L12.6187 6.29326C12.6182 6.67486 12.598 7.03504 12.8863 7.33494C13.1059 7.56332 13.3941 7.69235 13.7173 7.70065C14.0204 7.70846 14.3011 7.59829 14.5191 7.39668C14.7166 7.21399 14.8527 6.98975 14.8791 6.72363C14.894 6.57253 14.8784 6.42074 14.8773 6.26923L14.8799 5.48605Z" fill="white"/>
<path d="M20.3731 5.48605C20.4697 5.58073 20.5723 5.67509 20.6521 5.78397C20.8117 6.00182 20.8995 6.29167 20.9 6.55763C20.9008 6.98663 20.7305 7.42016 20.4155 7.72533C20.1441 7.98829 19.8079 8.1383 19.4299 8.18635C19.0103 8.23967 18.5712 8.12093 18.2399 7.86625C17.8996 7.60464 17.6567 7.1953 17.61 6.77439C17.5677 6.39211 17.6573 6.01044 17.9126 5.71076L18.116 5.50591L18.1175 6.27864C18.1166 6.43463 18.103 6.60313 18.1253 6.75746L18.1294 6.78311C18.1636 7.01073 18.2611 7.19853 18.4245 7.36473C18.6299 7.57362 18.9174 7.71023 19.2181 7.7119C19.5242 7.71358 19.8429 7.58342 20.0579 7.37338C20.2503 7.18531 20.3696 6.91451 20.3858 6.65137C20.3943 6.51234 20.3741 6.37173 20.3724 6.23251L20.3731 5.48605Z" fill="white"/>
<path d="M26.4101 5.48605C26.6599 5.68228 26.8307 5.91198 26.9053 6.21778C27.0019 6.61321 26.9427 7.07195 26.7215 7.42145C26.4949 7.77945 26.1206 8.05788 25.693 8.15519C25.2661 8.25234 24.8178 8.18745 24.4465 7.96069C24.0581 7.72342 23.784 7.34243 23.6881 6.91027C23.6424 6.70455 23.6364 6.49151 23.6779 6.28484L23.6836 6.25449C23.7351 5.99047 23.9213 5.66043 24.1615 5.51195L24.1785 5.50184C24.2055 5.75456 24.1916 6.03571 24.1841 6.29031C24.1723 6.68864 24.1672 7.03489 24.4652 7.34846C24.665 7.55865 24.9428 7.67846 25.238 7.69048C25.5439 7.70293 25.8265 7.62077 26.0541 7.41901C26.2363 7.25745 26.3905 7.0318 26.4163 6.78947C26.4339 6.62374 26.4127 6.4535 26.4097 6.28716L26.4101 5.48605Z" fill="white"/>
<path d="M6.61002 4.67465L6.60939 4.0777C6.61104 3.69525 6.61532 3.38089 6.91032 3.09316C7.12637 2.88245 7.40332 2.77178 7.71029 2.77421C8.01135 2.77659 8.2844 2.8916 8.49236 3.10113C8.80802 3.41917 8.79399 3.75899 8.79447 4.17111C8.79466 4.33411 8.80465 4.50236 8.79425 4.66447L8.79295 4.67248L8.79745 5.53774L8.7953 6.31124C8.79495 6.45332 8.80827 6.61123 8.79146 6.75153C8.76544 6.96879 8.64644 7.19198 8.4882 7.34711C8.29728 7.5343 8.03067 7.65295 7.75657 7.65546C7.44263 7.6583 7.17595 7.56724 6.95008 7.35173C6.61024 7.02749 6.61681 6.6851 6.61202 6.25374L6.60441 5.54845C6.59486 5.461 6.60371 5.36233 6.60377 5.27354L6.61002 4.67465Z" fill="url(#paint1_linear_1_2127)"/>
<path d="M24.2211 4.67644L24.2199 4.1044C24.22 3.97238 24.2107 3.83232 24.2262 3.70128C24.2528 3.47705 24.3758 3.25 24.5371 3.09038C24.7418 2.88782 25.0371 2.77254 25.3281 2.77419C25.6259 2.77588 25.8867 2.90611 26.0923 3.11028C26.3623 3.37835 26.3756 3.67367 26.3773 4.02751L26.3806 4.67753C26.3942 4.93629 26.4141 5.22306 26.385 5.48039L26.3845 6.27041C26.3874 6.43445 26.4081 6.60234 26.391 6.76577C26.3659 7.00475 26.2159 7.22728 26.0387 7.3866C25.8174 7.58557 25.5427 7.6666 25.2452 7.65432C24.9582 7.64246 24.688 7.52431 24.4938 7.31702C24.204 7.0078 24.2089 6.66633 24.2204 6.27352C24.2277 6.02244 24.2412 5.74518 24.2149 5.49596L24.2136 5.47746C24.1881 5.21623 24.203 4.93846 24.2211 4.67644Z" fill="url(#paint2_linear_1_2127)"/>
<path d="M12.6558 4.65625L12.6556 4.11035C12.6558 3.97861 12.6449 3.83523 12.6631 3.70484C12.6957 3.47192 12.8121 3.25133 12.9796 3.0842C13.176 2.88829 13.4565 2.77647 13.7363 2.77421C14.0405 2.77175 14.3133 2.88652 14.5261 3.0967C14.6806 3.24935 14.8097 3.46232 14.8317 3.67979C14.8449 3.80982 14.8365 3.94799 14.8371 4.07869L14.8392 4.65975L14.8496 5.19252C14.8491 5.28901 14.8544 5.38937 14.8373 5.48458L14.8347 6.25218C14.8358 6.40068 14.8509 6.54945 14.8364 6.69754C14.8109 6.95837 14.6793 7.17815 14.4883 7.35721C14.2774 7.55481 14.0061 7.66279 13.7129 7.65514C13.4004 7.64701 13.1217 7.52054 12.9093 7.2967C12.6305 7.00276 12.65 6.64974 12.6505 6.27573L12.6513 5.49506L12.6558 4.65625Z" fill="url(#paint3_linear_1_2127)"/>
<path d="M18.1751 4.66686L18.1673 4.04492C18.1665 3.89311 18.1556 3.73398 18.1939 3.58567C18.2409 3.40407 18.356 3.22679 18.4859 3.09119C18.6683 2.90067 18.9536 2.77785 19.2188 2.77428C19.5203 2.77021 19.8034 2.88279 20.0168 3.09232C20.3089 3.37914 20.3195 3.69862 20.32 4.08171L20.3195 4.66868L20.3358 5.47386L20.3351 6.20549C20.3367 6.34195 20.3562 6.47977 20.348 6.61603C20.3324 6.87395 20.2175 7.13937 20.032 7.32371C19.8249 7.52957 19.5178 7.65715 19.2228 7.65551C18.9331 7.65386 18.6561 7.51997 18.4581 7.31523C18.3006 7.15232 18.2067 6.96826 18.1738 6.74516L18.1698 6.72002C18.1483 6.56876 18.1614 6.4036 18.1623 6.2507L18.1609 5.49332C18.1618 5.22367 18.1281 4.9331 18.1751 4.66686Z" fill="url(#paint4_linear_1_2127)"/>
<path d="M2.2069 11.9979L30.7902 11.9945L30.7982 22.9238L30.8 26.183L30.798 27.0759C30.7978 27.2677 30.8084 27.469 30.7804 27.6589C30.7159 28.0961 30.5085 28.4565 30.2012 28.7786L30.1882 28.7913C29.8862 29.0766 29.4854 29.2757 29.0637 29.3258C28.7848 29.3589 28.4864 29.3403 28.205 29.3407L26.6585 29.3422L21.5642 29.3474L5.52666 29.3504L4.62642 29.3482C4.35059 29.3472 4.07291 29.3539 3.8028 29.2913C3.44679 29.2087 3.09335 29.0085 2.83718 28.759C2.51046 28.4407 2.28354 28.0323 2.21728 27.5878C2.19025 27.4065 2.20281 27.2153 2.20322 27.0322L2.20351 26.1356L2.20402 22.9898L2.2069 11.9979Z" fill="url(#paint5_linear_1_2127)"/>
<path d="M3.85367 13.0793L29.1353 13.0811L29.142 22.6864L29.1425 25.5029L29.1456 26.2448C29.1472 26.413 29.1589 26.5895 29.1357 26.7563C29.1041 26.984 28.9664 27.195 28.8153 27.3672C28.6318 27.5327 28.4379 27.649 28.1867 27.6959C27.9503 27.7401 27.6839 27.7176 27.443 27.7174L26.1488 27.7165L21.3723 27.7185L10.4273 27.7194L6.77839 27.7193L4.90886 27.7154C4.70289 27.7073 4.52071 27.6473 4.3515 27.536C4.12769 27.3888 3.91628 27.1272 3.86994 26.8649L3.866 26.8408C3.84077 26.6945 3.85274 26.5369 3.85329 26.3885L3.85431 25.6362L3.85633 22.871L3.85367 13.0793Z" fill="white"/>
<path d="M24.0132 14.7154C24.2186 14.6999 24.4308 14.7104 24.6372 14.7103L25.7696 14.7101L26.3664 14.7097C26.4449 14.7097 26.5549 14.6972 26.63 14.7208C26.7537 14.7596 26.8454 14.8343 26.9022 14.949C26.9259 14.997 26.9411 15.0546 26.9432 15.1078L26.9389 16.6201L26.9444 17.2383C26.9462 17.3533 26.9553 17.4746 26.9456 17.5892C26.9431 17.6184 26.9355 17.645 26.9239 17.6721L26.9144 17.692L26.9056 17.7116C26.8481 17.832 26.734 17.8982 26.6106 17.9395C26.4803 17.9709 26.3274 17.9567 26.1932 17.9565L25.5364 17.9563L24.622 17.9578C24.4547 17.9579 24.2825 17.966 24.1156 17.9543C24.0513 17.9498 23.9905 17.9342 23.9321 17.9074C23.8155 17.8539 23.7294 17.7581 23.6863 17.6394C23.6716 17.5988 23.6622 17.5561 23.6598 17.5131C23.6372 17.102 23.661 16.6767 23.6601 16.2639L23.6586 15.53C23.6584 15.3955 23.6508 15.2563 23.6629 15.1225C23.6685 15.0606 23.688 14.9976 23.7174 14.9426C23.7823 14.8209 23.8838 14.7561 24.0132 14.7154Z" fill="url(#paint6_linear_1_2127)"/>
<path d="M24.0989 19.0507C24.2397 19.0404 24.3862 19.0481 24.5276 19.0483L25.302 19.0497L26.081 19.0517C26.2216 19.0522 26.3659 19.0456 26.5059 19.0568C26.5668 19.0616 26.6139 19.0749 26.6682 19.1018C26.7993 19.1667 26.8801 19.2708 26.9249 19.4058C26.9658 19.5291 26.9447 19.6877 26.9437 19.8172L26.9433 20.4062L26.9451 21.3694C26.9452 21.5332 26.9539 21.7017 26.9442 21.865C26.9405 21.9269 26.9164 21.9903 26.8857 22.0441C26.8063 22.1834 26.6686 22.2606 26.5152 22.2996L24.8009 22.2913C24.5789 22.292 24.3477 22.3051 24.1268 22.2892C24.0579 22.2843 23.9992 22.2701 23.9377 22.2387C23.7966 22.1667 23.7111 22.0486 23.6698 21.9015C23.638 21.7885 23.6539 21.6484 23.6547 21.5319L23.6551 20.9628L23.6553 20.0172C23.6554 19.8575 23.6459 19.6916 23.6589 19.5325C23.6658 19.4479 23.6855 19.3726 23.7304 19.299C23.8163 19.1581 23.9414 19.0897 24.0989 19.0507Z" fill="url(#paint7_linear_1_2127)"/>
<path d="M24.2 19.5877L26.4 19.599L26.3985 21.7547L24.2011 21.758L24.2 19.5877Z" fill="white"/>
<path d="M5.91253 14.7178C6.06244 14.7042 6.22029 14.7125 6.37117 14.7122L7.17464 14.7107L8.251 14.709C8.44654 14.7087 8.64762 14.7011 8.84269 14.7132C8.8969 14.7165 8.94879 14.7291 8.99861 14.7477C9.13778 14.7998 9.25888 14.8956 9.30956 15.0209C9.37514 15.1829 9.34115 15.4298 9.3415 15.6039L9.34194 16.6218L9.34204 17.2236C9.34177 17.3253 9.35111 17.4349 9.33847 17.5353C9.33267 17.5812 9.30774 17.6289 9.28419 17.6698C9.20514 17.8068 9.06749 17.8904 8.90435 17.9407C8.75976 17.967 8.59443 17.9523 8.44624 17.9522L7.62064 17.952L6.52341 17.9525C6.34294 17.9529 6.08675 17.9794 5.91548 17.9345C5.76553 17.8953 5.63063 17.8091 5.559 17.6877C5.52755 17.6344 5.50832 17.5709 5.50344 17.5113C5.49472 17.4049 5.50519 17.2924 5.50626 17.1853L5.5087 16.5759L5.50042 15.1678C5.50224 15.1168 5.51261 15.0647 5.53373 15.0169C5.60123 14.8642 5.74613 14.7801 5.91253 14.7178Z" fill="url(#paint8_linear_1_2127)"/>
<path d="M17.0927 14.7125L17.7215 14.709C17.9207 14.7082 18.1287 14.6891 18.3131 14.7669C18.4754 14.8354 18.604 14.9664 18.6585 15.1131L18.6672 15.1377C18.7228 15.2909 18.6907 15.5159 18.6912 15.6778L18.6935 16.7146L18.6937 17.2254C18.6936 17.306 18.7016 17.3933 18.6912 17.4734C18.6829 17.5369 18.6569 17.6033 18.6235 17.6606C18.5466 17.7926 18.4052 17.8849 18.2426 17.929L18.2139 17.9364C18.0456 17.9806 17.8024 17.9508 17.6222 17.9504L16.4542 17.9482L15.864 17.9503C15.5784 17.9509 15.2497 17.9907 15.0302 17.7974C14.9082 17.6899 14.8558 17.5534 14.8541 17.4058L14.8528 15.8826L14.8518 15.386C14.8518 15.2973 14.8439 15.2023 14.8607 15.1145C14.8801 15.0136 14.9303 14.9313 15.0165 14.8601C15.1008 14.7904 15.2177 14.7415 15.333 14.7238C15.5004 14.6982 15.7036 14.7175 15.8758 14.7171L17.0927 14.7125Z" fill="url(#paint9_linear_1_2127)"/>
<path d="M17.3953 15.2546L18.15 15.2487L18.149 17.4172L16.1525 17.4164L15.6655 17.4178C15.6188 17.4175 15.5449 17.4255 15.5059 17.4039C15.454 17.3751 15.4219 17.3369 15.4143 17.2853C15.3934 17.1446 15.4127 16.9841 15.4127 16.8409C15.4127 16.6513 15.3819 15.4167 15.4164 15.3497C15.4215 15.3397 15.4468 15.3143 15.4537 15.3081C15.4808 15.2835 15.529 15.2639 15.5682 15.26C15.7595 15.2407 15.9808 15.258 16.1748 15.2583L17.3953 15.2546Z" fill="white"/>
<path d="M26.411 23.3843C26.5588 23.3901 26.6748 23.4129 26.7861 23.5362C26.895 23.6569 26.9457 23.8131 26.9482 23.9833L26.9487 25.7921L26.9483 26.3417C26.9481 26.4494 26.9561 26.5673 26.9394 26.6734C26.9189 26.8035 26.8539 26.9263 26.771 27.019C26.697 27.1018 26.5989 27.1498 26.4972 27.1707C26.4174 27.1872 26.3263 27.1788 26.2449 27.1788L25.7839 27.1783H24.187C24.0486 27.1625 23.9352 27.1273 23.8293 27.0197C23.714 26.9026 23.6559 26.7465 23.6526 26.5732L23.6511 24.7484L23.6518 24.2058C23.652 24.1023 23.644 23.9906 23.6607 23.8885C23.6802 23.7695 23.7309 23.6595 23.8077 23.5743C23.8774 23.4971 23.9632 23.4248 24.0605 23.4005C24.1464 23.3791 24.2431 23.3873 24.331 23.3881L24.7714 23.3905L26.411 23.3843Z" fill="url(#paint10_linear_1_2127)"/>
<path d="M12.3757 14.7203L13.3861 14.7138C13.529 14.713 13.7033 14.6941 13.8417 14.72C13.944 14.7391 14.0447 14.7869 14.1192 14.8509C14.2442 14.958 14.2951 15.0865 14.296 15.2359L14.2976 16.8877L14.2971 17.3272C14.2971 17.3951 14.3063 17.4739 14.2916 17.5404C14.2684 17.6451 14.2098 17.7356 14.1233 17.81C14.0393 17.8823 13.9419 17.9236 13.8264 17.9432C13.6792 17.9681 13.5054 17.9533 13.355 17.9532L12.4088 17.9523L11.4681 17.9551C11.2764 17.9554 11.0412 17.9782 10.8581 17.929C10.7002 17.8866 10.5643 17.7798 10.4974 17.6483C10.4229 17.5016 10.4583 17.2707 10.4589 17.1095L10.4635 16.2315C10.4639 15.8834 10.4374 15.5219 10.4666 15.1759C10.4716 15.1162 10.4882 15.0616 10.517 15.007C10.5762 14.895 10.7097 14.798 10.8425 14.7596L10.8677 14.7527C11.0344 14.7047 11.2514 14.7287 11.4274 14.7276L12.3757 14.7203Z" fill="url(#paint11_linear_1_2127)"/>
<path d="M19.8585 14.7149L21.8127 14.71L22.3872 14.709C22.4897 14.7088 22.5984 14.7017 22.7 14.7118C22.7733 14.7192 22.8505 14.7554 22.9074 14.7948C23.0115 14.8669 23.0787 14.9779 23.0909 15.0927C23.1063 15.2369 23.0943 15.391 23.0946 15.5366L23.0959 16.3894L23.0963 17.1556C23.0963 17.2871 23.1079 17.4296 23.0901 17.5598C23.0784 17.6459 23.0172 17.7425 22.9506 17.8061C22.8306 17.9206 22.6832 17.9534 22.5114 17.9606L19.7814 17.9542C19.6293 17.9412 19.4934 17.871 19.4002 17.7675C19.3348 17.6948 19.2868 17.6072 19.2693 17.5164C19.2351 17.3396 19.2567 17.1325 19.2573 16.9521L19.2617 15.8785L19.2585 15.4889C19.2559 15.3942 19.245 15.2948 19.263 15.2009L19.2673 15.1803C19.2833 15.097 19.3173 15.0283 19.3744 14.959C19.4914 14.817 19.6644 14.7462 19.8585 14.7149Z" fill="url(#paint12_linear_1_2127)"/>
<path d="M5.95545 19.0596C6.47574 19.0304 7.01525 19.055 7.53747 19.0554L8.40169 19.0549C8.57357 19.055 8.79108 19.034 8.95428 19.0822C9.10773 19.1274 9.24011 19.2342 9.30506 19.3601C9.32812 19.4047 9.34257 19.4513 9.34504 19.5001L9.34645 21.0221L9.34648 21.5998C9.34648 21.7031 9.3646 21.8322 9.31862 21.9287L9.30795 21.9493L9.26845 22.0209C9.17567 22.1631 9.03086 22.2349 8.85422 22.2817C8.70976 22.2981 8.55727 22.2898 8.41154 22.289L7.66162 22.2863C7.1499 22.286 6.62617 22.3129 6.11597 22.2909C6.02411 22.2869 5.93208 22.2798 5.84767 22.2466C5.7053 22.1907 5.591 22.0918 5.54279 21.9638C5.50786 21.871 5.51428 21.7801 5.51462 21.6841L5.51606 21.2729L5.51417 20.1593C5.51345 19.9471 5.48782 19.7204 5.50728 19.5103C5.51407 19.4368 5.53593 19.3647 5.57735 19.2996C5.66117 19.1677 5.79438 19.1034 5.95545 19.0596Z" fill="url(#paint13_linear_1_2127)"/>
<path d="M15.3246 19.0543C15.7146 19.0344 16.1175 19.0539 16.5093 19.0537L17.6354 19.0534C17.8358 19.0534 18.1081 19.0268 18.2989 19.0778C18.4376 19.1148 18.5547 19.2055 18.6205 19.315C18.6541 19.371 18.6782 19.4348 18.683 19.4977C18.7041 19.7706 18.6833 20.0556 18.6843 20.33L18.6882 21.3995C18.6887 21.5542 18.725 21.7905 18.6677 21.9363L18.6592 21.9561L18.6323 22.0151C18.5517 22.1559 18.405 22.2389 18.2341 22.2849C18.105 22.3052 17.9605 22.2918 17.829 22.291L17.1801 22.2921L15.9561 22.2946C15.7625 22.2949 15.5603 22.3062 15.368 22.2937C15.2929 22.2888 15.2141 22.2656 15.1483 22.235C15.0111 22.1713 14.908 22.0661 14.8689 21.937C14.8385 21.8362 14.8539 21.7095 14.8537 21.6058L14.8544 20.8867L14.8553 19.9869C14.8557 19.8304 14.8454 19.6672 14.8604 19.5114C14.8684 19.4291 14.8907 19.3486 14.9417 19.2773C15.0305 19.1531 15.1618 19.0865 15.3246 19.0543Z" fill="url(#paint14_linear_1_2127)"/>
<path d="M19.7191 19.0562C20.0447 19.0323 20.3907 19.0553 20.719 19.0555L21.9236 19.0557L22.369 19.0563C22.4859 19.0566 22.6166 19.053 22.7268 19.0903C22.8737 19.1401 22.9897 19.2411 23.0507 19.365C23.0748 19.4139 23.0914 19.4689 23.0959 19.5219C23.1062 19.6421 23.0939 19.7687 23.092 19.8895L23.0891 20.5278L23.0901 21.4021C23.0903 21.5568 23.1002 21.7169 23.0877 21.871C23.0843 21.9135 23.0677 21.9567 23.0471 21.9953C22.9627 22.1535 22.8122 22.2345 22.627 22.2897C22.4971 22.3074 22.3567 22.2963 22.2249 22.2946L21.5773 22.2893L20.3011 22.2893L19.9911 22.2917C19.893 22.295 19.7943 22.307 19.6995 22.2791C19.5224 22.2268 19.3871 22.1254 19.312 21.9776C19.2839 21.9223 19.2672 21.8639 19.2617 21.8039C19.2337 21.4976 19.2645 21.1739 19.266 20.8655L19.2736 19.4897C19.2762 19.4399 19.2927 19.3897 19.3168 19.3443C19.3953 19.1961 19.5482 19.1112 19.7191 19.0562Z" fill="url(#paint15_linear_1_2127)"/>
<path d="M14.8599 26.2352L14.8563 25.6696L14.8545 24.7108L14.8536 24.1072C14.8535 24.0007 14.8421 23.8831 14.8602 23.778C14.8737 23.6994 14.9293 23.6172 14.9912 23.5588C15.0998 23.4564 15.228 23.394 15.3936 23.3871L17.0816 23.3852L17.7892 23.3861C17.9213 23.3863 18.0635 23.3792 18.1945 23.3921C18.3063 23.403 18.4237 23.4494 18.5051 23.5135C18.5919 23.5819 18.6607 23.6738 18.6822 23.7729C18.7002 23.8562 18.6926 23.9473 18.6927 24.0318L18.6931 24.4767L18.7 26.1378C18.6729 26.3041 18.6216 26.4284 18.4532 26.5353C18.3786 26.5827 18.2748 26.6216 18.1812 26.6307C18.0239 26.646 17.8507 26.6343 17.6919 26.6342L16.6747 26.6332L15.83 26.6338C15.6724 26.6342 15.4934 26.6475 15.3392 26.6225C15.1799 26.5966 15.0233 26.5121 14.9366 26.3956C14.9007 26.3471 14.8771 26.2902 14.8599 26.2352Z" fill="url(#paint16_linear_1_2127)"/>
<path d="M6.12882 23.3948L8.04702 23.3975C8.30795 23.3978 8.61065 23.3637 8.86599 23.404C8.94526 23.4165 9.02875 23.4589 9.09311 23.5044C9.21022 23.5874 9.31895 23.7334 9.33976 23.8741C9.35975 24.0091 9.34433 24.1651 9.34429 24.3021L9.34381 25.1814L9.34299 26.1808C9.34319 26.3509 9.35707 26.5353 9.34014 26.7038C9.3311 26.7937 9.2857 26.8865 9.22859 26.9565C9.102 27.1118 8.93211 27.1567 8.73978 27.1764L6.84542 27.1793L6.32179 27.1793C6.21739 27.1792 6.10594 27.1871 6.00288 27.169C5.90363 27.1515 5.80579 27.1016 5.73081 27.036C5.59433 26.9167 5.51545 26.7781 5.50449 26.5966C5.49388 26.4204 5.50525 26.2396 5.50635 26.0629L5.50741 25.0833L5.50432 24.3473C5.50298 24.1913 5.49038 24.0256 5.51765 23.8715C5.53654 23.7647 5.59389 23.6593 5.66992 23.5803C5.8087 23.436 5.93557 23.4069 6.12882 23.3948Z" fill="url(#paint17_linear_1_2127)"/>
<path d="M6.15927 23.9391C6.23895 23.92 6.34008 23.9287 6.42399 23.9285L6.94116 23.9279L8.60309 23.9297C8.68785 23.9318 8.71603 23.9364 8.77507 23.9863C8.82178 24.1503 8.78863 24.3674 8.78877 24.5396L8.78802 25.5838L8.78724 25.8637C8.78699 25.9258 8.79474 25.9975 8.75892 26.0546C8.74014 26.0844 8.72638 26.0806 8.68906 26.0916L6.73591 26.0898C6.61821 26.0898 6.22074 26.1114 6.14572 26.0795C6.12558 26.0709 6.11015 26.0567 6.09236 26.0453C6.05878 25.9827 6.06746 25.9167 6.06753 25.8499L6.06792 25.5353L6.06579 24.4732C6.06533 24.3397 6.03459 24.1735 6.06027 24.0447C6.07134 23.989 6.10499 23.9687 6.15927 23.9391Z" fill="white"/>
<path d="M19.7298 23.403C20.1545 23.3659 20.6039 23.3957 21.0313 23.3953L22.0537 23.3948C22.2454 23.3948 22.4975 23.3645 22.6774 23.4273C22.84 23.484 22.9756 23.6106 23.0465 23.7641C23.0735 23.8226 23.0893 23.8841 23.094 23.948C23.1057 24.1063 23.0967 24.2704 23.0968 24.4293L23.0972 25.347L23.0968 26.1645C23.0966 26.3183 23.1054 26.4767 23.0912 26.6297C23.085 26.697 23.0693 26.7597 23.0423 26.822C22.9624 27.0064 22.8101 27.0944 22.6298 27.1663C22.4897 27.1871 22.3405 27.1774 22.1988 27.1777L21.4746 27.1782L20.3995 27.1782C20.2109 27.1779 20.0167 27.1863 19.8286 27.1751C19.7701 27.1717 19.7082 27.1579 19.6538 27.1365C19.4994 27.0757 19.3587 26.9344 19.2995 26.7823C19.2283 26.5993 19.2618 26.3402 19.2615 26.1439L19.2606 25.2216C19.2606 24.8021 19.2348 24.3643 19.2637 23.9466C19.2687 23.8735 19.2924 23.801 19.3248 23.7353C19.4128 23.5568 19.5441 23.4647 19.7298 23.403Z" fill="url(#paint18_linear_1_2127)"/>
<path d="M10.9545 19.0504C11.1306 19.0406 11.3127 19.0481 11.4896 19.0482L12.485 19.0489L13.3249 19.0501C13.4698 19.0504 13.6229 19.042 13.7665 19.0529C13.8533 19.0595 13.9364 19.0787 14.0119 19.1168C14.1457 19.1842 14.2481 19.2964 14.2827 19.428C14.3116 19.5379 14.2924 19.6888 14.2922 19.8026L14.2921 20.5811L14.2935 21.453C14.2937 21.593 14.3101 21.7486 14.2898 21.8868C14.2808 21.9482 14.2403 22.016 14.2021 22.0675C14.101 22.2041 13.9555 22.2663 13.7778 22.2996L11.9425 22.2941L11.3038 22.2933C11.145 22.2931 10.9674 22.3079 10.821 22.246C10.6559 22.1763 10.5444 22.0672 10.4864 21.9177C10.429 21.7698 10.463 21.5315 10.4628 21.3732L10.462 20.4382C10.4619 20.1323 10.4353 19.8086 10.4615 19.5044C10.4672 19.4379 10.4864 19.3809 10.5231 19.3221C10.6151 19.1747 10.775 19.0952 10.9545 19.0504Z" fill="url(#paint19_linear_1_2127)"/>
<path d="M13.4954 23.3874C13.7281 23.3804 13.9329 23.3715 14.1206 23.5343C14.2105 23.6121 14.2883 23.7462 14.2947 23.8649C14.3059 24.0716 14.2957 24.2849 14.2957 24.4924L14.2948 25.7162L14.2944 26.3505C14.2952 26.4598 14.308 26.5852 14.2916 26.6929C14.2762 26.7935 14.2012 26.9253 14.1312 26.9975C14.0431 27.0885 13.9286 27.139 13.804 27.1596C13.5512 27.2014 13.2428 27.1689 12.985 27.169L11.2391 27.1719C11.0229 27.1748 10.8324 27.1716 10.6597 27.0223C10.5375 26.9167 10.4573 26.7546 10.45 26.5938L10.4514 24.9146L10.4539 24.2822C10.4546 24.1485 10.4458 24.0058 10.4687 23.8739C10.488 23.7632 10.5487 23.6565 10.6285 23.5772C10.7066 23.4996 10.8074 23.4249 10.9177 23.4011C11.0184 23.3794 11.1344 23.3887 11.2372 23.3889L11.7937 23.3909L13.4954 23.3874Z" fill="url(#paint20_linear_1_2127)"/>
</g>
<defs>
<linearGradient id="paint0_linear_1_2127" x1="4.14777" y1="7.11896" x2="30.7999" y2="7.11896" gradientUnits="userSpaceOnUse">
<stop stop-color="#FF372A"/>
<stop offset="1" stop-color="#FF1514"/>
</linearGradient>
<linearGradient id="paint1_linear_1_2127" x1="6.74981" y1="5.21812" x2="8.79997" y2="5.21812" gradientUnits="userSpaceOnUse">
<stop stop-color="#FF372A"/>
<stop offset="1" stop-color="#FF1514"/>
</linearGradient>
<linearGradient id="paint2_linear_1_2127" x1="24.3498" y1="5.21812" x2="26.3999" y2="5.21812" gradientUnits="userSpaceOnUse">
<stop stop-color="#FF372A"/>
<stop offset="1" stop-color="#FF1514"/>
</linearGradient>
<linearGradient id="paint3_linear_1_2127" x1="12.7999" y1="5.21812" x2="14.85" y2="5.21812" gradientUnits="userSpaceOnUse">
<stop stop-color="#FF372A"/>
<stop offset="1" stop-color="#FF1514"/>
</linearGradient>
<linearGradient id="paint4_linear_1_2127" x1="18.2999" y1="5.21812" x2="20.35" y2="5.21812" gradientUnits="userSpaceOnUse">
<stop stop-color="#FF372A"/>
<stop offset="1" stop-color="#FF1514"/>
</linearGradient>
<linearGradient id="paint5_linear_1_2127" x1="4.14777" y1="20.6841" x2="30.7999" y2="20.6841" gradientUnits="userSpaceOnUse">
<stop stop-color="#FF372A"/>
<stop offset="1" stop-color="#FF1514"/>
</linearGradient>
<linearGradient id="paint6_linear_1_2127" x1="23.8748" y1="16.3357" x2="26.95" y2="16.3357" gradientUnits="userSpaceOnUse">
<stop stop-color="#FF372A"/>
<stop offset="1" stop-color="#FF1514"/>
</linearGradient>
<linearGradient id="paint7_linear_1_2127" x1="23.8748" y1="20.6746" x2="26.95" y2="20.6746" gradientUnits="userSpaceOnUse">
<stop stop-color="#FF372A"/>
<stop offset="1" stop-color="#FF1514"/>
</linearGradient>
<linearGradient id="paint8_linear_1_2127" x1="5.76221" y1="16.3357" x2="9.34999" y2="16.3357" gradientUnits="userSpaceOnUse">
<stop stop-color="#FF372A"/>
<stop offset="1" stop-color="#FF1514"/>
</linearGradient>
<linearGradient id="paint9_linear_1_2127" x1="15.1122" y1="16.3357" x2="18.7" y2="16.3357" gradientUnits="userSpaceOnUse">
<stop stop-color="#FF372A"/>
<stop offset="1" stop-color="#FF1514"/>
</linearGradient>
<linearGradient id="paint10_linear_1_2127" x1="23.8748" y1="25.2852" x2="26.95" y2="25.2852" gradientUnits="userSpaceOnUse">
<stop stop-color="#FF372A"/>
<stop offset="1" stop-color="#FF1514"/>
</linearGradient>
<linearGradient id="paint11_linear_1_2127" x1="10.7122" y1="16.3357" x2="14.2999" y2="16.3357" gradientUnits="userSpaceOnUse">
<stop stop-color="#FF372A"/>
<stop offset="1" stop-color="#FF1514"/>
</linearGradient>
<linearGradient id="paint12_linear_1_2127" x1="19.5122" y1="16.3357" x2="23.1" y2="16.3357" gradientUnits="userSpaceOnUse">
<stop stop-color="#FF372A"/>
<stop offset="1" stop-color="#FF1514"/>
</linearGradient>
<linearGradient id="paint13_linear_1_2127" x1="5.76221" y1="20.6746" x2="9.34999" y2="20.6746" gradientUnits="userSpaceOnUse">
<stop stop-color="#FF372A"/>
<stop offset="1" stop-color="#FF1514"/>
</linearGradient>
<linearGradient id="paint14_linear_1_2127" x1="15.1122" y1="20.6746" x2="18.7" y2="20.6746" gradientUnits="userSpaceOnUse">
<stop stop-color="#FF372A"/>
<stop offset="1" stop-color="#FF1514"/>
</linearGradient>
<linearGradient id="paint15_linear_1_2127" x1="19.5122" y1="20.6746" x2="23.1" y2="20.6746" gradientUnits="userSpaceOnUse">
<stop stop-color="#FF372A"/>
<stop offset="1" stop-color="#FF1514"/>
</linearGradient>
<linearGradient id="paint16_linear_1_2127" x1="15.1122" y1="25.0136" x2="18.7" y2="25.0136" gradientUnits="userSpaceOnUse">
<stop stop-color="#FF372A"/>
<stop offset="1" stop-color="#FF1514"/>
</linearGradient>
<linearGradient id="paint17_linear_1_2127" x1="5.76221" y1="25.2852" x2="9.34999" y2="25.2852" gradientUnits="userSpaceOnUse">
<stop stop-color="#FF372A"/>
<stop offset="1" stop-color="#FF1514"/>
</linearGradient>
<linearGradient id="paint18_linear_1_2127" x1="19.5122" y1="25.2852" x2="23.1" y2="25.2852" gradientUnits="userSpaceOnUse">
<stop stop-color="#FF372A"/>
<stop offset="1" stop-color="#FF1514"/>
</linearGradient>
<linearGradient id="paint19_linear_1_2127" x1="10.7122" y1="20.6746" x2="14.2999" y2="20.6746" gradientUnits="userSpaceOnUse">
<stop stop-color="#FF372A"/>
<stop offset="1" stop-color="#FF1514"/>
</linearGradient>
<linearGradient id="paint20_linear_1_2127" x1="10.7122" y1="25.2852" x2="14.2999" y2="25.2852" gradientUnits="userSpaceOnUse">
<stop stop-color="#FF372A"/>
<stop offset="1" stop-color="#FF1514"/>
</linearGradient>
<clipPath id="clip0_1_2127">
<rect width="33" height="32" fill="white" transform="translate(0 0.0623169)"/>
</clipPath>
</defs>
</svg>
