<svg width="33" height="33" viewBox="0 0 33 33" fill="none" xmlns="http://www.w3.org/2000/svg">
<path d="M24.8355 8.7403L25.3006 9.17982L24.6753 9.82543L24.2 9.41052L24.8355 8.7403Z" fill="url(#paint0_linear_1_2162)"/>
<path d="M7.69995 9.21013L7.98737 8.92951C8.05306 8.86361 8.11629 8.78978 8.19687 8.7403L8.80057 9.38486L8.27546 9.82543L7.69995 9.21013Z" fill="url(#paint1_linear_1_2162)"/>
<path d="M24.7209 8.94507C24.5735 8.80382 24.3977 8.65563 24.2976 8.475C24.1868 8.27506 24.1739 8.01319 24.2407 7.79586C24.3208 7.53506 24.4988 7.32514 24.7399 7.20556C24.9507 7.10104 25.2013 7.08325 25.4232 7.16212C25.5263 7.19879 25.623 7.25184 25.7099 7.31869C25.8949 7.46085 26.0581 7.65004 26.2236 7.81542C26.4373 8.02887 26.742 8.25151 26.8708 8.53064C26.8919 8.57654 26.9053 8.62347 26.9188 8.67206L26.9269 8.70049C26.9853 8.91608 26.9271 9.1578 26.8161 9.34654C26.6767 9.58379 26.4717 9.73903 26.2049 9.80345C26.0643 9.8374 25.9038 9.83186 25.7648 9.79445L25.7405 9.7883C25.5505 9.73796 25.4014 9.61281 25.2674 9.47292L24.7209 8.94507Z" fill="url(#paint2_linear_1_2162)"/>
<path d="M7.70036 9.47214C7.54044 9.63094 7.36688 9.75894 7.14177 9.80561L7.11683 9.8105C7.02597 9.8289 6.91919 9.8297 6.82696 9.81922C6.59861 9.79322 6.35866 9.63864 6.22154 9.45473C6.09386 9.28354 6.0262 9.02118 6.05773 8.80779L6.06175 8.78255C6.07557 8.69065 6.0974 8.60328 6.13715 8.51895C6.20794 8.36881 6.32202 8.26221 6.43629 8.14587L6.79947 7.77918C6.95684 7.62105 7.11505 7.43865 7.29189 7.30394C7.38124 7.23583 7.48128 7.18865 7.58768 7.15364C7.8189 7.07755 8.07656 7.11307 8.29064 7.22392C8.52107 7.34326 8.69494 7.53707 8.76758 7.78927C8.83594 8.02662 8.79386 8.28064 8.66484 8.48965C8.57471 8.63564 8.41246 8.77393 8.28717 8.88976C8.19201 8.95109 8.11734 9.04262 8.03977 9.1243L7.70036 9.47214Z" fill="url(#paint3_linear_1_2162)"/>
<path d="M14.3 3.84742C14.3853 3.33509 14.722 2.88611 15.1734 2.58452C15.6745 2.2498 16.3632 2.17831 16.9608 2.26628C17.5385 2.35132 18.0263 2.64488 18.3643 3.07846C18.5423 3.30691 18.6561 3.582 18.7 3.85951L14.3 3.84742Z" fill="url(#paint4_linear_1_2162)"/>
<path d="M14.2213 3.85892L18.7316 3.87123L18.7505 3.87236L19.2412 3.87634C19.2384 3.98171 19.2291 4.09077 19.2394 4.19557C19.2588 4.39117 19.2457 4.5981 19.2454 4.79469C19.2453 4.86488 19.2614 4.97524 19.2249 5.0366L19.2304 5.65928L18.139 5.66151L18.1309 5.81998L18.1275 6.55966C17.3317 6.45454 16.4936 6.42736 15.6923 6.47944C15.392 6.49897 15.0892 6.56059 14.791 6.57174L14.7908 5.65884L14.7894 5.03648L13.7602 5.0259L13.75 4.19859C13.7732 4.09524 13.7578 3.9656 13.7585 3.859L14.2213 3.85892Z" fill="url(#paint5_linear_1_2162)"/>
<path d="M14.85 5.49384L18.15 5.48605L18.1483 6.02862L14.8513 6.02644L14.85 5.49384Z" fill="url(#paint6_linear_1_2162)"/>
<path d="M14.85 6.02841L18.145 6.03144C18.1447 6.0928 18.1397 6.1596 18.15 6.21995L18.1466 7.09918C17.3604 6.97423 16.5323 6.94191 15.7407 7.00382C15.444 7.02704 15.1448 7.10028 14.8502 7.11354L14.85 6.02841Z" fill="url(#paint7_linear_1_2162)"/>
<path d="M15.0462 6.69912C15.3501 6.68699 15.6587 6.62 15.9648 6.59876C16.7814 6.54213 17.6356 6.57169 18.4466 6.68598C18.5096 6.71406 18.5898 6.71573 18.6579 6.72635L18.9693 6.78159C19.2903 6.84269 19.6166 6.91152 19.9309 7.00016C21.0951 7.32861 22.2436 7.84068 23.2579 8.48722C23.6186 8.7172 23.9535 8.97106 24.2928 9.2293L24.8579 9.71409C26.3691 11.0999 27.4998 12.8354 28.0963 14.7753C28.4002 15.7632 28.5592 16.8001 28.593 17.8295C28.6427 19.343 28.4257 20.8643 27.8922 22.2902C27.6427 22.9567 27.3189 23.6006 26.9523 24.2129C26.526 24.9249 26.0258 25.6074 25.4425 26.2069C24.6773 26.9934 23.7969 27.7122 22.8424 28.2714C21.0798 29.3041 19.0392 29.8442 16.9882 29.89C13.956 29.9577 10.886 28.7964 8.69378 26.7547C8.38466 26.4668 8.07573 26.1658 7.79928 25.8482C6.05324 23.8424 5.00962 21.2657 4.94995 18.6317L4.96099 17.9572C4.96896 17.4636 4.98343 16.985 5.05219 16.4943C5.38352 14.13 6.4916 11.879 8.18914 10.1548L8.61041 9.73923L9.2406 9.20053C10.9006 7.87982 12.9049 7.0052 15.0275 6.70328L15.0462 6.69912Z" fill="url(#paint8_linear_1_2162)"/>
<path d="M15.9834 8.74571C18.4264 8.6587 20.8509 9.62655 22.6531 11.2293C23.1119 11.6373 23.517 12.0981 23.8859 12.5861C25.0078 14.0704 25.739 15.8682 25.8346 17.7285C25.8662 18.3449 25.8523 18.9719 25.7637 19.5836C25.5012 21.3973 24.6494 23.1763 23.4014 24.5336C22.0068 26.0504 20.1654 27.1097 18.1293 27.5281C17.5913 27.6386 17.0528 27.6933 16.5047 27.7196C13.983 27.7896 11.5401 26.8703 9.68246 25.1903C8.23584 23.8821 7.21027 22.079 6.80334 20.1879C6.68731 19.6486 6.6316 19.1107 6.60816 18.5606C6.50093 16.0447 7.45175 13.6183 9.17796 11.7758C10.4301 10.4394 12.0877 9.47002 13.8767 9.02774C14.5671 8.85708 15.2733 8.77334 15.9834 8.74571Z" fill="white"/>
<path d="M16.2232 26.6372C15.0333 26.66 13.7773 26.4086 12.6872 25.9571C10.4532 25.0315 8.67636 23.3122 7.77875 21.1395C7.05135 19.3789 6.95401 17.4021 7.49252 15.5817C7.59321 15.2414 7.70002 14.9129 7.84762 14.5882C8.02933 14.1885 8.23058 13.7937 8.46889 13.4218C9.48905 11.8298 11.0271 10.5837 12.8446 9.90315C14.6337 9.23328 16.585 9.09008 18.4499 9.55042C18.9486 9.67352 19.4416 9.84952 19.9136 10.0467C20.3978 10.2704 20.8642 10.5074 21.3089 10.7982C22.9482 11.8703 24.1626 13.4707 24.8139 15.257C25.5772 17.3502 25.4382 19.6984 24.421 21.6937C23.6533 23.1993 22.4098 24.4985 20.9125 25.3659C20.3037 25.7186 19.6432 25.9997 18.9695 26.2175C18.0945 26.5003 17.1426 26.6139 16.2232 26.6372Z" fill="url(#paint9_linear_1_2162)"/>
<path d="M22.1984 21.2227C22.25 21.2138 22.3055 21.2095 22.3559 21.2262C22.4292 21.2506 22.4956 21.3102 22.526 21.3812C22.5546 21.4478 22.5599 21.5242 22.5301 21.5916C22.4913 21.6795 22.4249 21.7165 22.3407 21.7521C22.2923 21.755 22.2349 21.7632 22.1885 21.7467C22.1185 21.7218 22.0604 21.6681 22.0283 21.6016C21.9942 21.5309 21.9902 21.454 22.0202 21.3809C22.0545 21.2974 22.1203 21.2582 22.1984 21.2227Z" fill="#2F201C"/>
<path d="M19.5175 23.3844C19.5669 23.3883 19.6123 23.3918 19.6569 23.4143C19.7218 23.4471 19.7681 23.4984 19.7888 23.567C19.8124 23.6451 19.7982 23.7311 19.7542 23.7995C19.7033 23.8786 19.6244 23.9054 19.5356 23.9262C19.4723 23.9158 19.424 23.906 19.37 23.8696C19.3078 23.8277 19.264 23.7583 19.2524 23.6858C19.2416 23.6188 19.2684 23.5345 19.3119 23.4819C19.3659 23.4167 19.4349 23.3955 19.5175 23.3844Z" fill="#2F201C"/>
<path d="M22.231 14.7078C22.2734 14.7051 22.3173 14.7052 22.3584 14.7177C22.433 14.7404 22.4982 14.803 22.5289 14.8735C22.5584 14.9411 22.5563 15.006 22.5275 15.0732C22.4879 15.1658 22.4175 15.2102 22.3282 15.247C22.2783 15.2506 22.225 15.2468 22.178 15.2283C22.1042 15.1992 22.0359 15.1281 22.0106 15.0528C21.9873 14.9832 22.0047 14.9001 22.04 14.8377C22.0835 14.7607 22.1481 14.7301 22.231 14.7078Z" fill="#2F201C"/>
<path d="M19.4888 11.9945C19.5417 11.9982 19.5894 12.0006 19.6388 12.0212C19.7044 12.0487 19.7569 12.0949 19.7829 12.1627C19.8078 12.2278 19.8055 12.3078 19.7769 12.3714C19.7338 12.4673 19.6629 12.5005 19.5707 12.5351C19.4956 12.539 19.4329 12.5362 19.3673 12.4931C19.3077 12.454 19.2638 12.3887 19.2536 12.3172C19.2425 12.2391 19.2566 12.1563 19.3044 12.0925C19.3534 12.027 19.4115 12.0073 19.4888 11.9945Z" fill="#2F201C"/>
<path d="M16.5029 24.4762C16.5951 24.4524 16.7311 24.4914 16.8099 24.5468C16.9294 24.6308 17.0183 24.7674 17.0454 24.9207L17.0508 24.9595L17.0435 26.0433C17.0134 26.2253 16.9726 26.4081 16.8219 26.5184C16.7227 26.591 16.6172 26.6256 16.5 26.6394L16.5029 24.4762Z" fill="url(#paint10_linear_1_2162)"/>
<path d="M17.05 10.8735L17.0526 10.3674C17.9997 10.4191 18.9183 10.5931 19.8 10.8817C19.7088 11.0803 19.4838 11.2456 19.4099 11.4483L19.4014 11.4525C19.3518 11.4017 19.2045 11.3656 19.13 11.3405C18.4579 11.1132 17.7634 10.9776 17.05 10.8735Z" fill="url(#paint11_linear_1_2162)"/>
<path d="M19.6786 10.9098C19.9911 11.0103 20.295 11.1814 20.5792 11.3391C22.0192 12.138 23.1475 13.3159 23.8817 14.7275C24.383 15.6912 24.6459 16.7485 24.746 17.8132L24.1405 17.8142C24.0402 17.8142 23.9256 17.804 23.8274 17.8195L23.84 18.5918L24.75 18.5933C24.6945 19.1575 24.6158 19.7151 24.4632 20.2643C24.1622 21.3477 23.5941 22.345 22.8416 23.2063C22.5126 23.5828 22.1678 23.9362 21.7693 24.2484C21.3402 24.5845 20.8662 24.9085 20.3767 25.1621C19.669 25.5287 18.8938 25.7857 18.1063 25.9477C17.7639 26.0181 17.4005 26.0881 17.05 26.0962L17.0594 24.9008C17.0952 25.0327 17.071 25.2056 17.0689 25.3427C17.2943 25.3274 17.5314 25.2674 17.7529 25.2224C19.0415 24.9602 20.1948 24.4147 21.2026 23.616C22.4365 22.638 23.2913 21.2966 23.6571 19.8153C23.7554 19.4172 23.8058 19.0078 23.8435 18.601L23.1093 18.6036C23.031 18.6056 22.8457 18.6078 22.7876 18.5606C22.669 18.4645 22.6238 18.3714 22.6157 18.2232C22.6095 18.1098 22.6445 17.9801 22.733 17.8991C22.8962 17.7495 23.2709 17.8061 23.4866 17.8084C23.5874 17.7914 23.7249 17.8089 23.8295 17.8097C23.7963 17.4941 23.768 17.1777 23.7069 16.8655C23.5334 15.9789 23.1642 15.1292 22.6576 14.3665C21.9741 13.3374 21.0116 12.5077 19.9222 11.8727C19.7412 11.7672 19.4936 11.5955 19.2856 11.5507C19.358 11.3219 19.5783 11.1353 19.6677 10.9112L19.6786 10.9098Z" fill="url(#paint12_linear_1_2162)"/>
<path d="M20.3044 9.82501C20.803 10.0517 21.2832 10.2919 21.741 10.5866C23.4287 11.6732 24.679 13.2951 25.3495 15.1054C26.1353 17.2268 25.9923 19.6065 24.945 21.6286C24.1546 23.1545 22.8745 24.4711 21.3329 25.3503C20.7061 25.7077 20.0261 25.9926 19.3325 26.2133C18.4317 26.4999 17.4516 26.615 16.5051 26.6386L16.5 26.4792C16.6523 26.464 16.7894 26.4253 16.9185 26.3445C17.1144 26.2217 17.1673 26.0181 17.2065 25.8154C17.561 25.8072 17.9285 25.7365 18.2749 25.6654C19.0714 25.5018 19.8554 25.2423 20.5711 24.8721C21.0662 24.6161 21.5457 24.2889 21.9797 23.9495C22.3827 23.6343 22.7314 23.2774 23.0642 22.8972C23.8253 22.0275 24.3999 21.0205 24.7043 19.9265C24.8586 19.372 24.9383 18.8088 24.9945 18.2391L24.074 18.2377L24.0613 17.4578C24.1606 17.4421 24.2765 17.4524 24.378 17.4524L24.9904 17.4514C24.8891 16.3764 24.6232 15.3087 24.1162 14.3356C23.3736 12.9102 22.2324 11.7208 20.776 10.914C20.4886 10.7548 20.1812 10.5821 19.8651 10.4805C19.902 10.3925 19.9683 10.3052 20.0224 10.2254L20.3044 9.82501Z" fill="url(#paint13_linear_1_2162)"/>
<path d="M17.05 13.6216L17.7125 13.7256L17.7287 13.724L17.7513 13.7374C17.8445 13.7906 17.9691 13.8152 18.0703 13.8539C18.2456 13.9209 18.4187 14.0021 18.5845 14.0906C19.5931 14.6289 20.3702 15.5625 20.7012 16.6722C21.0505 17.8433 20.9397 19.2086 20.3682 20.2872C20.1858 20.6315 19.9475 20.9273 19.6895 21.2149L17.3505 18.9473L17.4322 18.8536C17.6013 18.6519 17.6996 18.369 17.6953 18.105C17.6917 17.8822 17.6401 17.6536 17.5228 17.4637C17.4927 17.415 17.425 17.3486 17.4069 17.2987C17.3916 17.2569 17.3935 17.1789 17.3887 17.1317L17.3461 16.6965L17.1556 14.6151L17.05 13.6216Z" fill="white"/>
<path d="M16.4941 24.3988L16.475 24.3976C16.2741 24.3894 16.1204 24.432 15.9735 24.5709C15.8855 24.654 15.8189 24.7485 15.7873 24.8642C15.7442 25.022 15.7698 25.2173 15.7725 25.38L15.7761 26.0962C15.2467 26.078 14.7199 25.9765 14.2121 25.835C13.0254 25.5044 11.9921 24.9364 11.0573 24.1672C10.7743 23.9344 10.525 23.6814 10.2797 23.4126C9.07572 22.0935 8.38985 20.4911 8.25 18.7421L9.2618 18.7438C9.45536 18.7436 9.68307 18.7636 9.87152 18.7172C9.95579 18.6965 10.042 18.6484 10.1061 18.5926C10.2143 18.4984 10.2748 18.3536 10.2777 18.2153C10.2809 18.0669 10.2236 17.9321 10.1134 17.8269C10.036 17.753 9.92978 17.7005 9.8218 17.682C9.65535 17.6536 9.44724 17.6746 9.27665 17.6753L8.25078 17.6762C8.30073 17.0248 8.43961 16.3479 8.65529 15.7285C9.3486 13.7375 10.8369 12.0823 12.7982 11.1463C13.6401 10.7445 14.587 10.4713 15.5258 10.3919C15.621 10.3839 15.7848 10.3504 15.872 10.3783L15.8734 11.3911C15.8737 11.5366 15.8563 11.7049 15.8805 11.8474C15.8903 11.9055 15.925 11.9636 15.9685 12.0046C16.1099 12.1381 16.3575 12.1 16.5407 12.0996C16.7058 12.1005 16.8791 12.1286 17.0089 12.01C17.0564 11.9666 17.092 11.92 17.1078 11.8582C17.1313 11.7656 17.1168 11.6424 17.1164 11.546L17.1166 10.9168C17.8062 11.0345 18.4775 11.1878 19.1271 11.4447C19.1991 11.4731 19.3415 11.5139 19.3895 11.5714L17.7658 14.1423L17.749 14.1439L17.0618 14.0422L17.1713 15.0137L17.3689 17.0493L17.4131 17.4749C17.4181 17.5211 17.4162 17.5973 17.432 17.6382C17.4508 17.6871 17.5211 17.7519 17.5522 17.7995C17.6739 17.9853 17.7274 18.2089 17.7312 18.4267C17.7357 18.6849 17.6337 18.9616 17.4582 19.1589L17.3735 19.2505L19.8 21.4681C18.9862 22.2537 17.9512 22.7373 16.7917 22.8142L16.5623 22.8285C16.5421 22.8297 16.5118 22.8154 16.5016 22.8321C16.4843 22.8607 16.5025 23.0706 16.5026 23.114L16.5056 24.2994C16.5057 24.3347 16.5072 24.3648 16.4941 24.3988Z" fill="white"/>
<path d="M13.4242 11.9958C13.4818 11.9925 13.5409 11.9939 13.5942 12.0192C13.6533 12.0473 13.7074 12.1084 13.7294 12.1701C13.7559 12.2442 13.7595 12.3091 13.725 12.3807C13.685 12.4639 13.6191 12.5012 13.5366 12.533C13.4731 12.5395 13.401 12.5392 13.3435 12.5074C13.2824 12.4736 13.2283 12.405 13.2101 12.3373C13.1918 12.2694 13.1973 12.1898 13.2348 12.1291C13.2814 12.0536 13.3411 12.0189 13.4242 11.9958Z" fill="#2F201C"/>
<path d="M10.1187 21.217C10.1711 21.2148 10.2258 21.2099 10.2752 21.2303C10.3432 21.2582 10.4029 21.3082 10.4294 21.3769C10.4573 21.4492 10.4582 21.528 10.4246 21.5985C10.3888 21.6733 10.325 21.7256 10.2467 21.7537C10.2 21.7563 10.1514 21.7609 10.1059 21.7482C10.03 21.7269 9.96736 21.6817 9.93023 21.613C9.89819 21.5536 9.88994 21.4634 9.91373 21.3998C9.9506 21.3012 10.0255 21.2561 10.1187 21.217Z" fill="#2F201C"/>
<path d="M13.4298 23.3847C13.4813 23.383 13.5274 23.3881 13.576 23.4061C13.6447 23.4315 13.7027 23.4809 13.731 23.5479C13.7631 23.6238 13.7524 23.7043 13.7156 23.7759C13.6733 23.8581 13.6044 23.8965 13.5182 23.9257C13.4728 23.9279 13.4211 23.923 13.3787 23.9066C13.3075 23.8792 13.2406 23.8241 13.2146 23.7524C13.1891 23.682 13.198 23.5926 13.2323 23.5264C13.2751 23.4437 13.3427 23.41 13.4298 23.3847Z" fill="#2F201C"/>
<path d="M10.1063 14.7093C10.1662 14.7063 10.2205 14.7002 10.2768 14.7249C10.3445 14.7547 10.4057 14.8129 10.4321 14.8812C10.4537 14.9371 10.4586 15.0305 10.4315 15.0859C10.3905 15.1694 10.3233 15.2135 10.2388 15.2471C10.1908 15.2484 10.1414 15.2514 10.0952 15.2365C10.021 15.2126 9.95881 15.1588 9.92516 15.0897C9.89285 15.0234 9.8918 14.9378 9.92136 14.8705C9.95715 14.7889 10.0263 14.7433 10.1063 14.7093Z" fill="#2F201C"/>
<path d="M15.844 13.9857L16.0337 12.5409L16.7852 12.5369L16.9553 13.9871L17.0607 14.9797L17.251 17.0594L17.2936 17.4942C17.2983 17.5415 17.2965 17.6193 17.3117 17.6611C17.3298 17.711 17.3975 17.7773 17.4275 17.8259C17.5446 18.0157 17.5962 18.2442 17.5998 18.4667C17.6041 18.7305 17.5059 19.0132 17.337 19.2148L17.2554 19.3084C16.9961 19.5385 16.7524 19.6543 16.4035 19.6597L16.4007 22.842C16.0797 22.8308 15.7666 22.8185 15.4508 22.7524C14.9849 22.6549 14.5274 22.4366 14.1247 22.1841C13.1867 21.5959 12.4688 20.5572 12.2205 19.4669C11.9651 18.3454 12.1086 17.04 12.7188 16.0562C13.2442 15.209 13.9846 14.5809 14.915 14.2413C15.2197 14.13 15.5292 14.0586 15.844 13.9857Z" fill="white"/>
<path d="M15.9527 13.971L16.1307 12.5408L16.8357 12.5369L16.9953 13.9724L17.0941 14.955L17.2726 17.0137L17.3126 17.4441C17.3171 17.4909 17.3153 17.5679 17.3296 17.6093C17.3466 17.6587 17.4101 17.7243 17.4382 17.7725C17.5481 17.9604 17.5965 18.1865 17.5999 18.4068C17.6039 18.6679 17.5118 18.9478 17.3533 19.1473L17.2768 19.2399C17.0335 19.4677 16.8049 19.5824 16.4776 19.5877L16.3156 19.5683C16.0243 19.5242 15.7711 19.3466 15.5987 19.0937C15.4205 18.832 15.3696 18.5244 15.4165 18.2076C15.4592 17.9197 15.6211 17.6761 15.8379 17.5075L15.8534 17.4955C15.7844 16.315 15.8236 15.1458 15.9527 13.971Z" fill="#2F201C"/>
<path d="M16.4365 17.4182C16.5774 17.4211 16.6847 17.4277 16.8084 17.5078C16.9266 17.5843 17.0095 17.707 17.0377 17.844C17.0681 17.9914 17.0455 18.1369 16.9602 18.2624C16.8645 18.4033 16.7348 18.4718 16.5688 18.501C16.4509 18.5106 16.3371 18.4917 16.2334 18.4333C16.1003 18.3583 15.9992 18.2264 15.9636 18.0787C15.9293 17.9363 15.9609 17.7739 16.0434 17.6532C16.1386 17.5138 16.2748 17.4467 16.4365 17.4182Z" fill="white"/>
<defs>
<linearGradient id="paint0_linear_1_2162" x1="24.2749" y1="9.28359" x2="25.3006" y2="9.28359" gradientUnits="userSpaceOnUse">
<stop stop-color="#FF372A"/>
<stop offset="1" stop-color="#FF1514"/>
</linearGradient>
<linearGradient id="paint1_linear_1_2162" x1="7.77491" y1="9.28359" x2="8.80057" y2="9.28359" gradientUnits="userSpaceOnUse">
<stop stop-color="#FF372A"/>
<stop offset="1" stop-color="#FF1514"/>
</linearGradient>
<linearGradient id="paint2_linear_1_2162" x1="24.3872" y1="8.47139" x2="26.9499" y2="8.47139" gradientUnits="userSpaceOnUse">
<stop stop-color="#FF372A"/>
<stop offset="1" stop-color="#FF1514"/>
</linearGradient>
<linearGradient id="paint3_linear_1_2162" x1="6.23734" y1="8.47139" x2="8.80004" y2="8.47139" gradientUnits="userSpaceOnUse">
<stop stop-color="#FF372A"/>
<stop offset="1" stop-color="#FF1514"/>
</linearGradient>
<linearGradient id="paint4_linear_1_2162" x1="14.5997" y1="3.04675" x2="18.7" y2="3.04675" gradientUnits="userSpaceOnUse">
<stop stop-color="#FF372A"/>
<stop offset="1" stop-color="#FF1514"/>
</linearGradient>
<linearGradient id="paint5_linear_1_2162" x1="14.1246" y1="5.21715" x2="19.25" y2="5.21715" gradientUnits="userSpaceOnUse">
<stop stop-color="#FF372A"/>
<stop offset="1" stop-color="#FF1514"/>
</linearGradient>
<linearGradient id="paint6_linear_1_2162" x1="15.0747" y1="5.7577" x2="18.15" y2="5.7577" gradientUnits="userSpaceOnUse">
<stop stop-color="#FF372A"/>
<stop offset="1" stop-color="#FF1514"/>
</linearGradient>
<linearGradient id="paint7_linear_1_2162" x1="15.0747" y1="6.5717" x2="18.15" y2="6.5717" gradientUnits="userSpaceOnUse">
<stop stop-color="#FF372A"/>
<stop offset="1" stop-color="#FF1514"/>
</linearGradient>
<linearGradient id="paint8_linear_1_2162" x1="6.56065" y1="18.2474" x2="28.5999" y2="18.2474" gradientUnits="userSpaceOnUse">
<stop stop-color="#FF372A"/>
<stop offset="1" stop-color="#FF1514"/>
</linearGradient>
<linearGradient id="paint9_linear_1_2162" x1="8.38614" y1="17.9723" x2="25.3" y2="17.9723" gradientUnits="userSpaceOnUse">
<stop stop-color="#FF372A"/>
<stop offset="1" stop-color="#FF1514"/>
</linearGradient>
<linearGradient id="paint10_linear_1_2162" x1="16.5375" y1="25.5557" x2="17.0508" y2="25.5557" gradientUnits="userSpaceOnUse">
<stop stop-color="#FF372A"/>
<stop offset="1" stop-color="#FF1514"/>
</linearGradient>
<linearGradient id="paint11_linear_1_2162" x1="17.2373" y1="10.9107" x2="19.8" y2="10.9107" gradientUnits="userSpaceOnUse">
<stop stop-color="#FF372A"/>
<stop offset="1" stop-color="#FF1514"/>
</linearGradient>
<linearGradient id="paint12_linear_1_2162" x1="17.5745" y1="18.5132" x2="24.75" y2="18.5132" gradientUnits="userSpaceOnUse">
<stop stop-color="#FF372A"/>
<stop offset="1" stop-color="#FF1514"/>
</linearGradient>
<linearGradient id="paint13_linear_1_2162" x1="17.1368" y1="18.2431" x2="25.85" y2="18.2431" gradientUnits="userSpaceOnUse">
<stop stop-color="#FF372A"/>
<stop offset="1" stop-color="#FF1514"/>
</linearGradient>
</defs>
</svg>
